<?xml version="1.0" encoding="UTF-8"?>
<svg width="39px" height="39px" viewBox="0 0 39 39" version="1.1" xmlns="http://www.w3.org/2000/svg" xmlns:xlink="http://www.w3.org/1999/xlink">
    <!-- Generator: Sketch 46.2 (44496) - http://www.bohemiancoding.com/sketch -->
    <title>Group 37</title>
    <desc>Created with Sketch.</desc>
    <defs></defs>
    <g id="Welcome" stroke="none" stroke-width="1" fill="none" fill-rule="evenodd">
        <g id="Trang-nhân-vật-Copy-3" transform="translate(-244.000000, -499.000000)">
            <g id="Group-37" transform="translate(244.000000, 499.000000)">
                <path d="M2.18555242,24.0513737 C2.01005242,23.3849929 1.52195057,22.8010796 1.16926538,22.1820301 C0.910830197,21.7283985 0.653959827,21.273801 0.389145012,20.8239124 C-0.132419803,19.9374171 -0.127003136,19.0565966 0.389145012,18.1686524 C0.959098715,17.1878567 1.52532094,16.2046462 2.07938575,15.214674 C2.16725612,15.0575874 2.2229876,14.859931 2.22479316,14.6803861 C2.23743205,13.473318 2.23285797,12.2660084 2.23105242,11.0588196 C2.22936723,10.0436121 2.66233946,9.28763999 3.54754316,8.78679788 C4.5857376,8.19938302 5.62140427,7.60725918 6.65020983,7.00354401 C6.80440427,6.91298674 6.95077464,6.76821584 7.03972835,6.61330253 C7.60414501,5.62936754 8.15363575,4.63673906 8.70384872,3.64459355 C9.21229316,2.72803318 9.98422835,2.26196507 11.0314506,2.26099912 C12.1748487,2.25991244 13.3182469,2.27053782 14.4612839,2.25206414 C14.6878209,2.24844185 14.9355432,2.1773242 15.134395,2.06660284 C16.0890524,1.53533349 17.0338395,0.985952683 17.9752561,0.431379928 C18.9452006,-0.140096852 19.9052746,-0.145530289 20.8770246,0.425584262 C21.8363765,0.989333488 22.7984969,1.54873596 23.7697654,2.0914759 C23.9512839,2.19290005 24.1810709,2.25049448 24.3895524,2.25327157 C25.5425802,2.26860593 26.6960895,2.26763999 27.849358,2.25858426 C28.9319691,2.25013225 29.7283395,2.7067824 30.258932,3.65920346 C30.8208209,4.66777002 31.400645,5.66643566 31.9868487,6.66111677 C32.0779691,6.81590934 32.2245802,6.95959355 32.3791358,7.05159974 C33.3437839,7.62597436 34.3161358,8.18755021 35.2896913,8.7467112 C36.213895,9.27749757 36.6912839,10.0556864 36.6768395,11.1393552 C36.6617932,12.2759093 36.6673302,13.4129465 36.6798487,14.5495007 C36.6817746,14.7300115 36.7330524,14.9288753 36.8205617,15.0862035 C37.3967746,16.1213335 37.9867098,17.1486152 38.5768858,18.175897 C39.0734135,19.0404171 39.1102469,19.8906895 38.5848302,20.7689744 C37.981895,21.7766957 37.4102561,22.8034945 36.8407839,23.8307762 C36.7442469,24.0048877 36.6834598,24.2228288 36.6808117,24.4214511 C36.6657654,25.5479836 36.6635987,26.6748784 36.676358,27.8015316 C36.6887561,28.8928072 36.2208765,29.6816214 35.2742839,30.213736 C34.2870061,30.7689124 33.3114043,31.3449775 32.3368858,31.9224914 C32.2068858,31.9995254 32.0847098,32.1217174 32.0079135,32.2521199 C31.411358,33.2639465 30.818895,34.2783087 30.2408765,35.3010022 C29.7046265,36.2495595 28.8954969,36.6960672 27.8203487,36.6936524 C26.6469783,36.6908753 25.4734876,36.6882189 24.3002376,36.6987236 C24.1396635,36.7000518 23.962358,36.7466586 23.8222469,36.8252623 C22.8166728,37.3890115 21.8120617,37.9548134 20.8204506,38.5428319 C19.9046728,39.0859341 19.010682,39.0902809 18.0938209,38.5481446 C17.1188209,37.9715966 16.1337098,37.4118319 15.1440246,36.8607607 C14.9704506,36.7641663 14.7534228,36.7029496 14.5554135,36.7002932 C13.432358,36.6852004 12.3090617,36.6896679 11.1857654,36.6940146 C10.0893117,36.6982406 9.26477464,36.2607886 8.72563575,35.2729898 C8.18204316,34.2774635 7.59920983,33.3034295 7.02275612,32.3262561 C6.94595983,32.1960951 6.82282094,32.0742654 6.69233946,31.9980765 C5.65354316,31.391705 4.60920983,30.7946307 3.56355242,30.1997298 C2.67293205,29.6929713 2.22635797,28.9320487 2.23093205,27.903801 C2.23345983,27.3303923 2.23141353,26.7569836 2.23141353,26.183575 C2.22419131,25.4695007 2.36141353,24.718962 2.18555242,24.0513737 Z" id="Fill-1" fill="#FA5D51"></path>
                <g id="Group-36" transform="translate(13.722222, 11.108359)" fill="#FFFFFF">
                    <path d="M9.11690667,0.0430703303 C8.65396223,0.718627606 8.20907334,1.3678629 7.75202704,2.03496816 C8.89494371,2.80204866 10.0124622,3.55210439 11.1458696,4.3127855 C11.5828141,3.63433039 12.0000178,2.98666476 12.4286567,2.3212499 C11.3187215,1.55767095 10.2251567,0.805441847 9.11690667,0.0430703303 Z" id="Path"></path>
                    <path d="M6.64618445,3.69953163 C4.61120297,6.72245423 2.58741593,9.75310439 0.532212225,12.7621415 C0.141008522,13.3349465 -0.155945182,13.8772035 0.0892492624,14.5812561 C0.0987585217,14.6087855 0.0934622254,14.6412654 0.0973140772,14.6710889 C0.178082596,15.2956926 0.259091855,15.9200549 0.343110374,16.5685657 C1.35374,16.3333583 2.32922148,16.1114326 3.30049,15.8721199 C3.39714741,15.8483335 3.48513815,15.7302468 3.5483326,15.6364295 C4.94535111,13.5637545 6.33839741,11.4881818 7.73216593,9.41321275 C8.56019371,8.18042637 9.38810111,6.94751925 10.2341844,5.68780717 C9.10222148,4.92760903 7.98289741,4.1758629 6.8470826,3.41312915 C6.77064741,3.52203937 6.70673074,3.60957807 6.64618445,3.69953163 Z" id="Path"></path>
                </g>
            </g>
        </g>
    </g>
</svg>