<svg id="Layer_1" data-name="Layer 1" xmlns="http://www.w3.org/2000/svg" viewBox="0 0 120.78 145.89"><defs><style>.cls-1{fill:#939598;}.cls-2{fill:#e6e7e8;}.cls-3{fill:#d1d3d4;}.cls-4{fill:#fff;}</style></defs><title>Untitled-11</title><g id="_Group_" data-name="&lt;Group&gt;"><g id="_Group_2" data-name="&lt;Group&gt;"><g id="_Group_3" data-name="&lt;Group&gt;"><g id="_Group_4" data-name="&lt;Group&gt;"><path id="_Compound_Path_" data-name="&lt;Compound Path&gt;" class="cls-1" d="M232.82,93.62c3.44-.71,6.89-1.3,10.33-1.9l5.18-.83c1.73-.26,3.45-.57,5.18-.8l10.37-1.46q5.19-.69,10.38-1.3l5.19-.6,5.19-.57c3.46-.36,6.93-.73,10.4-1s6.94-.65,10.41-.94l5.21-.43c1.74-.13,3.47-.27,5.21-.37l3.25-.18L320.29,86c1.28,3.06,2.32,6,3.32,9s1.86,6.06,2.66,9.12a185.11,185.11,0,0,1,3.83,18.58q1.48,9.36,2.07,18.82a112.14,112.14,0,0,1-.27,18.95,65.88,65.88,0,0,1-1.71,9.43,47.55,47.55,0,0,1-3.44,9.1,36.89,36.89,0,0,1-5.65,8.17,35.73,35.73,0,0,1-7.84,6.34,43,43,0,0,1-9.2,4.1,70.49,70.49,0,0,1-9.54,2.13c-3,.56-6.26,1-9.38,1.39s-6.3.71-9.48.93a134.75,134.75,0,0,1-19.32.09A67.52,67.52,0,0,1,236.67,198a37.51,37.51,0,0,1-9.35-5.24,30.74,30.74,0,0,1-7.49-8.25,31.9,31.9,0,0,1-4.07-10.24,42.84,42.84,0,0,1-.86-10.45c.07-1.7.18-3.4.4-5.05l.15-1.25.05-.42,0-.29.1-.57.2-1.15c.06-.38.13-.76.23-1.21l.56-2.55.64-2.43c.47-1.6,1-3.18,1.59-4.73A103.64,103.64,0,0,1,227.64,127c1.62-2.67,3.19-5.29,4.63-7.91a35.25,35.25,0,0,0,3.35-8,19.61,19.61,0,0,0,.66-4.17,19.18,19.18,0,0,0-.07-2.12l-.1-1.07-.2-1.06a25.76,25.76,0,0,0-3.43-8.27l-.4-.65Zm1.18,1,.84.94c.49.63,1,1.27,1.46,1.92a23.68,23.68,0,0,1,2.31,4.34,19.7,19.7,0,0,1,1.28,4.89,23.61,23.61,0,0,1,0,5.11,38.46,38.46,0,0,1-2.5,9.63c-1.13,3-2.51,5.9-3.79,8.73A117,117,0,0,0,227,147c-.4,1.4-.72,2.81-1.05,4.21l-.42,2.11-.31,2c-.06.32-.1.7-.14,1.09l-.12,1.16-.06.58,0,.29s0,.16,0,0v.2l-.06,1.07c-.1,1.43-.09,2.85-.06,4.25.11,5.61,1.33,10.87,4,15a25.38,25.38,0,0,0,11.9,9.28,60.64,60.64,0,0,0,16.58,4,129.4,129.4,0,0,0,17.93.74c3-.09,6.07-.19,9.11-.39,1.53-.07,3-.21,4.55-.32l2.27-.15,2.32-.2a86.66,86.66,0,0,0,8.81-1,36.57,36.57,0,0,0,8.16-2.57A28.63,28.63,0,0,0,323.22,177a35.58,35.58,0,0,0,3.69-8.08,48.13,48.13,0,0,0,2-8.83,73.28,73.28,0,0,0-.12-18.27,115.69,115.69,0,0,0-3.84-18c-1.71-5.89-3.79-11.67-5.95-17.39-1.09-2.86-2.23-5.69-3.38-8.52s-2.33-5.68-3.5-8.34l4.44,2.67c-1.73.16-3.47.28-5.21.42l-5.21.36c-3.47.23-7,.45-10.43.63s-7,.36-10.44.52l-5.22.21-5.22.19q-5.23.17-10.46.27L253.87,95c-1.74,0-3.49,0-5.24,0l-5.24,0C240.26,94.88,237.13,94.8,234,94.65Z" transform="translate(-214.86 -56.6)"/></g></g><path id="_Path_" data-name="&lt;Path&gt;" class="cls-2" d="M243.19,150.82c-11.8,23.41,19.63,56.72,78.71,31.8,21.39-26.68-1.55-84.81-5.23-93.65L249,100.8S255.69,126,243.19,150.82Z" transform="translate(-214.86 -56.6)"/><path id="_Path_2" data-name="&lt;Path&gt;" class="cls-3" d="M232.86,94.12c16,20.67-9.33,34-12.67,63.74s15.33,46.26,77.33,37.49c11.36-1.61,19.17-6.24,24.38-12.73-59.08,24.91-90.51-8.39-78.71-31.8,12.5-24.8,5.81-50,5.81-50L316.67,89c-.31-.74-.48-1.14-.48-1.14Z" transform="translate(-214.86 -56.6)"/><g id="_Group_5" data-name="&lt;Group&gt;"><path id="_Path_3" data-name="&lt;Path&gt;" class="cls-1" d="M232.86,94.12a10.6,10.6,0,0,1-1.19-.72,18.6,18.6,0,0,1-3-2.57,14.58,14.58,0,0,1-3.39-5.59,11.91,11.91,0,0,1-.54-4.36A13.23,13.23,0,0,1,226,76.07a22.49,22.49,0,0,1,6.86-7.94,47.88,47.88,0,0,1,9.48-5.5c1.7-.77,3.44-1.49,5.22-2.12l1.34-.48,1.42-.48c.89-.29,1.69-.55,2.73-.82a57.44,57.44,0,0,1,11.95-2,54,54,0,0,1,12.13.62,53.2,53.2,0,0,1,11.28,3.14,56.62,56.62,0,0,1,9.61,5,60.29,60.29,0,0,1,7.59,5.81,56.49,56.49,0,0,1,9.21,10.63c.94,1.4,1.57,2.58,2,3.36s.61,1.24.61,1.24-1.46-1.26-4.09-3.21c-1.32-1-2.92-2.14-4.79-3.38s-4-2.59-6.37-3.91a83.07,83.07,0,0,0-7.76-3.87,69.35,69.35,0,0,0-8.91-3.2,61.9,61.9,0,0,0-9.75-1.94,58.73,58.73,0,0,0-10.18-.28,50.18,50.18,0,0,0-5.11.51c-1.68.23-3.43.53-5,.89-.76.15-1.72.42-2.59.61l-1.2.31-1.25.34q-2.49.7-4.86,1.46a55.87,55.87,0,0,0-8.62,3.54,19.07,19.07,0,0,0-6,4.63A8.37,8.37,0,0,0,229,84.53a13.77,13.77,0,0,0,1.29,5.19A22.64,22.64,0,0,0,232.07,93C232.56,93.74,232.86,94.12,232.86,94.12Z" transform="translate(-214.86 -56.6)"/></g><g id="_Group_6" data-name="&lt;Group&gt;"><circle id="_Path_4" data-name="&lt;Path&gt;" class="cls-3" cx="32.64" cy="67.92" r="20.54"/><g id="_Group_7" data-name="&lt;Group&gt;"><circle id="_Path_5" data-name="&lt;Path&gt;" class="cls-4" cx="32.64" cy="64.79" r="20.58"/><circle id="_Path_6" data-name="&lt;Path&gt;" class="cls-1" cx="34.14" cy="66.46" r="14.75"/><circle id="_Path_7" data-name="&lt;Path&gt;" class="cls-4" cx="24.97" cy="56.62" r="5.58"/><g id="_Group_8" data-name="&lt;Group&gt;"><path id="_Path_8" data-name="&lt;Path&gt;" class="cls-1" d="M248.5,102.38a21.67,21.67,0,0,1,14.82,5.83,20.58,20.58,0,0,0-36.4,13.17s0,0,0,.07A21.75,21.75,0,0,1,248.5,102.38Z" transform="translate(-214.86 -56.6)"/></g></g></g><g id="_Group_9" data-name="&lt;Group&gt;"><path id="_Path_9" data-name="&lt;Path&gt;" class="cls-1" d="M225,103.51a3.6,3.6,0,0,1-.21-.89,6.66,6.66,0,0,1,.09-2.41,7.83,7.83,0,0,1,.51-1.58,7,7,0,0,1,.44-.82,4.36,4.36,0,0,1,.56-.81c.21-.26.44-.52.68-.78s.54-.46.83-.68a9.41,9.41,0,0,1,1.9-1.06,10.09,10.09,0,0,1,2.08-.5c.34,0,.68-.06,1-.07a3.67,3.67,0,0,1,1,0,12.33,12.33,0,0,1,1.78.32c.54.18,1,.37,1.48.56a5.78,5.78,0,0,1,1.16.64c.33.22.61.44.83.61a6.82,6.82,0,0,1,.68.59s-.34.09-.89.17c-.28,0-.61.1-1,.13a11.43,11.43,0,0,0-1.2.14c-.43.06-.88.12-1.35.15s-.93.18-1.41.23-.93.24-1.4.3a3.17,3.17,0,0,0-.67.2l-.66.21c-.21.08-.41.19-.61.28a3.12,3.12,0,0,0-.6.29,6.14,6.14,0,0,1-.58.32c-.18.13-.35.27-.54.39a12.1,12.1,0,0,0-1,.83c-.31.3-.64.59-.92.9s-.54.6-.79.86-.46.52-.61.73Z" transform="translate(-214.86 -56.6)"/></g><g id="_Group_10" data-name="&lt;Group&gt;"><g id="_Group_11" data-name="&lt;Group&gt;"><circle id="_Path_10" data-name="&lt;Path&gt;" class="cls-3" cx="95.54" cy="59.54" r="20.54"/><g id="_Group_12" data-name="&lt;Group&gt;"><circle id="_Path_11" data-name="&lt;Path&gt;" class="cls-4" cx="95.54" cy="56.41" r="20.58"/><circle id="_Path_12" data-name="&lt;Path&gt;" class="cls-1" cx="97.03" cy="58.08" r="14.75"/><circle id="_Path_13" data-name="&lt;Path&gt;" class="cls-4" cx="87.87" cy="48.24" r="5.58"/><g id="_Group_13" data-name="&lt;Group&gt;"><path id="_Path_14" data-name="&lt;Path&gt;" class="cls-1" d="M311.39,94a21.67,21.67,0,0,1,14.82,5.83A20.58,20.58,0,0,0,289.81,113s0,0,0,.07A21.75,21.75,0,0,1,311.39,94Z" transform="translate(-214.86 -56.6)"/></g></g></g><g id="_Group_14" data-name="&lt;Group&gt;"><path id="_Path_15" data-name="&lt;Path&gt;" class="cls-1" d="M317.66,86.91a4.73,4.73,0,0,1,.8-.78,9.63,9.63,0,0,1,1-.75,10,10,0,0,1,1.51-.73,10.24,10.24,0,0,1,2-.55,8.92,8.92,0,0,1,1.12-.12,5.41,5.41,0,0,1,1.2,0c.41,0,.83.07,1.25.14s.83.21,1.25.35A5.45,5.45,0,0,1,329,85c.39.21.8.39,1.17.63l1,.81a5,5,0,0,1,.94.88c.28.31.55.63.81,1,.13.16.26.31.38.48l.3.51a16.85,16.85,0,0,1,1,2c.23.66.42,1.29.59,1.87a7.47,7.47,0,0,1,.29,1.61c.05.48.07.91.08,1.26a10,10,0,0,1,0,1.1s-.3-.3-.74-.82c-.22-.26-.49-.58-.76-.94a12.93,12.93,0,0,0-.94-1.19c-.36-.42-.73-.87-1.09-1.34s-.85-.88-1.25-1.36a16.93,16.93,0,0,0-1.36-1.29,4.13,4.13,0,0,0-.73-.58l-.74-.55c-.25-.17-.53-.29-.79-.45a4.1,4.1,0,0,0-.8-.41c-.28-.11-.55-.23-.82-.36s-.57-.16-.85-.25a4.9,4.9,0,0,0-.85-.21c-.29-.05-.57-.14-.85-.17-.56-.07-1.12-.16-1.64-.17s-1,0-1.47-.06-.86,0-1.19,0l-.79,0Z" transform="translate(-214.86 -56.6)"/></g></g><g id="_Group_15" data-name="&lt;Group&gt;"><path id="_Path_16" data-name="&lt;Path&gt;" class="cls-1" d="M276.6,127.7a3.21,3.21,0,0,0,.31-.4,8.09,8.09,0,0,0,.48-1,4.77,4.77,0,0,1,1-1.5,3.33,3.33,0,0,1,1.15-.73,3.42,3.42,0,0,1,1.55-.18,3.86,3.86,0,0,1,2.35,1.2l.1.11a.71.71,0,0,1,.09.11l.16.22a3.61,3.61,0,0,1,.27.46,4.13,4.13,0,0,1,.31.87,4.59,4.59,0,0,1,.1,1.33,3.38,3.38,0,0,1-.07.52,4.75,4.75,0,0,1-.46-.25c-.28-.16-.64-.41-1-.66l-.59-.37a3.25,3.25,0,0,0-.29-.16l-.15-.08s-.09-.06-.07,0l-.07,0a3.58,3.58,0,0,0-1-.28c-.12,0-.28,0-.32,0a1.92,1.92,0,0,0-.47.1c-.39.14-.89.44-1.41.65a3.07,3.07,0,0,1-1.41.27A1.35,1.35,0,0,1,276.6,127.7Z" transform="translate(-214.86 -56.6)"/></g></g><g id="_Group_16" data-name="&lt;Group&gt;"><path id="_Path_17" data-name="&lt;Path&gt;" class="cls-1" d="M256.19,151.06s.84-.23,2.3-.55,3.57-.75,6.09-1.16c5-.87,11.8-1.64,18.58-2.1s13.57-.59,18.69-.39c2.56.07,4.69.21,6.19.34s2.36.24,2.36.24-.84.23-2.3.55-3.57.75-6.09,1.16c-5,.87-11.8,1.64-18.58,2.09s-13.57.58-18.69.39c-2.56-.07-4.69-.21-6.19-.34S256.19,151.06,256.19,151.06Z" transform="translate(-214.86 -56.6)"/></g></g><g id="_Group_17" data-name="&lt;Group&gt;"><path id="_Path_18" data-name="&lt;Path&gt;" class="cls-3" d="M232,78.83a31.1,31.1,0,0,1,.77,3.4c.19,1,.36,2.22.51,3.5s.27,2.65.35,4,.11,2.75.11,4,0,2.5-.11,3.54a30.81,30.81,0,0,1-.38,3.46,30.81,30.81,0,0,1-.77-3.4c-.19-1-.36-2.22-.51-3.5s-.27-2.65-.35-4-.11-2.75-.11-4,0-2.5.11-3.54A31.1,31.1,0,0,1,232,78.83Z" transform="translate(-214.86 -56.6)"/></g><g id="_Group_18" data-name="&lt;Group&gt;"><path id="_Path_19" data-name="&lt;Path&gt;" class="cls-3" d="M255.93,99.26s-1.08-1.17-2.47-3.05c-.7-.94-1.49-2.05-2.29-3.27s-1.64-2.53-2.43-3.87-1.55-2.7-2.22-4-1.28-2.52-1.77-3.59a39,39,0,0,1-1.49-3.64,39,39,0,0,1,2.47,3.05c.7.94,1.49,2.05,2.29,3.27s1.64,2.53,2.43,3.87,1.54,2.7,2.22,4,1.28,2.52,1.76,3.59C255.43,97.75,255.93,99.26,255.93,99.26Z" transform="translate(-214.86 -56.6)"/></g></svg>