<svg id="Layer_1" data-name="Layer 1" xmlns="http://www.w3.org/2000/svg" viewBox="0 0 158.02 159.55"><defs><style>.cls-1{fill:#939598;}.cls-2{fill:#e6e7e8;}.cls-3{fill:#d1d3d4;}.cls-4{fill:#fff;}</style></defs><title>icon-suggess</title><g id="_Group_" data-name="&lt;Group&gt;"><g id="_Group_2" data-name="&lt;Group&gt;"><path id="_Compound_Path_" data-name="&lt;Compound Path&gt;" class="cls-1" d="M332.25,138.51c.11-.27.19-.53.32-.81l.43-.83c.31-.5.61-1,1-1.48.66-1,1.37-1.87,2.09-2.77q2.17-2.69,4.42-5.3c3-3.49,6-7,8.76-10.57a92.61,92.61,0,0,0,7.63-11.19,27.81,27.81,0,0,0,2.5-5.91,9,9,0,0,0,.34-2.76,2.39,2.39,0,0,0-.06-.6l-.06-.27,0-.13v-.1c0,.1-.07-.28.06.22l-.33-.8c0-.05-.06-.16-.08-.17h-.06L359,95s0,0-.07-.07l-.18-.12a1.25,1.25,0,0,0-.37-.25c-.16-.07-.28-.16-.45-.23l-.56-.2a12,12,0,0,0-2.71-.45,38,38,0,0,0-6.28.24c-4.32.46-8.72,1.42-13.14,2.33s-8.87,2-13.47,2.83a67.49,67.49,0,0,1-7.22,1.06c-.67,0-1.32.1-2.08.09H312l-.65,0-.64-.06h-.08l-.51-.1-.1,0-.21-.05-.42-.1h-.05l-.12,0-.23-.08-.47-.18c-.31-.13-.62-.27-.91-.42l-.22-.11-.15-.09-.29-.19a12.36,12.36,0,0,1-1.1-.77l-.93-.79a32,32,0,0,1-4.94-6.29c-1.3-2.08-2.46-4.13-3.56-6.19-2.2-4.09-4.23-8.15-6.38-12a71.63,71.63,0,0,0-7.05-10.92,25.91,25.91,0,0,0-4.29-4.28l-.58-.44-.6-.38-.3-.19-.15-.1-.07,0,.1,0,0,0-.39-.19-.19-.1a.32.32,0,0,0-.09,0,2.37,2.37,0,0,0-.67-.19,2,2,0,0,0-.76,0c-1.11.18-2.62,1.49-3.81,3.1a31.72,31.72,0,0,0-3.19,5.53,82.43,82.43,0,0,0-4.53,12.64c-.6,2.18-1.15,4.38-1.67,6.6s-1,4.45-1.38,6.68c-.82,4.47-1.52,9-2,13.49l0,.42-.22.29a6.75,6.75,0,0,1-2.55,2,21.68,21.68,0,0,1-2.46,1c-1.63.57-3.25,1-4.87,1.44-3.23.87-6.46,1.6-9.67,2.33s-6.42,1.48-9.58,2.28-6.31,1.66-9.31,2.72a40.81,40.81,0,0,0-4.31,1.76,10.07,10.07,0,0,0-3.15,2.14,1.06,1.06,0,0,0-.2.34s0,0,0,0h0c0-.43,0-.07,0-.15v.31c.05,0,0-.29,0-.19l.06.12a3.7,3.7,0,0,0,.33.49,14.52,14.52,0,0,0,3,2.6,66.79,66.79,0,0,0,8.14,4.65c2.88,1.42,5.81,2.8,8.78,4.16,6,2.72,12,5.27,18.11,8.52.77.42,1.56.86,2.37,1.36a18.62,18.62,0,0,1,2.61,1.9l.38.35.41.44c.14.15.31.37.46.56a2.64,2.64,0,0,1,.29.43l0,.07.08.13a6.27,6.27,0,0,1,.42.77l.29.64a5.84,5.84,0,0,1,.22.58,16.57,16.57,0,0,1,.73,3.4,38.1,38.1,0,0,1,.13,5.67c-.07,1.78-.22,3.5-.38,5.2-.67,6.75-1.69,13.23-2.18,19.51-.12,1.56-.21,3.11-.22,4.61,0,.75,0,1.49,0,2.21v.27c0-.46,0-.08,0-.17v.23l.06.62.11,1.23a2.05,2.05,0,0,0,.08.48l.09.39.15.78c.21.53.31,1.14.55,1.62l.32.73c.11.24.27.42.39.64l.18.32c.07.09.15.18.22.27s.27.38.43.53a6.21,6.21,0,0,0,4.79,1.85,8.79,8.79,0,0,0,1.43-.19,4.34,4.34,0,0,0,.69-.19l.17-.05.09,0-.16.07.07,0,.57-.24c.16-.11.78-.42,1.37-.81s1.21-.79,1.83-1.23c2.49-1.77,5.07-3.74,7.61-5.76l7.7-6.13c2.6-2.05,5.21-4.11,7.95-6.15,1.38-1,2.78-2,4.37-3a21.83,21.83,0,0,1,2.83-1.54l.47-.2.66-.22.33-.1c.31-.06-.47.07.74-.15h.08l.31,0h.6c.3,0,.6,0,.91,0a7.17,7.17,0,0,1,1.23.2,21.09,21.09,0,0,1,3,1c.86.34,1.68.69,2.48,1,1.58.71,3.08,1.45,4.56,2.17,3,1.45,5.85,2.89,8.76,4.2a73.24,73.24,0,0,0,8.73,3.44,25.55,25.55,0,0,0,8.6,1.36,9.21,9.21,0,0,0,3.74-.9,5.37,5.37,0,0,0,.81-.46l.2-.12.05,0c-.05.06.19-.17-.11.12l.11-.1.46-.41c.15-.13.32-.28.44-.41a2.51,2.51,0,0,1,.18-.26l.22-.24c.07-.11.13-.25.2-.37a7.84,7.84,0,0,0,.83-3.77,20.48,20.48,0,0,0-.64-4.48,56.56,56.56,0,0,0-3.35-9c-1.39-2.95-2.91-5.86-4.5-8.74s-3.23-5.75-4.78-8.67c-.76-1.47-1.52-3-2.17-4.5a18,18,0,0,1-.82-2.41,5.73,5.73,0,0,1-.1-2.71Zm.95.32a8.3,8.3,0,0,0,1,4.42,45.12,45.12,0,0,0,2.22,4.34c1.63,2.84,3.39,5.62,5.15,8.41s3.52,5.59,5.18,8.49a59.25,59.25,0,0,1,4.44,9.11,27.61,27.61,0,0,1,1.33,5.18,12.07,12.07,0,0,1-.62,5.89c-.1.25-.19.5-.31.75s-.31.52-.47.78-.34.51-.51.77-.27.32-.41.48l-.41.47-.1.12-.23.21-.07.06-.3.25a10.55,10.55,0,0,1-1.23.93,14.49,14.49,0,0,1-5.57,2.19,30.17,30.17,0,0,1-11-.3,77.29,77.29,0,0,1-10-2.68c-3.22-1.09-6.37-2.3-9.43-3.51l-4.51-1.74c-.73-.27-1.44-.52-2.13-.74a11.46,11.46,0,0,0-1.7-.43c-.07,0-.3,0,0,0a1.15,1.15,0,0,0,.29,0l.14,0-.15,0-.31,0h-.08l.6-.11h0l.07,0-.09.06a14.93,14.93,0,0,0-1.45.92c-1.17.81-2.41,1.78-3.65,2.76-2.49,2-5,4.07-7.49,6.18s-5,4.24-7.62,6.35-5.18,4.23-8.06,6.27c-.72.51-1.46,1-2.27,1.53a25,25,0,0,1-2.91,1.63l-.57.25-.07,0-.31.12-.21.07-.42.14a14,14,0,0,1-1.68.47,19.43,19.43,0,0,1-3.46.46,17.18,17.18,0,0,1-7-1.24,16.45,16.45,0,0,1-6-4.11,18.31,18.31,0,0,1-3.57-5.88,28.33,28.33,0,0,1-.94-3.09l-.28-1.65-.13-.83a6.49,6.49,0,0,1-.09-.74l-.08-1.23,0-.62,0-.55v-.35c0-.93,0-1.84,0-2.73.07-1.79.22-3.53.39-5.25.7-6.84,2-13.35,2.81-19.69.21-1.58.39-3.13.5-4.64a29.72,29.72,0,0,0,.07-4.2,8.48,8.48,0,0,0-.22-1.44c0-.07,0,0,0,0l0,.07c.11.13-.07-.17-.15-.32l-.08-.13,0-.07.2.31a.5.5,0,0,0,.07.08v0l-.07-.07a10.76,10.76,0,0,0-1.36-1c-.58-.39-1.21-.79-1.87-1.18-2.65-1.58-5.55-3.08-8.45-4.58s-5.83-3-8.77-4.6-5.87-3.17-8.76-4.93a72.73,72.73,0,0,1-8.56-5.88,19.63,19.63,0,0,1-4-4.31,8.78,8.78,0,0,1-.84-1.68,6.57,6.57,0,0,1-.29-1.07,6.06,6.06,0,0,1-.1-1.41l0-.31,0-.3,0-.16.07-.31a5.65,5.65,0,0,1,.43-1.14,7,7,0,0,1,1.22-1.67,11.32,11.32,0,0,1,2.61-1.91,21.7,21.7,0,0,1,2.54-1.18,45.71,45.71,0,0,1,5-1.6c6.58-1.73,13.11-2.73,19.58-3.94,3.23-.6,6.46-1.2,9.62-1.92,1.57-.38,3.14-.79,4.62-1.29a18.7,18.7,0,0,0,2.12-.83,4.46,4.46,0,0,0,1.39-.93l-.26.71c.59-4.6,1.25-9.14,2-13.7s1.6-9.09,2.61-13.61c.5-2.27,1-4.53,1.68-6.78s1.3-4.51,2.13-6.75A38.46,38.46,0,0,1,266.87,56a18.13,18.13,0,0,1,2.45-3.19,10.1,10.1,0,0,1,3.92-2.56,7.86,7.86,0,0,1,2.62-.44,8.38,8.38,0,0,1,2.7.44l.32.11.2.08.4.15.05,0,.2.09.11.06.23.11.45.23.9.46.84.52A32.4,32.4,0,0,1,288.17,57,73.05,73.05,0,0,1,297,68.47c2.55,4,4.82,8,7.09,11.91,1.14,1.94,2.25,3.87,3.42,5.65a27.22,27.22,0,0,0,3.5,4.51l.38.32a3.09,3.09,0,0,0,.31.22l.07.05,0,0,0,0a.29.29,0,0,0-.14-.05h-.09l.42.11.21.05.1,0-.4-.08h0l.21,0,.21,0h.31c.38,0,.87,0,1.35,0,2-.13,4.2-.45,6.4-.76,4.43-.67,9-1.42,13.59-2a115.13,115.13,0,0,1,14.12-1.1,38.2,38.2,0,0,1,7.44.59,17.07,17.07,0,0,1,3.94,1.21l1,.52c.33.19.67.46,1,.69a5.32,5.32,0,0,1,.93.86l.43.48a4.63,4.63,0,0,1,.42.63c.13.23.26.46.38.69l.17.35a1.53,1.53,0,0,1,.07.23l.23.83c.15.54,0,.19.08.33v.07l0,.15,0,.29,0,.58a6,6,0,0,1,0,1.12,13.32,13.32,0,0,1-1,4,31.82,31.82,0,0,1-3.6,6.37,102.87,102.87,0,0,1-8.91,10.74l-9.38,10.08c-1.54,1.7-3.08,3.38-4.52,5.14-.71.89-1.42,1.77-2.06,2.7-.33.46-.62.93-.91,1.4l-.37.69c-.12.25-.21.53-.32.79Z" transform="translate(-206.24 -49.86)"/><g id="_Group_3" data-name="&lt;Group&gt;"><path id="_Path_" data-name="&lt;Path&gt;" class="cls-2" d="M272.31,60.81c-3.41,13.5-1.08,41.89-7.73,47.65s-37,4.64-36.73,11.39,30.65,7.87,34,18.84-12.37,52.58,3.94,48.64,22.71-20.56,43.75-10.12c7.74,3.84,13.41,7.17,18,9.51,7,2.29,13.92,3.41,18.72.76.46-.31.91-.61,1.35-.89.1-.08.22-.15.32-.23,11.39-9.7-17.29-40.49-15.18-47.66s31.63-32.05,29.1-43.44-41.75,1.69-50.61.42S293.5,61.09,278.32,53.5a6.68,6.68,0,0,0-1.48-.54C275.2,53.8,273.53,56,272.31,60.81Z" transform="translate(-206.24 -49.86)"/><path id="_Path_2" data-name="&lt;Path&gt;" class="cls-3" d="M256.81,103.68c-3.8,5.48-46.39,8-47.66,16.45S249.22,142.9,253,148.39s-2.53,27.41-2.11,40.91,10.12,16.45,16.87,13.92,29.94-24.46,35-25.73c2.94-.74,13.87,5.65,24.74,9.23-4.56-2.34-10.22-5.67-18-9.51-21-10.44-27.44,6.19-43.75,10.12s-.56-37.68-3.94-48.64-33.74-12.09-34-18.84,30.08-5.62,36.73-11.39,4.32-34.16,7.73-47.65c1.22-4.81,2.88-7,4.52-7.85C262.72,49.68,256.81,103.68,256.81,103.68Z" transform="translate(-206.24 -49.86)"/></g><circle id="_Path_3" data-name="&lt;Path&gt;" class="cls-3" cx="59.74" cy="72.4" r="20.54"/><g id="_Group_4" data-name="&lt;Group&gt;"><circle id="_Path_4" data-name="&lt;Path&gt;" class="cls-4" cx="59.7" cy="69.89" r="20.58"/><g id="_Group_5" data-name="&lt;Group&gt;"><path id="_Path_5" data-name="&lt;Path&gt;" class="cls-1" d="M245.44,117.87l1.88.84,2.13.92c.82.34,1.75.72,2.75,1.11a55.88,55.88,0,0,0,6.82,2.21,31.47,31.47,0,0,0,3.8.69,19.33,19.33,0,0,0,3.83.1,16.89,16.89,0,0,0,3.66-.64,17.08,17.08,0,0,0,3.32-1.46c.26-.15.52-.29.78-.45l.73-.51c.24-.17.49-.32.72-.51l.67-.56.67-.54.6-.59c.39-.39.82-.74,1.15-1.14.7-.78,1.39-1.49,1.92-2.19s1.09-1.27,1.45-1.8c.78-1,1.28-1.62,1.28-1.62s-.1.75-.39,2a17.34,17.34,0,0,1-.67,2.31,21.13,21.13,0,0,1-1.23,2.91,16.94,16.94,0,0,1-.92,1.59l-.53.82-.63.8a12.76,12.76,0,0,1-1.42,1.6l-.8.78c-.29.24-.6.47-.91.72a13.07,13.07,0,0,1-2,1.31,16.33,16.33,0,0,1-2.23,1.05,17.78,17.78,0,0,1-4.9,1,22.33,22.33,0,0,1-2.49,0,21.3,21.3,0,0,1-2.41-.31,23,23,0,0,1-4.44-1.27,29.25,29.25,0,0,1-9.26-5.94,23.33,23.33,0,0,1-1.67-1.72c-.45-.49-.76-.91-1-1.19S245.44,117.87,245.44,117.87Z" transform="translate(-206.24 -49.86)"/></g></g><g id="_Group_6" data-name="&lt;Group&gt;"><circle id="_Path_6" data-name="&lt;Path&gt;" class="cls-3" cx="109.26" cy="61.87" r="20.54"/><g id="_Group_7" data-name="&lt;Group&gt;"><circle id="_Path_7" data-name="&lt;Path&gt;" class="cls-4" cx="109.26" cy="58.74" r="20.58"/><g id="_Group_8" data-name="&lt;Group&gt;"><path id="_Path_8" data-name="&lt;Path&gt;" class="cls-1" d="M297.63,109.62l1.74.67c1.11.41,2.67,1,4.55,1.51,3.74,1.08,8.8,2.17,13.52,1.3a17.73,17.73,0,0,0,3.42-.93,14.88,14.88,0,0,0,1.6-.7,15.19,15.19,0,0,0,1.51-.82,21.42,21.42,0,0,0,2.72-1.92,12.48,12.48,0,0,0,1.2-1c.37-.35.77-.66,1.09-1,.67-.7,1.33-1.32,1.84-1.94s1-1.12,1.38-1.59c.74-.91,1.22-1.43,1.22-1.43s-.16.66-.52,1.81a15.58,15.58,0,0,1-.79,2,20.32,20.32,0,0,1-1.3,2.54,15.81,15.81,0,0,1-.91,1.37,12.59,12.59,0,0,1-1.09,1.4,18,18,0,0,1-2.82,2.7,13.51,13.51,0,0,1-1.73,1.18c-.31.18-.61.37-.93.54l-1,.46a16.91,16.91,0,0,1-2.06.78c-.71.19-1.43.39-2.16.51a20.21,20.21,0,0,1-4.37.25,21.65,21.65,0,0,1-4.11-.64,25.27,25.27,0,0,1-6.65-2.74,25.83,25.83,0,0,1-4-3A13.76,13.76,0,0,1,297.63,109.62Z" transform="translate(-206.24 -49.86)"/></g></g></g><g id="_Group_9" data-name="&lt;Group&gt;"><path id="_Path_9" data-name="&lt;Path&gt;" class="cls-1" d="M304.54,148.5l0-.48a6.38,6.38,0,0,1,0-1.4,7.77,7.77,0,0,1,.61-2.15,9.08,9.08,0,0,1,1.63-2.5,9,9,0,0,1,4-2.5,4.18,4.18,0,0,1,1.39-.16,2.75,2.75,0,0,1,1.93.91,2.57,2.57,0,0,1,.22.29l0,0,.1.18a2.83,2.83,0,0,1,.22.57,3.58,3.58,0,0,1,.12.92,6.59,6.59,0,0,1,0,.67c0,.16,0,.29,0,.48,0,.37-.09.7-.16,1a15.91,15.91,0,0,1-.5,2.06,17,17,0,0,1-.75,2l-.4.84a1.12,1.12,0,0,0-.8-1.59,1.08,1.08,0,0,0-.36,0l-.16,0,.12,0,.61-.12c.21,0,.43-.06.66-.08a5.46,5.46,0,0,1,2.91.54,5.05,5.05,0,0,1,1.25.9l.25.27a3.48,3.48,0,0,1,.26.33,4.57,4.57,0,0,1,.4.66,5.19,5.19,0,0,1,.41,3.46c0,.11,0,.22-.09.33l-.05.16,0,.08,0,.11v0l-.19.44c-.11.21-.22.43-.34.61a5.87,5.87,0,0,1-1.62,1.67,7,7,0,0,1-3.65,1.18,7.85,7.85,0,0,1-1.59-.09,10.48,10.48,0,0,1-1.37-.31,12.78,12.78,0,0,1-2-.8,17.48,17.48,0,0,1-1.63-.88l1.83.12c.57,0,1.27.06,2,.05a8.7,8.7,0,0,0,1.17-.1A6.86,6.86,0,0,0,312,156a5,5,0,0,0,2.14-1.25,3,3,0,0,0,.62-.94l.18-.59v0h0l0,.07v-.09s0-.08,0-.12a1.59,1.59,0,0,0,0-.24,1.7,1.7,0,0,0-.27-.82.86.86,0,0,0-.12-.14l0,0h0l-.08-.07a1.19,1.19,0,0,0-.32-.19,2,2,0,0,0-.89-.08l-.31,0-.35.08-.12,0-.4.07a2.92,2.92,0,0,1-.84,0,2.84,2.84,0,0,1-2-3.88l.46-.93c.24-.53.49-1.05.68-1.6s.38-1.09.52-1.63c.07-.27.14-.56.2-.81l.15-.69s0,0,0,0a1.21,1.21,0,0,0,.07.14l.05.08,0-.05a.47.47,0,0,0,.08.1c.2.21.4.2.35.16a.73.73,0,0,0-.35,0l-.67.12a8,8,0,0,0-2.47,1,9.26,9.26,0,0,0-3.57,4.34Z" transform="translate(-206.24 -49.86)"/></g></g><g id="_Group_10" data-name="&lt;Group&gt;"><path id="_Path_10" data-name="&lt;Path&gt;" class="cls-1" d="M242.3,100.06a8.9,8.9,0,0,1-.24-1.33,17.24,17.24,0,0,1,0-3.54,18.21,18.21,0,0,1,1.16-4.94,15.59,15.59,0,0,1,1.33-2.64,14,14,0,0,1,1.94-2.47,12.77,12.77,0,0,1,2.53-2,11.49,11.49,0,0,1,5.7-1.58,11.52,11.52,0,0,1,4.44.79,9.77,9.77,0,0,1,1.42.62c.76.41,1.16.68,1.16.68s-.5.06-1.33.1c-.41,0-.91.09-1.47.12s-1.17.17-1.82.23-1.33.24-2,.45a13.19,13.19,0,0,0-2.06.75c-.35.14-.66.35-1,.51s-.64.4-1,.61A13.39,13.39,0,0,0,249.29,88a28.74,28.74,0,0,0-5,7.83c-.59,1.23-1.07,2.3-1.41,3.06Z" transform="translate(-206.24 -49.86)"/></g><g id="_Group_11" data-name="&lt;Group&gt;"><path id="_Path_11" data-name="&lt;Path&gt;" class="cls-1" d="M310.65,80a6,6,0,0,1,.82-.83,10.41,10.41,0,0,1,1-.82,13.94,13.94,0,0,1,1.47-.89,13.61,13.61,0,0,1,1.88-.81,15.22,15.22,0,0,1,2.23-.61,11,11,0,0,1,1.22-.17,8.05,8.05,0,0,1,1.27-.09,13.81,13.81,0,0,1,2.61.19c.43.08.87.14,1.3.25s.84.27,1.25.41A11.61,11.61,0,0,1,328,77.7a5.11,5.11,0,0,1,1,.66c.31.25.61.48.89.72a8.89,8.89,0,0,1,1.44,1.5,8.59,8.59,0,0,1,1,1.41c.26.45.45.86.61,1.19a10.49,10.49,0,0,1,.44,1.06s-.41-.18-1-.52c-.31-.17-.69-.37-1.09-.63a3.5,3.5,0,0,0-.67-.35l-.74-.36a12.38,12.38,0,0,0-1.61-.77c-.29-.11-.58-.25-.88-.37L327,81l-.47-.14a18.8,18.8,0,0,0-1.93-.58c-.33-.08-.67-.15-1-.25s-.68-.1-1-.16a19.55,19.55,0,0,0-2.06-.26c-.69-.06-1.38-.07-2.05-.1s-1.34,0-2,0-1.25.05-1.82.09l-1.59.11c-.47.06-.91.07-1.26.12Z" transform="translate(-206.24 -49.86)"/></g></g></svg>