<svg xmlns="http://www.w3.org/2000/svg" width="44" height="44" viewBox="0 0 44 44">
    <g fill="none" fill-rule="evenodd">
        <circle cx="22" cy="22" r="22" fill="#26374D"/>
        <g fill="#FFF" fill-rule="nonzero">
            <path d="M30.204 25.407c-.524-.537-1.156-.824-1.826-.824-.664 0-1.301.282-1.847.82l-1.706 1.675c-.14-.074-.281-.144-.416-.213-.195-.096-.378-.186-.535-.282-1.598-1-3.051-2.303-4.444-3.99-.675-.84-1.129-1.548-1.458-2.266.442-.4.853-.815 1.253-1.214.15-.149.302-.303.453-.452 1.134-1.117 1.134-2.564 0-3.681l-1.474-1.453c-.168-.165-.34-.335-.502-.505a25.32 25.32 0 0 0-1.016-.99c-.524-.51-1.15-.782-1.809-.782s-1.296.271-1.836.782l-.01.01-1.837 1.826a3.868 3.868 0 0 0-1.172 2.474c-.13 1.553.335 3 .691 3.947.875 2.325 2.182 4.48 4.132 6.789a25.363 25.363 0 0 0 8.462 6.528c1.242.58 2.9 1.266 4.753 1.383a7.5 7.5 0 0 0 .34.011c1.247 0 2.295-.442 3.116-1.32.005-.01.016-.015.021-.026.281-.335.605-.638.945-.963.233-.218.47-.447.703-.686.534-.548.815-1.187.815-1.841 0-.66-.286-1.293-.832-1.825l-2.964-2.932zm1.933 5.603c-.006 0-.006.005 0 0-.21.223-.427.425-.659.649-.351.33-.707.676-1.042 1.064-.546.574-1.188.846-2.03.846-.082 0-.168 0-.25-.005-1.603-.102-3.094-.719-4.212-1.245a23.94 23.94 0 0 1-7.97-6.15c-1.842-2.187-3.073-4.21-3.889-6.38-.502-1.325-.686-2.357-.605-3.33a2.427 2.427 0 0 1 .746-1.58l1.841-1.815c.265-.244.546-.378.821-.378.34 0 .616.203.788.373l.017.016c.33.303.642.617.972.952.167.17.34.34.513.516l1.474 1.453c.573.564.573 1.085 0 1.649-.157.154-.308.309-.464.458a28 28 0 0 1-1.356 1.298c-.01.01-.021.016-.027.026-.464.458-.378.905-.28 1.208l.016.048c.383.915.923 1.777 1.744 2.804l.005.005c1.49 1.809 3.062 3.219 4.796 4.299.221.138.448.25.664.356.194.096.378.187.535.282.021.011.043.027.064.038.184.09.357.133.535.133.448 0 .73-.277.821-.367l1.847-1.82c.184-.18.475-.4.815-.4.335 0 .61.208.778.39l.01.01 2.976 2.931c.557.543.557 1.102.006 1.666zM23.221 16.407a6.754 6.754 0 0 1 3.663 1.88 6.673 6.673 0 0 1 1.9 3.625.71.71 0 0 0 .706.588c.042 0 .08-.005.122-.01a.71.71 0 0 0 .589-.82 8.074 8.074 0 0 0-2.298-4.386 8.216 8.216 0 0 0-4.432-2.275.72.72 0 0 0-.828.578.702.702 0 0 0 .578.82zM33.99 20.469a12.667 12.667 0 0 0-3.608-6.887 12.883 12.883 0 0 0-6.957-3.572.68.68 0 0 0-.784.551.68.68 0 0 0 .561.782 11.536 11.536 0 0 1 6.219 3.19 11.309 11.309 0 0 1 3.223 6.156c.055.33.344.561.673.561.04 0 .076-.005.116-.01a.664.664 0 0 0 .557-.771z"/>
        </g>
    </g>
</svg>
