<svg id="Layer_1" data-name="Layer 1" xmlns="http://www.w3.org/2000/svg" viewBox="0 0 114.98 142.76"><defs><style>.cls-1{fill:#939598;}.cls-2{fill:#e6e7e8;}.cls-3{fill:#d1d3d4;}.cls-4{fill:#fff;}</style></defs><title>icon-film</title><g id="_Group_" data-name="&lt;Group&gt;"><g id="_Group_2" data-name="&lt;Group&gt;"><g id="_Group_3" data-name="&lt;Group&gt;"><path id="_Compound_Path_" data-name="&lt;Compound Path&gt;" class="cls-1" d="M225.5,174.87s-.05,1.5.16,4.34a44.7,44.7,0,0,0,.72,5.17,32.37,32.37,0,0,0,2,6.69,20.63,20.63,0,0,0,2,3.54,12.6,12.6,0,0,0,2.94,3.06,9.85,9.85,0,0,0,8.6,1.37,7.33,7.33,0,0,0,1.2-.35l1.21-.42c.82-.38,1.56-.68,2.49-1.15l5.52-2.68,11.86-5.63,26.59-12.29c4.67-2.22,9.48-4.46,14.28-7a130.77,130.77,0,0,0,14.22-8.34,61.06,61.06,0,0,0,6.58-5.19,34.69,34.69,0,0,0,5.54-6.26,18.87,18.87,0,0,0,3.16-7.53,14.54,14.54,0,0,0,.07-4,15.36,15.36,0,0,0-1.12-3.92c-2.31-5.33-6-10.07-10-14.56-2-2.22-4.14-4.35-6.32-6.44s-4.47-4.06-6.78-6c-4.63-3.88-9.43-7.54-14.34-11q-3.65-2.63-7.38-5.09c-2.47-1.66-4.94-3.29-7.45-4.84a170,170,0,0,0-15.16-8.51A78.3,78.3,0,0,0,250.87,72a23.76,23.76,0,0,0-6.82-.78,6.94,6.94,0,0,0-2.3.48,2.63,2.63,0,0,0-1.07.81l-.1.13,0,0c0,.05.26-.44.1-.17l-.13.23-.5.9c-.15.29-.36.63-.47.87l-.28.68c-.38.78-.78,2-1.19,3.14-.75,2.33-1.43,4.73-2,7.19-1.15,4.88-2,9.82-2.74,14.6s-1.46,9.47-2.11,14-1.33,8.83-1.88,13-1.12,8.06-1.57,11.76c-.93,7.4-1.51,13.88-1.83,19.22s-.43,9.54-.46,12.41l0,4.41Zm-1,0-.06-4.4c0-2.87-.12-7.07-.28-12.43s-.45-11.87-.81-19.36-.69-16-.51-25.25a175.88,175.88,0,0,1,3-30.1q.79-4,2.06-8.26a44.23,44.23,0,0,1,1.69-4.46l.54-1.2c.18-.39.33-.62.5-.94l.5-.9.12-.23c-.11.19.22-.38.24-.39l.12-.18.51-.71a13.05,13.05,0,0,1,5.46-4.18,17.51,17.51,0,0,1,5.88-1.25,24.46,24.46,0,0,1,5.24.31A39.36,39.36,0,0,1,253.49,62a82.9,82.9,0,0,1,17.06,7.28A164.85,164.85,0,0,1,286.14,79a188.43,188.43,0,0,1,28,24.3q3.23,3.36,6.28,6.88t5.93,7.16a89.19,89.19,0,0,1,5.42,7.54c.85,1.3,1.65,2.63,2.41,4,.36.7.74,1.36,1.09,2.09l.52,1.08.45,1a20.63,20.63,0,0,1,1.35,4.72,18.64,18.64,0,0,1,0,4.9,19.48,19.48,0,0,1-1.19,4.68,26,26,0,0,1-2,4.27,58.89,58.89,0,0,1-11.81,13.75A124,124,0,0,1,308.84,176a153.55,153.55,0,0,1-14.16,8.41,201.28,201.28,0,0,1-27.49,11.83c-4.36,1.53-8.61,2.8-12.61,4L248.69,202c-.9.29-2,.56-3,.82-.52.11-1.05.19-1.57.28a10.43,10.43,0,0,1-1.56.18,19,19,0,0,1-3.11,0L237.9,203a12.54,12.54,0,0,1-1.47-.4,12.7,12.7,0,0,1-4.87-2.92,15,15,0,0,1-3-4,22.53,22.53,0,0,1-1.74-4,41.28,41.28,0,0,1-1.65-7.09c-.32-2.08-.45-3.86-.56-5.3C224.44,176.54,224.49,175,224.5,174.86Z" transform="translate(-222.79 -60.59)"/></g></g><path id="_Path_" data-name="&lt;Path&gt;" class="cls-2" d="M335,134c-5.84-14.11-26.59-34.16-47.74-48.84-25.91,6.31-38.85-7.93-44.82-19.05a9.26,9.26,0,0,0-5.22,2.31c-1.58,5.56-3.25,15.75-4,34.44-1.63,40.89-.54,77.39,22.41,74.39s75.58-13,80.54-38.44A16.28,16.28,0,0,0,335,134Z" transform="translate(-222.79 -60.59)"/><path id="_Path_2" data-name="&lt;Path&gt;" class="cls-1" d="M287.26,85.12c-17.34-12-34.93-20.46-44.82-19.05C248.41,77.19,261.35,91.44,287.26,85.12Z" transform="translate(-222.79 -60.59)"/><path id="_Path_3" data-name="&lt;Path&gt;" class="cls-3" d="M225,174.85s-1,34,22,25c21.73-8.5,91.63-33.86,89.18-61.09-5,25.48-57.6,35.45-80.54,38.44s-24-33.5-22.41-74.39c.74-18.69,2.41-28.88,4-34.44A7.71,7.71,0,0,0,236,69.85C224,88.85,225,174.85,225,174.85Z" transform="translate(-222.79 -60.59)"/><g id="_Group_4" data-name="&lt;Group&gt;"><circle id="_Path_4" data-name="&lt;Path&gt;" class="cls-3" cx="75.45" cy="49.4" r="20.54"/><g id="_Group_5" data-name="&lt;Group&gt;"><circle id="_Path_5" data-name="&lt;Path&gt;" class="cls-4" cx="75.45" cy="46.27" r="20.58"/><circle id="_Path_6" data-name="&lt;Path&gt;" class="cls-1" cx="76.95" cy="47.94" r="14.75"/><circle id="_Path_7" data-name="&lt;Path&gt;" class="cls-4" cx="67.78" cy="38.11" r="5.58"/><g id="_Group_6" data-name="&lt;Group&gt;"><path id="_Path_8" data-name="&lt;Path&gt;" class="cls-1" d="M299.24,87.86a21.67,21.67,0,0,1,14.82,5.83,20.58,20.58,0,0,0-36.4,13.17s0,0,0,.07A21.75,21.75,0,0,1,299.24,87.86Z" transform="translate(-222.79 -60.59)"/></g></g></g><circle id="_Path_9" data-name="&lt;Path&gt;" class="cls-3" cx="25.8" cy="58.48" r="20.54"/><g id="_Group_7" data-name="&lt;Group&gt;"><circle id="_Path_10" data-name="&lt;Path&gt;" class="cls-4" cx="25.75" cy="55.98" r="20.58"/><circle id="_Path_11" data-name="&lt;Path&gt;" class="cls-1" cx="27.25" cy="57.65" r="14.75"/><circle id="_Path_12" data-name="&lt;Path&gt;" class="cls-4" cx="18.08" cy="47.81" r="5.58"/><g id="_Group_8" data-name="&lt;Group&gt;"><path id="_Path_13" data-name="&lt;Path&gt;" class="cls-1" d="M249.54,97.57a21.67,21.67,0,0,1,14.82,5.83A20.58,20.58,0,0,0,228,116.57s0,0,0,.07A21.75,21.75,0,0,1,249.54,97.57Z" transform="translate(-222.79 -60.59)"/></g></g><g id="_Group_9" data-name="&lt;Group&gt;"><path id="_Path_14" data-name="&lt;Path&gt;" class="cls-1" d="M274.32,135.84a3.21,3.21,0,0,0,.31-.4,8.09,8.09,0,0,0,.48-1,4.77,4.77,0,0,1,1-1.5,3.32,3.32,0,0,1,1.15-.73,3.42,3.42,0,0,1,1.55-.18,3.86,3.86,0,0,1,2.35,1.2l.1.11a.71.71,0,0,1,.09.11l.16.22a3.62,3.62,0,0,1,.27.46,4.14,4.14,0,0,1,.31.87,4.59,4.59,0,0,1,.1,1.33,3.39,3.39,0,0,1-.07.52,4.75,4.75,0,0,1-.46-.25c-.28-.16-.64-.41-1-.66l-.59-.37a3.26,3.26,0,0,0-.29-.16l-.15-.08s-.09-.06-.07,0l-.07,0a3.59,3.59,0,0,0-1-.28c-.12,0-.28,0-.32,0a1.92,1.92,0,0,0-.47.1c-.39.14-.89.44-1.41.65a3.07,3.07,0,0,1-1.41.27A1.35,1.35,0,0,1,274.32,135.84Z" transform="translate(-222.79 -60.59)"/></g><g id="_Group_10" data-name="&lt;Group&gt;"><path id="_Path_15" data-name="&lt;Path&gt;" class="cls-1" d="M260.49,152.49s.08.56.16,1.46l.35,3.59.25,2.27a16.94,16.94,0,0,0,.37,2.24,5.66,5.66,0,0,0,.3.83l.09.16,0,0h0l0-.06v0l0,0,.08.15s.09.1.14.16c.25.29.51.35.41.3a3.16,3.16,0,0,0,1.4-.23c.27-.07.41-.13.55-.17a3.59,3.59,0,0,0,.49-.15c.36-.12.69-.28,1-.41a18.5,18.5,0,0,0,2-1,18.75,18.75,0,0,0,1.74-1.18c.52-.41,1-.82,1.44-1.22s.81-.76,1.11-1.09.56-.59.71-.78l.27-.29s0,.13.07.39a6.12,6.12,0,0,1,.08,1.11,8.51,8.51,0,0,1-.17,1.74,10.66,10.66,0,0,1-.69,2.2,12,12,0,0,1-1.42,2.39,12.77,12.77,0,0,1-2.23,2.25,11.93,11.93,0,0,1-1.41,1,8.82,8.82,0,0,1-.81.44c-.3.14-.6.28-.8.35l-.34.14-.08,0,0,0h0l-.12,0-.22.08a7.39,7.39,0,0,1-1,.26,6.9,6.9,0,0,1-2.53.06,6.33,6.33,0,0,1-4.23-3,7.7,7.7,0,0,1-.55-1.11l-.06-.18v0l0-.12,0-.13c-.05-.17-.1-.34-.14-.52a8.05,8.05,0,0,1-.21-1.93,12.47,12.47,0,0,1,.43-3.08,18.09,18.09,0,0,1,.82-2.47,14.87,14.87,0,0,1,1.93-3.37,9.66,9.66,0,0,1,.7-.84Z" transform="translate(-222.79 -60.59)"/></g><g id="_Group_11" data-name="&lt;Group&gt;"><path id="_Path_16" data-name="&lt;Path&gt;" class="cls-1" d="M255.64,151.84a3.19,3.19,0,0,1,.83-.9,5,5,0,0,1,4.8-.67,3.28,3.28,0,0,1,1,.64,6.34,6.34,0,0,1-1.08.51,9.84,9.84,0,0,1-2.18.55,10,10,0,0,1-2.25.07,7.91,7.91,0,0,1-.83-.11Z" transform="translate(-222.79 -60.59)"/></g></g></svg>