<?xml version="1.0" encoding="UTF-8"?>
<svg width="60px" height="60px" viewBox="0 0 60 60" version="1.1" xmlns="http://www.w3.org/2000/svg" xmlns:xlink="http://www.w3.org/1999/xlink">
    <!-- Generator: Sketch 46.2 (44496) - http://www.bohemiancoding.com/sketch -->
    <title>Group 14</title>
    <desc>Created with Sketch.</desc>
    <defs>
        <path d="M0.315066323,3.68087519 C0.316602975,3.29577544 0.359888956,2.90000032 0.449523875,2.49634922 C0.641813124,1.63065594 1.09770419,0.760326524 1.8957258,0.363304581 C2.81981785,-0.0969374171 3.84154019,0.193874834 4.87896829,0.485108552 C5.44904436,0.644844557 6.02378971,0.805002029 6.58962099,0.839983792 C7.9080366,0.534996947 9.20428492,0.0796778653 10.5522663,0.0729883602 L10.6262491,0.0729883602 C11.7841992,0.0821576027 13.0399711,0.482737787 13.7051722,1.47639901 C16.5950292,5.7922214 11.3985501,9.38438491 6.62824863,9.46699245 C6.61114296,9.4672873 6.59404168,9.46751033 6.57694524,9.46766177 L6.46820858,9.46766177 C3.29909044,9.43962485 0.328009905,6.96493047 0.315066323,3.72341186 L0.315066323,3.68087519 L0.315066323,3.68087519 Z M7.50479897,0.765384128 L6.89821765,0.845884331 C7.10196784,0.840405259 7.30486908,0.815538705 7.50479897,0.765384128 Z" id="path-1"></path>
        <path d="M0.39120038,0.497377538 C0.464803141,0.448199346 0.541805184,0.40334494 0.622287064,0.363304581 C1.54637911,-0.0969374171 2.56810146,0.193874834 3.60552955,0.485108552 C4.17560562,0.644844557 4.75035097,0.805002029 5.31618225,0.839983792 C6.64437886,0.532734327 7.95007804,0.0729137963 9.30883718,0.0729137963 L9.34194659,0.0729137963 C9.81584293,0.0756664579 10.306502,0.1439406 10.7666616,0.291582036 L10.7666616,4.84122463 L0.39120038,4.84122463 L0.39120038,0.497377538 L0.39120038,0.497377538 Z M6.23136023,0.765384128 L5.62477891,0.845884331 C5.82852911,0.840405259 6.03143034,0.815538705 6.23136023,0.765384128 Z" id="path-3"></path>
    </defs>
    <g id="Welcome" stroke="none" stroke-width="1" fill="none" fill-rule="evenodd">
        <g id="Home-w-Character" transform="translate(-41.000000, -674.000000)">
            <g id="Group-14" transform="translate(41.000000, 674.000000)">
                <g id="Group-31" fill="#FFA705">
                    <rect id="Rectangle-7" x="-4.54747351e-13" y="0" width="60" height="60" rx="30"></rect>
                </g>
                <g id="Group-11" transform="translate(30.560935, 30.003727) rotate(7.000000) translate(-30.560935, -30.003727) translate(11.060935, 11.003727)">
                    <g id="Group-22" transform="translate(0.000000, 4.034483)">
                        <path d="M17.6414987,14.3086371 C17.6414987,19.0893376 13.7384089,22.964727 8.92353706,22.964727 C4.10866519,22.964727 0.205150981,19.0893376 0.205150981,14.3086371 C0.205150981,9.52793658 4.10866519,5.65254723 8.92353706,5.65254723 C13.7384089,5.65254723 17.6414987,9.52793658 17.6414987,14.3086371" id="Fill-2" fill="#EF5959"></path>
                        <path d="M38.7381762,10.4130595 C38.7381762,15.19376 34.8350865,19.0691494 30.0202146,19.0691494 C25.2049183,19.0691494 21.3018285,15.19376 21.3018285,10.4130595 C21.3018285,5.63235896 25.2049183,1.75696961 30.0202146,1.75696961 C34.8350865,1.75696961 38.7381762,5.63235896 38.7381762,10.4130595" id="Fill-4" fill="#EF5959"></path>
                        <path d="M38.7572353,9.09382554 C38.7572353,13.8850627 34.845656,17.7688814 30.0201722,17.7688814 C25.1946883,17.7688814 21.2826845,13.8850627 21.2826845,9.09382554 C21.2826845,4.30258833 25.1946883,0.418769642 30.0201722,0.418769642 C34.845656,0.418769642 38.7572353,4.30258833 38.7572353,9.09382554" id="Fill-6" fill="#FFFFFF"></path>
                        <path d="M36.917838,9.79843412 C36.917838,13.232126 34.1145748,16.0154943 30.6563397,16.0154943 C27.1981046,16.0154943 24.394417,13.232126 24.394417,9.79843412 C24.394417,6.36474222 27.1981046,3.58137395 30.6563397,3.58137395 C34.1145748,3.58137395 36.917838,6.36474222 36.917838,9.79843412" id="Fill-8" fill="#801277"></path>
                        <path d="M29.1356841,5.65237864 C29.1356841,6.95218297 28.0744851,8.00627201 26.7649656,8.00627201 C25.4558706,8.00627201 24.3946716,6.95218297 24.3946716,5.65237864 C24.3946716,4.35257432 25.4558706,3.29848528 26.7649656,3.29848528 C28.0744851,3.29848528 29.1356841,4.35257432 29.1356841,5.65237864" id="Fill-10" fill="#FFFFFF"></path>
                        <path d="M30.4445244,1.08595195 C32.8750945,1.08595195 35.0849352,2.01992289 36.7331894,3.54436914 C35.130779,1.63512349 32.718886,0.418769642 30.0200448,0.418769642 C25.194561,0.418769642 21.2829816,4.30258833 21.2829816,9.09382554 C21.2829816,9.10394074 21.2842551,9.11363449 21.2842551,9.12332823 C21.8454171,4.59382205 25.7311031,1.08595195 30.4445244,1.08595195" id="Fill-12" fill="#801277"></path>
                        <path d="M17.6605578,13.1854275 C17.6605578,17.9766647 13.7489785,21.8604834 8.92349462,21.8604834 C4.09801076,21.8604834 0.186006952,17.9766647 0.186006952,13.1854275 C0.186006952,8.39419027 4.09801076,4.51037158 8.92349462,4.51037158 C13.7489785,4.51037158 17.6605578,8.39419027 17.6605578,13.1854275" id="Fill-14" fill="#FFFFFF"></path>
                        <path d="M15.821118,13.8900361 C15.821118,17.323728 13.0178548,20.1070962 9.55961971,20.1070962 C6.10138458,20.1070962 3.29769696,17.323728 3.29769696,13.8900361 C3.29769696,10.4563442 6.10138458,7.67297588 9.55961971,7.67297588 C13.0178548,7.67297588 15.821118,10.4563442 15.821118,13.8900361" id="Fill-16" fill="#801277"></path>
                        <path d="M8.03900652,9.74398058 C8.03900652,11.0437849 6.97780757,12.0978739 5.66828806,12.0978739 C4.35919304,12.0978739 3.29799409,11.0437849 3.29799409,9.74398058 C3.29799409,8.44417625 4.35919304,7.39008721 5.66828806,7.39008721 C6.97780757,7.39008721 8.03900652,8.44417625 8.03900652,9.74398058" id="Fill-18" fill="#FFFFFF"></path>
                        <path d="M9.3478044,5.17755389 C11.7783745,5.17755389 13.9882152,6.11152483 15.6364694,7.63597108 C14.034059,5.72672543 11.622166,4.51037158 8.92332482,4.51037158 C4.09784096,4.51037158 0.186261639,8.39419027 0.186261639,13.1854275 C0.186261639,13.1955427 0.187535078,13.2052364 0.187535078,13.2149302 C0.748697082,8.68542398 4.63438315,5.17755389 9.3478044,5.17755389" id="Fill-20" fill="#801277"></path>
                    </g>
                    <g id="Group-29" transform="translate(13.000000, 27.034483)">
                        <g id="Group-25">
                            <mask id="mask-2" fill="white">
                                <use xlink:href="#path-1"></use>
                            </mask>
                            <g id="Clip-24"></g>
                            <path d="M7.50484141,0.765131248 C5.65029013,1.23127378 3.605572,-0.488311702 1.89576825,0.3630517 C1.09774664,0.76049511 0.641855572,1.63082453 0.449566323,2.49651781 C-0.412127224,6.37696476 3.00960267,9.52953815 6.62829108,9.46673956 C11.3985926,9.38455349 16.5950716,5.79238999 13.7052146,1.4765676 C13.0379327,0.479798068 11.7763794,0.0794043886 10.6154278,0.0730823831 C9.03636374,0.0642315755 7.52946123,0.68252371 5.97671493,0.968278356" id="Fill-23" fill="#801277" mask="url(#mask-2)"></path>
                        </g>
                        <g id="Group-28" transform="translate(1.273439, 0.000000)">
                            <mask id="mask-4" fill="white">
                                <use xlink:href="#path-3"></use>
                            </mask>
                            <g id="Clip-27"></g>
                            <path d="M0.39120038,-0.340123894 C0.832234664,1.22604759 1.35646694,2.91402305 2.68805939,3.86021653 C3.52640655,4.45617092 4.57741799,4.6698547 5.6021117,4.78196493 C6.94261821,4.92905692 8.4686223,4.86120073 9.3956857,3.88845483 C9.78960275,3.4758386 10.0277358,2.94183987 10.2183271,2.40573381 C10.459007,1.72970069 10.636015,1.03132982 10.7459552,0.322843746 C10.7680282,0.180387889 10.7862808,0.027816824 10.7243068,-0.102416488 C10.647476,-0.262995427 10.4708925,-0.3477103 10.3057699,-0.416409426 C7.54240786,-1.57122909 4.37748811,-1.75203845 1.49909208,-0.919641061 C0.96679469,-0.765805595 0.332197719,-0.406715685 0.420913951,0.136555318" id="Fill-26" fill="#FFFFFF" mask="url(#mask-4)"></path>
                        </g>
                    </g>
                    <path d="M1.35557957,8.16176987 C1.35557957,8.16176987 1.32926183,8.0117276 1.3589754,7.74409604 C1.37807698,7.61344126 1.4005744,7.44864765 1.46127498,7.2716315 C1.51136357,7.08913627 1.59371261,6.89231117 1.69940802,6.68326352 C1.75841069,6.58168997 1.81996023,6.47590174 1.88363216,6.36674178 C1.95197337,6.26011062 2.03602033,6.16106587 2.11667145,6.05190591 C2.27754921,5.83147865 2.49106244,5.64476876 2.70584911,5.44120018 C2.93846392,5.26755577 3.17277664,5.06103692 3.44529253,4.9232172 C3.5790036,4.849039 3.71229019,4.7698032 3.85024605,4.69857527 C3.98947536,4.63240495 4.13379841,4.5793001 4.27599907,4.51903032 C4.41989765,4.46466107 4.56337175,4.40565569 4.70811928,4.35802991 C4.85414026,4.31546174 5.00185915,4.28174438 5.14703117,4.24465528 C5.29220319,4.20714472 5.43695072,4.17300589 5.58042482,4.14308173 C5.72474788,4.12538011 5.86737302,4.1076785 6.00787576,4.09039835 C6.28845676,4.06426739 6.55885025,4.02338509 6.81608488,4.0372935 C7.0733195,4.04235111 7.31527286,4.05330925 7.53727568,4.0680606 C7.7592785,4.075647 7.96217974,4.12411571 8.14088564,4.15614721 C8.31916707,4.18649283 8.47410211,4.2265322 8.60059703,4.25645636 C8.85401134,4.31841201 8.996212,4.36856659 8.996212,4.36856659 C8.996212,4.36856659 8.8527379,4.42883637 8.60653974,4.50807218 C8.48344066,4.54642568 8.33444833,4.59700172 8.16508098,4.63956989 C7.99571363,4.68846007 7.80427334,4.72976383 7.6013721,4.79804149 C7.3976219,4.85999715 7.17816596,4.9219528 6.94682459,4.98053672 C6.71336082,5.02858396 6.48074601,5.12383551 6.23412337,5.1891629 C6.11229773,5.22709493 5.98707626,5.25870496 5.86100582,5.29242232 C5.73918018,5.33794076 5.6160811,5.3821948 5.49128411,5.42265563 C5.36648711,5.46353793 5.24211459,5.50821344 5.11434624,5.54488107 C4.9903982,5.58913511 4.87154392,5.64434729 4.7492938,5.69239453 C4.62746816,5.74044177 4.50139773,5.78174554 4.38296793,5.83442892 C4.26835844,5.89385577 4.14992864,5.94443182 4.03447019,5.99922253 C3.79379027,6.09573848 3.59258695,6.23692994 3.37058413,6.34356109 C3.17405008,6.47843054 2.95798998,6.58801197 2.78650023,6.72793903 C2.60057817,6.856065 2.43757801,6.99177739 2.28561432,7.12285363 C2.14001783,7.25688015 1.99527029,7.38121292 1.8849056,7.5055457 C1.77072059,7.6281926 1.67224133,7.74030283 1.59286365,7.83766172 C1.43920204,8.03237949 1.35557957,8.16176987 1.35557957,8.16176987 Z" id="Fill-30" fill="#801277"></path>
                    <path d="M24.2068966,1.80573577 C24.2068966,1.80573577 24.2892456,1.69488994 24.4611598,1.53346806 C24.6301027,1.36783152 24.8903087,1.15836241 25.226072,0.936670748 C25.5660802,0.7263587 25.9820702,0.503824108 26.4613076,0.340716367 C26.6981672,0.251365356 26.952855,0.18266623 27.2160323,0.127454049 C27.4749648,0.0566475882 27.7542724,0.0452679784 28.0267883,0.00775741265 C28.3039735,-0.000671927969 28.583281,-0.00741540046 28.8574948,0.0166082203 C28.9954507,0.0326239675 29.1317086,0.0520114509 29.2654197,0.0743492035 C29.3995552,0.0928937529 29.5311439,0.115231505 29.6580633,0.161171412 C29.9123266,0.24377895 30.1589492,0.302784334 30.3724624,0.428381509 C30.5855512,0.549342547 30.7952441,0.632371552 30.9544239,0.778199145 C31.1195465,0.910118326 31.2608982,1.0382443 31.3818749,1.15035453 C31.4960599,1.27342291 31.57756,1.39944155 31.6480236,1.4946931 C31.785555,1.6889894 31.847529,1.80573577 31.847529,1.80573577 C31.847529,1.80573577 31.7078752,1.76864667 31.4930885,1.69362554 C31.3895155,1.65611497 31.2634451,1.61017506 31.119122,1.55791315 C30.9680073,1.52335286 30.8020358,1.48626376 30.6318195,1.43737358 C30.4679703,1.37583939 30.2633712,1.37626086 30.0732043,1.33284976 C29.8843109,1.28311665 29.6665529,1.29323186 29.4581334,1.26499357 C29.249714,1.2325406 29.0209195,1.26162183 28.8006146,1.24181288 C28.5756404,1.24855635 28.345148,1.25698569 28.1155045,1.26878677 C27.191837,1.33664296 26.2405782,1.4997507 25.4934942,1.6160756 C25.112736,1.67465952 24.7952252,1.72354969 24.5727979,1.75768852 C24.3448524,1.78972002 24.2068966,1.80573577 24.2068966,1.80573577" id="Fill-32" fill="#801277"></path>
                </g>
            </g>
        </g>
    </g>
</svg>