<?xml version="1.0" encoding="UTF-8"?>
<svg width="54px" height="55px" viewBox="0 0 54 55" version="1.1" xmlns="http://www.w3.org/2000/svg" xmlns:xlink="http://www.w3.org/1999/xlink">
    <!-- Generator: Sketch 46.2 (44496) - http://www.bohemiancoding.com/sketch -->
    <title>Group 2</title>
    <desc>Created with Sketch.</desc>
    <defs>
        <polygon id="path-1" points="3.37764427 5.86428695 0.134560446 5.86428695 0.134560446 0.148509356 3.37764427 0.148509356 3.37764427 5.86428695"></polygon>
        <polygon id="path-3" points="3.44221644 0.0923891753 3.44221644 7.93943483 0.14892253 7.93943483 0.14892253 0.0923891753 3.44221644 0.0923891753"></polygon>
        <polygon id="path-5" points="0.20644171 0.0391840992 2.61647978 0.0391840992 2.61647978 4.78365008 0.20644171 4.78365008 0.20644171 0.0391840992"></polygon>
    </defs>
    <g id="Welcome" stroke="none" stroke-width="1" fill="none" fill-rule="evenodd">
        <g id="Homepage-Kid" transform="translate(-341.000000, -29.000000)">
            <g id="Group-17" transform="translate(232.000000, 27.000000)">
                <g id="Group-2" transform="translate(109.000000, 0.000000)">
                    <ellipse id="Oval-4" fill="#FFA705" cx="26.6491228" cy="29.3137074" rx="26.6491228" ry="26.7284524"></ellipse>
                    <g id="Page-1" transform="translate(26.448853, 28.074607) rotate(13.000000) translate(-26.448853, -28.074607) translate(7.448853, 4.074607)">
                        <path d="M31.4053677,36.9180854 C33.170281,35.3907052 34.5947036,33.5303934 35.4417845,31.3968592 C37.042809,27.3638291 36.4358955,22.740372 34.5991255,18.8017036 C32.4926162,14.2846033 28.6062695,10.3150142 23.5834802,8.89399083 C20.0608394,7.89732861 16.4008416,8.31582545 13.2424595,10.1510807 C10.3529876,11.8298661 8.13316563,14.4346758 6.5158352,17.2897838 C4.79486516,20.3280176 3.69517996,23.7349018 3.66256804,27.1969635 C3.61420289,32.3591354 6.09961858,37.5338355 10.9527154,40.0064321 C11.3360437,40.2018195 11.7293214,40.3790809 12.1303376,40.5387494 C16.5227218,42.2871066 21.6314629,41.9525757 26.013345,40.1794286 C27.970337,39.3877499 29.8242421,38.2863301 31.4053677,36.9180854" id="Fill-1" fill="#FFFFFF"></path>
                        <path d="M18.476646,15.1585154 C18.9276855,19.3618763 19.0819013,23.5790983 18.9390168,27.8027177 C18.9279619,28.132184 19.2662415,28.5104305 19.6299474,28.469114 C21.3857404,28.268662 22.8477496,27.3644955 24.3401598,26.5037781 C26.1653221,25.4516718 27.9349337,24.3169322 29.6600493,23.1184852 C30.3750243,22.6218867 29.6860283,21.4650229 28.9624857,21.9677522 C27.5137424,22.9742771 26.0343217,23.9373529 24.5145507,24.842319 C23.0528178,25.7126325 21.3774492,26.9369357 19.6299474,27.1363215 C19.8604419,27.3583647 20.09066,27.5804079 20.3208781,27.8027177 C20.4637625,23.5790983 20.3095468,19.3618763 19.8585073,15.1585154 C19.7678572,14.3137915 18.3851668,14.3047285 18.476646,15.1585154" id="Fill-3" fill="#FFD300"></path>
                        <g id="Group-7" transform="translate(-0.000000, 15.421209)" fill="#FFD300">
                            <path d="M1.41770676,7.26409224 C1.02028345,6.78988468 0.53939573,6.21891637 0.469197177,6.09390044 C0.0499404665,5.34753665 -0.0688996032,4.58651213 0.0358454815,3.7369902 C0.21825117,2.25412528 1.16565526,0.657972996 2.77054895,0.303450194 C3.68119553,0.102198528 4.66038243,0.344233644 5.37673931,0.916801297 C5.78466476,1.24333546 4.29363644,3.55919568 4.07253864,3.95316914 C3.32356983,5.28596163 2.47759435,6.48654111 1.96243647,7.93928492 C1.96824029,7.92275829 1.71674154,7.62074751 1.41770676,7.26409224" id="Fill-5"></path>
                        </g>
                        <path d="M32.6663991,10.0118306 C32.8236549,9.066081 32.722779,8.05075968 32.1882751,7.24548646 C31.5139268,6.23016514 30.2180173,5.69304977 28.9679855,5.71544068 C27.1168442,5.7487605 25.3812264,6.87683606 24.2312415,8.13499217 C27.0098881,9.18310018 29.5505783,10.8072411 31.6413344,12.8589419 C32.057551,11.9627722 32.4773604,11.0554071 32.6531332,10.0880663 C32.6578315,10.0627432 32.6622535,10.0374202 32.6663991,10.0118306" id="Fill-8" fill="#FFD300"></path>
                        <g id="Group-12" transform="translate(17.411452, 41.543942)">
                            <mask id="mask-2" fill="white">
                                <use xlink:href="#path-1"></use>
                            </mask>
                            <g id="Clip-11"></g>
                            <path d="M0.935713544,0.65120241 C0.0944363995,1.43968245 -0.0727688148,3.71076085 0.379928939,5.2024222 C0.431610551,5.37275308 0.499598125,5.54388364 0.623136523,5.67556353 C0.746674921,5.80724343 0.936266288,5.89307527 1.11618463,5.85549052 C1.27150583,5.82297038 1.39255688,5.70808367 1.49923657,5.59452975 C2.82001958,4.19269861 3.8149597,1.42315582 3.18234361,0.428626064 C3.18234361,0.428626064 1.98399351,-0.330799096 0.935713544,0.65120241" id="Fill-10" fill="#FFD300" mask="url(#mask-2)"></path>
                        </g>
                        <g id="Group-15" transform="translate(33.717415, 33.014070)">
                            <mask id="mask-4" fill="white">
                                <use xlink:href="#path-3"></use>
                            </mask>
                            <g id="Clip-14"></g>
                            <path d="M2.95994685,7.41075273 C2.89859221,7.60134206 2.80352016,7.77727066 2.62802377,7.87269861 C2.18693365,8.1123347 1.68918722,7.66105116 1.42995005,7.24148808 C0.117734581,5.11861621 -0.221374176,2.45036565 0.575407035,0.0923891753 C2.11314226,0.325627861 3.1089115,1.74558498 3.35819927,3.18153561 C3.58648275,4.49513588 3.30734678,5.83592513 3.02903992,7.14046241 C3.00997023,7.22922639 2.98868957,7.32172219 2.95994685,7.41075273" id="Fill-13" fill="#FFD300" mask="url(#mask-4)"></path>
                        </g>
                        <path d="M11.127659,34.2199003 C11.6801272,33.8643113 12.2328717,33.5087222 12.7853398,33.1528666 C13.0954295,32.9534809 13.2297464,32.5651051 13.0332457,32.2412366 C12.8533274,31.9442904 12.3998005,31.801415 12.0880526,32.0021336 C11.5353081,32.3577226 10.98284,32.7133117 10.4300954,33.0691673 C10.1202821,33.268553 9.98596523,33.6571953 10.1824659,33.9807973 C10.3623842,34.2777435 10.8159111,34.4206188 11.127659,34.2199003" id="Fill-16" fill="#FFD300"></path>
                        <path d="M26.3214448,35.4272237 C26.4391794,36.0205829 26.556914,36.6139421 26.6743722,37.2070348 C26.7445708,37.5607579 27.1851081,37.7625427 27.5244933,37.6724459 C27.9083743,37.5708871 28.0772378,37.2075679 28.0070392,36.8527785 C27.8893046,36.2594193 27.7715701,35.6663267 27.6538355,35.0729675 C27.5839133,34.7192443 27.1430995,34.5174595 26.8039908,34.6075563 C26.4201097,34.7091151 26.2509699,35.0724343 26.3214448,35.4272237" id="Fill-18" fill="#FFD300"></path>
                        <path d="M32.2088924,20.3076792 C32.4087096,19.9819447 32.6944785,19.7814927 33.0673047,19.6865979 C33.4279705,19.5943686 33.6479628,19.2110575 33.5498506,18.8666639 C33.4498039,18.5156064 33.0617772,18.3090236 32.6997296,18.4012528 C31.9905584,18.5819795 31.3886196,19.0268656 31.0157934,19.6348855 C30.5619902,20.3748519 31.7561947,21.0463128 32.2088924,20.3076792" id="Fill-20" fill="#FFD300"></path>
                        <path d="M14.1291723,13.2346561 C14.1686935,13.2551811 14.2071092,13.2765058 14.2458013,13.2986301 C14.2820061,13.3196882 14.3187636,13.357273 14.2662529,13.3114249 C14.2994176,13.3404798 14.3303713,13.3714006 14.3621541,13.4017882 C14.4434075,13.4788237 14.3638123,13.391659 14.3989116,13.4452373 C14.4226796,13.4820224 14.4447894,13.519074 14.4671755,13.5566587 C14.5210681,13.6470221 14.442302,13.4769577 14.4782304,13.5750513 C14.4931545,13.6158347 14.506144,13.6568847 14.5166462,13.699001 C14.5235555,13.7256568 14.5376504,13.8624013 14.5274247,13.7453821 C14.5575493,14.0919082 14.8234194,14.4288381 15.2183553,14.4117784 C15.5665844,14.3965846 15.9416215,14.1172313 15.9092859,13.7453821 C15.8484841,13.049931 15.4767634,12.4195202 14.8267358,12.083923 C14.4978528,11.9141253 14.0744505,12.004222 13.8812663,12.323026 C13.6980315,12.6253033 13.7991838,13.0643252 14.1291723,13.2346561" id="Fill-22" fill="#FFD300"></path>
                        <path d="M5.17974117,7.62882424 C5.89305796,7.85406617 6.47841439,8.26829807 6.95543291,8.82300631 C7.19366579,9.10022714 7.68588478,9.06077649 7.93240883,8.82300631 C8.21679588,8.54871761 8.17147083,8.15847597 7.93240883,7.88072202 C7.30559655,7.15115141 6.47758528,6.63749318 5.54703989,6.34374572 C4.69995893,6.07612099 4.33708216,7.36279886 5.17974117,7.62882424" id="Fill-24" fill="#FFD300"></path>
                        <g id="Group-28" transform="translate(11.607635, 0.227374)">
                            <mask id="mask-6" fill="white">
                                <use xlink:href="#path-5"></use>
                            </mask>
                            <g id="Clip-27"></g>
                            <path d="M0.236187729,0.862876513 L1.25434312,4.31427594 C1.49727433,5.13767514 2.83104683,4.78768383 2.58673376,3.95975314 C2.24734863,2.80955322 1.9079635,1.65908675 1.56857837,0.508620269 C1.32564716,-0.315045488 -0.0081253443,0.034945819 0.236187729,0.862876513" id="Fill-26" fill="#FFD300" mask="url(#mask-6)"></path>
                        </g>
                        <path d="M22.6175868,2.31993857 C22.276267,3.26222286 21.9352237,4.20424059 21.593904,5.14652488 C21.3001202,5.95766239 22.6347219,6.30658746 22.926571,5.50078113 C23.2676143,4.55849684 23.6089341,3.61647911 23.9499774,2.67419482 C24.2440375,1.86279075 22.9094359,1.51413223 22.6175868,2.31993857" id="Fill-29" fill="#FFD300"></path>
                    </g>
                </g>
            </g>
        </g>
    </g>
</svg>