<svg id="Layer_1" data-name="Layer 1" xmlns="http://www.w3.org/2000/svg" xmlns:xlink="http://www.w3.org/1999/xlink" viewBox="0 0 158.02 159.55"><defs><style>.cls-1{fill:none;}.cls-2{fill:#801277;}.cls-3{fill:#ffce00;}.cls-4{fill:#eabf0a;}.cls-5{fill:#fff;}.cls-6{clip-path:url(#clip-path);}</style><clipPath id="clip-path" transform="translate(-205.94 -52.16)"><path id="_Clipping_Path_" data-name="&lt;Clipping Path&gt;" class="cls-1" d="M294.76,144.67c-3.89,2.28-9.65-.3-13,2.76a7.21,7.21,0,0,0-1.87,5.81c.61,9.41,10.43,14.35,18.58,11.84,10.74-3.31,20.13-14.9,10.75-22.84-2.17-1.83-5.29-1.92-7.92-1.18-3.58,1-6.58,3.41-9.91,5.08"/></clipPath></defs><title>icon-suggess-n</title><g id="_Group_" data-name="&lt;Group&gt;"><g id="_Group_2" data-name="&lt;Group&gt;"><g id="_Group_3" data-name="&lt;Group&gt;"><path id="_Compound_Path_" data-name="&lt;Compound Path&gt;" class="cls-2" d="M332,140.81c.11-.27.19-.53.32-.81l.43-.83c.31-.5.61-1,1-1.48.66-1,1.37-1.87,2.09-2.77q2.17-2.69,4.42-5.3c3-3.49,6-7,8.76-10.57a92.6,92.6,0,0,0,7.63-11.19A27.82,27.82,0,0,0,359,102a9,9,0,0,0,.34-2.76,2.39,2.39,0,0,0-.06-.6l-.06-.27,0-.13v-.1c0,.1-.07-.28.06.22l-.33-.8c0-.05-.06-.16-.08-.17h-.06l-.08,0s0,0-.07-.07l-.18-.12a1.25,1.25,0,0,0-.37-.25c-.16-.07-.28-.16-.45-.23l-.56-.2a12,12,0,0,0-2.71-.45,38,38,0,0,0-6.28.24c-4.32.46-8.72,1.42-13.14,2.33s-8.87,2-13.47,2.83a67.49,67.49,0,0,1-7.22,1.06c-.67,0-1.32.1-2.08.09h-.55l-.64,0-.64-.06h-.08l-.51-.1-.1,0-.21-.05-.42-.1H309l-.12,0-.23-.08-.47-.18c-.31-.13-.62-.27-.91-.42l-.22-.11-.15-.09-.29-.19a12.36,12.36,0,0,1-1.1-.77l-.93-.79a32,32,0,0,1-4.94-6.29c-1.3-2.08-2.46-4.13-3.56-6.19-2.2-4.09-4.23-8.15-6.38-12A71.62,71.62,0,0,0,282.64,64a25.9,25.9,0,0,0-4.29-4.28l-.58-.44-.6-.38-.3-.19-.15-.1-.07,0,.1,0,0,0-.39-.19-.19-.1a.32.32,0,0,0-.09,0,2.37,2.37,0,0,0-.67-.19,2,2,0,0,0-.76,0c-1.11.18-2.62,1.49-3.81,3.1a31.72,31.72,0,0,0-3.19,5.53,82.44,82.44,0,0,0-4.53,12.64c-.6,2.18-1.15,4.38-1.67,6.6s-1,4.45-1.38,6.68c-.82,4.47-1.52,9-2,13.49l0,.42-.22.29a6.75,6.75,0,0,1-2.55,2,21.67,21.67,0,0,1-2.46,1c-1.63.57-3.25,1-4.87,1.44-3.23.87-6.46,1.6-9.67,2.33s-6.42,1.48-9.58,2.28-6.31,1.66-9.31,2.72a40.8,40.8,0,0,0-4.31,1.76,10.07,10.07,0,0,0-3.15,2.14,1.06,1.06,0,0,0-.2.34s0,0,0,0h0c0-.43,0-.07,0-.15V123c.05,0,0-.29,0-.19l.06.12a3.7,3.7,0,0,0,.33.49,14.53,14.53,0,0,0,3,2.6,66.77,66.77,0,0,0,8.14,4.65c2.88,1.42,5.81,2.8,8.78,4.16,6,2.72,12,5.27,18.11,8.52.77.42,1.56.86,2.37,1.36a18.63,18.63,0,0,1,2.61,1.9l.38.35.41.44c.14.15.31.37.46.56a2.63,2.63,0,0,1,.29.43l0,.07.08.13a6.25,6.25,0,0,1,.42.77l.29.64a5.85,5.85,0,0,1,.22.58,16.56,16.56,0,0,1,.73,3.4,38.1,38.1,0,0,1,.13,5.67c-.07,1.78-.22,3.5-.38,5.2-.67,6.75-1.69,13.23-2.18,19.51-.12,1.56-.21,3.11-.22,4.61,0,.75,0,1.49,0,2.21v.27c0-.46,0-.08,0-.17v.23l.06.62.11,1.23a2.05,2.05,0,0,0,.08.48l.09.39.15.78c.21.53.31,1.14.55,1.62l.33.73c.11.24.27.42.39.64l.18.32c.07.09.15.18.22.27s.27.38.43.53a6.21,6.21,0,0,0,4.79,1.85,8.78,8.78,0,0,0,1.43-.19,4.34,4.34,0,0,0,.69-.19l.17-.05.09,0-.16.07.07,0,.57-.24c.16-.11.78-.42,1.37-.81s1.21-.79,1.83-1.23c2.49-1.77,5.07-3.74,7.61-5.76l7.7-6.13c2.6-2.05,5.21-4.11,7.95-6.15,1.38-1,2.78-2,4.37-3a21.84,21.84,0,0,1,2.83-1.54l.47-.2.66-.22.33-.1c.31-.06-.47.07.74-.15H302l.31,0h.6c.3,0,.6,0,.91,0a7.16,7.16,0,0,1,1.23.2,21.08,21.08,0,0,1,3,1c.86.34,1.68.69,2.48,1,1.58.71,3.08,1.45,4.56,2.17,3,1.45,5.85,2.89,8.76,4.2a73.24,73.24,0,0,0,8.73,3.44,25.55,25.55,0,0,0,8.6,1.36,9.21,9.21,0,0,0,3.74-.9,5.37,5.37,0,0,0,.81-.46l.2-.12.05,0c-.05.06.19-.17-.11.12l.11-.1.46-.41c.15-.13.32-.28.44-.41a2.52,2.52,0,0,1,.18-.26l.22-.24c.07-.11.13-.25.2-.37a7.84,7.84,0,0,0,.83-3.77,20.48,20.48,0,0,0-.64-4.48,56.56,56.56,0,0,0-3.35-9c-1.39-2.95-2.91-5.86-4.5-8.74s-3.23-5.75-4.78-8.67c-.76-1.47-1.52-3-2.17-4.5a18,18,0,0,1-.82-2.41,5.73,5.73,0,0,1-.1-2.71Zm.95.32a8.3,8.3,0,0,0,1,4.42,45.15,45.15,0,0,0,2.22,4.34c1.63,2.84,3.39,5.62,5.15,8.41s3.52,5.59,5.18,8.49a59.24,59.24,0,0,1,4.44,9.11,27.61,27.61,0,0,1,1.33,5.18,12.07,12.07,0,0,1-.62,5.89c-.1.25-.19.5-.31.75s-.31.52-.47.78-.34.51-.51.77-.27.32-.41.48l-.41.47-.1.12-.23.21-.07.06-.3.25a10.55,10.55,0,0,1-1.23.93,14.49,14.49,0,0,1-5.57,2.19,30.17,30.17,0,0,1-11-.3,77.29,77.29,0,0,1-10-2.68c-3.22-1.09-6.37-2.3-9.43-3.51L307,185.74c-.73-.27-1.44-.52-2.13-.74a11.46,11.46,0,0,0-1.7-.43c-.07,0-.3,0,0,0a1.15,1.15,0,0,0,.29,0l.14,0-.15,0-.31,0h-.08l.6-.11h0l.07,0-.09.06a15,15,0,0,0-1.45.92c-1.17.81-2.41,1.78-3.65,2.76-2.49,2-5,4.07-7.49,6.18s-5,4.24-7.62,6.35S278.3,205,275.42,207c-.72.51-1.46,1-2.27,1.53a25,25,0,0,1-2.91,1.63l-.57.25-.07,0-.31.12-.21.07-.42.14a14,14,0,0,1-1.68.47,19.43,19.43,0,0,1-3.46.46,17.18,17.18,0,0,1-7-1.24,16.45,16.45,0,0,1-6-4.11,18.31,18.31,0,0,1-3.57-5.88,28.33,28.33,0,0,1-.94-3.09l-.28-1.65-.13-.83a6.49,6.49,0,0,1-.09-.74l-.08-1.23,0-.62,0-.55v-.35c0-.93,0-1.84,0-2.73.07-1.79.22-3.53.39-5.25.7-6.84,2-13.35,2.81-19.69.21-1.58.39-3.13.5-4.64a29.72,29.72,0,0,0,.07-4.2,8.47,8.47,0,0,0-.22-1.44c0-.07,0,0,0,0l0,.07c.11.13-.07-.17-.15-.32l-.08-.13,0-.07.2.31a.5.5,0,0,0,.07.08v0l-.07-.07a10.77,10.77,0,0,0-1.36-1c-.58-.39-1.21-.79-1.87-1.18-2.65-1.58-5.55-3.08-8.45-4.58s-5.83-3-8.77-4.6-5.87-3.17-8.76-4.93a72.73,72.73,0,0,1-8.56-5.88,19.64,19.64,0,0,1-4-4.31,8.79,8.79,0,0,1-.84-1.68A6.56,6.56,0,0,1,206,124a6.06,6.06,0,0,1-.1-1.41l0-.31,0-.3,0-.16.07-.31a5.65,5.65,0,0,1,.43-1.14,7,7,0,0,1,1.22-1.67,11.32,11.32,0,0,1,2.61-1.91,21.69,21.69,0,0,1,2.54-1.18,45.71,45.71,0,0,1,5-1.6c6.58-1.73,13.11-2.73,19.58-3.94,3.23-.6,6.46-1.2,9.62-1.92,1.57-.38,3.14-.79,4.62-1.29a18.69,18.69,0,0,0,2.12-.83,4.46,4.46,0,0,0,1.39-.93l-.26.71c.59-4.6,1.25-9.14,2-13.7s1.6-9.09,2.61-13.61c.5-2.27,1-4.53,1.68-6.78s1.3-4.51,2.13-6.75a38.46,38.46,0,0,1,3.15-6.64A18.13,18.13,0,0,1,269,55.16a10.1,10.1,0,0,1,3.92-2.56,7.86,7.86,0,0,1,2.62-.44,8.37,8.37,0,0,1,2.7.44l.32.11.2.08.4.15.05,0,.2.09.11.06.23.11.45.23.9.46.84.52a32.4,32.4,0,0,1,5.92,4.86,73.05,73.05,0,0,1,8.8,11.48c2.55,4,4.82,8,7.09,11.91,1.14,1.94,2.25,3.87,3.42,5.65a27.21,27.21,0,0,0,3.5,4.51l.38.32a3.09,3.09,0,0,0,.31.22l.07.05,0,0,0,0a.29.29,0,0,0-.13-.05h-.09l.42.11.21.05.1,0-.4-.08h0l.21,0,.21,0h.31c.38,0,.87,0,1.35,0,2-.13,4.2-.45,6.4-.76,4.43-.67,9-1.42,13.59-2a115.13,115.13,0,0,1,14.12-1.1,38.21,38.21,0,0,1,7.44.59,17.07,17.07,0,0,1,3.94,1.21l1,.52c.33.19.67.46,1,.69a5.32,5.32,0,0,1,.93.86l.43.48a4.63,4.63,0,0,1,.42.63c.13.23.26.46.38.69l.17.35a1.54,1.54,0,0,1,.07.23l.23.83c.15.54,0,.19.08.33v.07l0,.15,0,.29,0,.58a6,6,0,0,1,0,1.12,13.31,13.31,0,0,1-1,4,31.82,31.82,0,0,1-3.6,6.37,102.88,102.88,0,0,1-8.91,10.74l-9.38,10.08c-1.54,1.7-3.08,3.38-4.52,5.14-.71.89-1.42,1.77-2.06,2.7-.33.46-.62.93-.91,1.4l-.37.69c-.12.25-.21.53-.32.79Z" transform="translate(-205.94 -52.16)"/></g></g><g id="_Group_4" data-name="&lt;Group&gt;"><path id="_Path_" data-name="&lt;Path&gt;" class="cls-3" d="M272,63.1c-3.41,13.5-1.08,41.89-7.73,47.65s-37,4.64-36.73,11.39,30.65,7.87,34,18.84-12.37,52.58,3.94,48.64,22.71-20.56,43.75-10.12c7.74,3.84,13.41,7.17,18,9.51,7,2.29,13.92,3.41,18.72.76.46-.31.91-.61,1.35-.89.1-.08.22-.15.32-.23,11.39-9.7-17.29-40.49-15.18-47.66s31.63-32.05,29.1-43.44-41.75,1.69-50.61.42S293.2,63.39,278,55.79a6.68,6.68,0,0,0-1.48-.54C274.9,56.1,273.23,58.29,272,63.1Z" transform="translate(-205.94 -52.16)"/><path id="_Path_2" data-name="&lt;Path&gt;" class="cls-4" d="M256.51,106c-3.8,5.48-46.39,8-47.66,16.45s40.07,22.77,43.86,28.26-2.53,27.41-2.11,40.91,10.12,16.45,16.87,13.92,29.94-24.46,35-25.73c2.94-.74,13.87,5.65,24.74,9.23-4.56-2.34-10.22-5.67-18-9.51-21-10.44-27.44,6.19-43.75,10.12S264.94,152,261.57,141s-33.74-12.09-34-18.84,30.08-5.62,36.73-11.39S268.6,76.6,272,63.1c1.22-4.81,2.88-7,4.52-7.85C262.42,52,256.51,106,256.51,106Z" transform="translate(-205.94 -52.16)"/></g><circle id="_Path_3" data-name="&lt;Path&gt;" class="cls-4" cx="63.54" cy="71.7" r="20.54"/><g id="_Group_5" data-name="&lt;Group&gt;"><circle id="_Path_4" data-name="&lt;Path&gt;" class="cls-5" cx="63.5" cy="69.2" r="20.58"/><circle id="_Path_5" data-name="&lt;Path&gt;" class="cls-2" cx="64.99" cy="70.87" r="14.75"/><circle id="_Path_6" data-name="&lt;Path&gt;" class="cls-5" cx="55.83" cy="61.03" r="5.58"/><g id="_Group_6" data-name="&lt;Group&gt;"><path id="_Path_7" data-name="&lt;Path&gt;" class="cls-2" d="M270.43,102.36a21.67,21.67,0,0,1,14.82,5.83,20.58,20.58,0,0,0-36.4,13.17s0,0,0,.07A21.75,21.75,0,0,1,270.43,102.36Z" transform="translate(-205.94 -52.16)"/></g></g><g id="_Group_7" data-name="&lt;Group&gt;"><circle id="_Path_8" data-name="&lt;Path&gt;" class="cls-4" cx="109.26" cy="61.87" r="20.54"/><g id="_Group_8" data-name="&lt;Group&gt;"><circle id="_Path_9" data-name="&lt;Path&gt;" class="cls-5" cx="109.26" cy="58.74" r="20.58"/><circle id="_Path_10" data-name="&lt;Path&gt;" class="cls-2" cx="110.75" cy="60.41" r="14.75"/><circle id="_Path_11" data-name="&lt;Path&gt;" class="cls-5" cx="101.59" cy="50.58" r="5.58"/><g id="_Group_9" data-name="&lt;Group&gt;"><path id="_Path_12" data-name="&lt;Path&gt;" class="cls-2" d="M316.19,91.9A21.67,21.67,0,0,1,331,97.73a20.58,20.58,0,0,0-36.4,13.17s0,0,0,.07A21.75,21.75,0,0,1,316.19,91.9Z" transform="translate(-205.94 -52.16)"/></g></g></g><g id="_Clip_Group_" data-name="&lt;Clip Group&gt;"><g class="cls-6"><path id="_Path_13" data-name="&lt;Path&gt;" class="cls-2" d="M294.76,144.67c-3.89,2.28-9.65-.3-13,2.76a7.21,7.21,0,0,0-1.87,5.81c.61,9.41,10.43,14.35,18.58,11.84,10.74-3.31,20.13-14.9,10.75-22.84-2.17-1.83-5.29-1.92-7.92-1.18-3.58,1-6.58,3.41-9.91,5.08" transform="translate(-205.94 -52.16)"/><path id="_Path_14" data-name="&lt;Path&gt;" class="cls-5" d="M280.81,146c2,3.28,4.33,6.78,8,8.07a14.34,14.34,0,0,0,7.2.19c3.13-.54,6.54-1.7,8-4.52a9.71,9.71,0,0,0,.88-3.92,27.39,27.39,0,0,0-.18-5.09,1.33,1.33,0,0,0-1.48-1.4,31.37,31.37,0,0,0-20.26,4.62c-1.1.7-2.3,1.93-1.74,3.11" transform="translate(-205.94 -52.16)"/></g></g></g></svg>