<?xml version="1.0" encoding="UTF-8"?>
<svg width="73px" height="54px" viewBox="0 0 73 54" version="1.1" xmlns="http://www.w3.org/2000/svg" xmlns:xlink="http://www.w3.org/1999/xlink">
    <!-- Generator: Sketch 46.2 (44496) - http://www.bohemiancoding.com/sketch -->
    <title>Page 1</title>
    <desc>Created with Sketch.</desc>
    <defs>
        <polygon id="path-1" points="23.1708364 0.0828303819 23.1708364 14.6297158 0.038709389 14.6297158 0.038709389 0.0828303819 23.1708364 0.0828303819"></polygon>
        <polygon id="path-3" points="21.7101879 53.3576389 0 53.3576389 0 0.186751736 43.4203758 0.186751736 43.4203758 53.3576389 21.7101879 53.3576389"></polygon>
    </defs>
    <g id="Welcome" stroke="none" stroke-width="1" fill="none" fill-rule="evenodd">
        <g id="Homepage-Kid" transform="translate(-1028.000000, -827.000000)">
            <g id="Group-14" transform="translate(993.000000, 746.000000)">
                <g id="Page-1" transform="translate(35.000000, 81.000000)">
                    <path d="M52.3365414,45.3435316 C57.5908446,44.4015802 66.3686949,32.2814135 70.2011725,18.2145333 C70.2011725,18.2145333 67.2752224,20.1612469 64.5965823,15.2002469 C64.5965823,15.2002469 58.7653603,20.0356253 53.9438495,14.132674 C53.9438495,14.132674 51.2530093,15.1676861 49.196573,14.6851566 L46.6744661,43.2791792 C46.6744661,43.2791792 47.0824449,46.285483 52.3365414,45.3435316" id="Fill-1" fill="#EF9200"></path>
                    <path d="M57.8793661,48.10668 C57.8793661,48.10668 71.7039115,23.8358866 72.5678422,16.4170741 C67.8459998,17.7424023 66.2039525,13.5046714 66.2039525,13.5046714 C66.2039525,13.5046714 63.8960706,15.7862356 60.4343512,15.4513849 C56.9726317,15.1165342 56.8078273,11.5579578 56.8078273,11.5579578 C53.6972219,14.9392356 50.7286749,12.9063936 49.4594536,11.7060568 L49.1966351,14.6850516 C51.2530713,15.1677911 53.9437047,14.1325689 53.9437047,14.1325689 C58.7654223,20.0357304 64.5966444,15.2001418 64.5966444,15.2001418 C67.2752845,20.1613519 70.2012345,18.2144283 70.2012345,18.2144283 C66.3687569,32.2815186 57.5909067,44.4014752 52.3366034,45.3436366 C47.0823001,46.285588 46.6745281,43.2792842 46.6745281,43.2792842 L46.3817263,46.5994318 C46.3817263,46.5994318 52.1922703,53.3817339 57.8793661,48.10668" id="Fill-3" fill="#E28100"></path>
                    <path d="M58.0441911,47.604278 C58.0441911,47.604278 61.0319687,45.2178891 63.8754132,46.7879481 C66.7190645,48.357797 70.0569221,46.5995158 70.0569221,46.5995158 C70.0569221,46.5995158 68.8826133,51.6861373 65.791652,51.9373804 C62.7008975,52.1886234 60.5373487,47.5729776 58.0441911,47.604278" id="Fill-5" fill="#A61C85"></path>
                    <path d="M47.2058517,50.587222 C50.148551,51.727479 56.0968111,53.103854 59.1211889,49.2358453 C59.2609728,47.9577828 58.2295496,47.6042359 58.2295496,47.6042359 C58.2295496,47.6042359 55.3449557,49.6137602 50.8942031,49.0276665 C46.4434504,48.4415727 46.5671054,44.9248002 46.5671054,44.9248002 C45.8934132,44.6832203 44.5753916,45.4510241 44.4424314,47.0740207 C44.5243167,47.9287932 44.9693092,49.7204755 47.2058517,50.587222" id="Fill-7" fill="#A61C85"></path>
                    <path d="M50.8942031,52.9630865 C55.1801513,53.884241 58.6416639,51.2048052 59.0537783,49.6139493 C59.0889311,49.4784545 59.1083685,49.3547236 59.1211889,49.2358243 C56.0968111,53.103833 50.148551,51.7276681 47.2058517,50.587201 C44.9693092,49.7204545 44.5243167,47.9287722 44.4424314,47.0739997 C44.4372619,47.138701 44.4302314,47.2019319 44.4287839,47.2693642 C44.3921837,49.0276455 46.6082548,52.042142 50.8942031,52.9630865" id="Fill-9" fill="#930A80"></path>
                    <g id="Group-13" transform="translate(49.420641, 2.044186)">
                        <mask id="mask-2" fill="white">
                            <use xlink:href="#path-1"></use>
                        </mask>
                        <g id="Clip-12"></g>
                        <path d="M17.7298513,1.93249184 C17.2935436,2.0400474 16.840073,2.10348837 16.3710939,2.10348837 C14.6353748,2.10348837 13.0828636,1.31845885 12.0286945,0.0828303819 C7.96131371,2.85931823 1.51636587,7.58819149 0.0517365872,9.51368802 L0.038709389,9.66199705 C1.3079307,10.8623339 4.27668443,12.8949658 7.38728987,9.51368802 C7.38728987,9.51368802 7.55209426,13.0722644 11.0138137,13.4071151 C14.4753264,13.7421759 16.7832083,11.4604016 16.7832083,11.4604016 C16.7832083,11.4604016 18.4254624,15.6983425 23.1473048,14.3730144 C23.155576,14.3015908 23.1648811,14.2289068 23.1708778,14.1608443 C23.1708778,14.1608443 20.0437299,6.73026788 17.7298513,1.93249184" id="Fill-11" fill="#FAE198" mask="url(#mask-2)"></path>
                    </g>
                    <path d="M65.7917554,4.14761111 C66.2607345,4.14761111 66.7142051,4.08438021 67.1505129,3.97661458 C66.0223161,1.63728125 65.0864257,-0.07940625 64.8027222,0.00294097222 C64.5403173,0.0789861111 63.2185736,0.919263889 61.449356,2.12695312 C62.5035251,3.3625816 64.0558295,4.14761111 65.7917554,4.14761111" id="Fill-14" fill="#534225"></path>
                    <path d="M62.5979413,30.5230483 C56.2309499,36.0493451 52.3366447,30.8366819 52.3366447,30.8366819" id="Stroke-16" stroke="#534225" stroke-linecap="round"></path>
                    <path d="M62.1675475,28.513503 C62.1675475,28.513503 61.8664745,31.5229578 64.596603,30.8366609" id="Stroke-18" stroke="#534225" stroke-linecap="round"></path>
                    <path d="M55.5509508,28.513503 C55.5509508,28.513503 54.6855727,27.194687 55.5509508,26.5039786 C56.416329,25.8130602 56.910949,26.5039786 56.910949,26.5039786" id="Stroke-20" stroke="#534225" stroke-linecap="round"></path>
                    <path d="M68.264359,11.1810722 C68.264359,11.1810722 64.9674439,7.58069201 65.6268683,6.6595375 C66.2862927,5.73859306 67.6049346,9.00412257 68.264359,11.1810722" id="Fill-22" fill="#FFFFFF"></path>
                    <path d="M55.3655097,23.519522 C55.3655097,24.9927391 54.1899601,26.1869839 52.7398055,26.1869839 C51.2896509,26.1869839 50.1141013,24.9927391 50.1141013,23.519522 C50.1141013,22.046305 51.2896509,20.8520602 52.7398055,20.8520602 C54.1899601,20.8520602 55.3655097,22.046305 55.3655097,23.519522" id="Fill-24" fill="#FFFFFF"></path>
                    <path d="M54.7817465,23.7707021 C54.7817465,24.5647646 54.2616924,25.2084174 53.620258,25.2084174 C52.9786168,25.2084174 52.4585628,24.5647646 52.4585628,23.7707021 C52.4585628,22.9766396 52.9786168,22.3329868 53.620258,22.3329868 C54.2616924,22.3329868 54.7817465,22.9766396 54.7817465,23.7707021" id="Fill-26" fill="#534225"></path>
                    <path d="M66.0028787,23.519522 C66.0028787,24.9927391 64.8273292,26.1869839 63.3771746,26.1869839 C61.9270199,26.1869839 60.7514704,24.9927391 60.7514704,23.519522 C60.7514704,22.046305 61.9270199,20.8520602 63.3771746,20.8520602 C64.8273292,20.8520602 66.0028787,22.046305 66.0028787,23.519522" id="Fill-28" fill="#FFFFFF"></path>
                    <path d="M65.428524,23.519522 C65.428524,24.3135845 64.90847,24.9572373 64.2670356,24.9572373 C63.6253944,24.9572373 63.1053404,24.3135845 63.1053404,23.519522 C63.1053404,22.7254595 63.6253944,22.0818068 64.2670356,22.0818068 C64.90847,22.0818068 65.428524,22.7254595 65.428524,23.519522" id="Fill-30" fill="#534225"></path>
                    <path d="M57.7927249,48.4611512 C57.7927249,48.4611512 55.4436936,49.9055887 54.5164879,49.6228352 C54.5164879,49.6228352 57.0510017,50.2822432 57.7927249,48.4611512" id="Fill-32" fill="#FFFFFF"></path>
                    <g id="Group-36" transform="translate(0.000000, 0.363630)">
                        <mask id="mask-4" fill="white">
                            <use xlink:href="#path-3"></use>
                        </mask>
                        <g id="Clip-35"></g>
                        <path d="M2.86573547,53.3576389 L2.31135581,35.1042847 C2.20507042,33.8031146 2.11904955,32.4771563 2.0535,31.1268299 C1.76793554,26.5420642 1.57335469,23.5994115 1.4670693,22.2967708 L-4.1356185e-05,6.76444618 C8.2083342,5.44121875 13.1739713,4.68433854 14.8931479,4.49443576 L16.2270917,20.8519132 L20.8763539,20.5964688 C21.8918551,20.5109705 22.8374642,20.3863993 23.7144221,20.2214948 L25.7466651,19.7799288 L24.1263297,2.36118056 C30.7966688,1.25789583 35.652712,0.533576389 38.6936323,0.186751736 L40.049288,16.8137483 C40.9055678,27.3149097 41.787902,35.9619983 42.6981516,42.7524931 L43.4018271,48.929375 C43.4535224,49.5583229 43.3968644,49.9694288 43.2355753,50.1633229 L27.1837925,51.3107222 L26.640579,33.1918125 L26.4484795,30.8358837 L17.2982168,32.3515347 C17.5353946,34.727 17.9410987,38.3290608 18.5132615,43.1617083 C18.946054,46.8305712 19.1912962,49.0245365 19.2498152,49.7423438 C19.3594091,51.0880486 19.2932392,51.9073194 19.049858,52.1988958 L2.86573547,53.3576389 Z" id="Fill-34" fill="#FFA705" mask="url(#mask-4)"></path>
                    </g>
                </g>
            </g>
        </g>
    </g>
</svg>