<?xml version="1.0" encoding="UTF-8"?>
<svg width="32px" height="32px" viewBox="0 0 32 32" version="1.1" xmlns="http://www.w3.org/2000/svg" xmlns:xlink="http://www.w3.org/1999/xlink">
    <!-- Generator: Sketch 46.2 (44496) - http://www.bohemiancoding.com/sketch -->
    <title>Page 1</title>
    <desc>Created with Sketch.</desc>
    <defs></defs>
    <g id="Welcome" stroke="none" stroke-width="1" fill="none" fill-rule="evenodd">
        <g id="profile-copy-2" transform="translate(-688.000000, -591.000000)">
            <g id="Page-1" transform="translate(688.000000, 591.000000)">
                <g id="Group-3" transform="translate(0.000000, 0.109878)" fill="#FFA705">
                    <path d="M12.939771,23.8615627 C13.1197852,23.777147 13.3671915,23.7233548 13.5303576,23.5744803 C14.5105979,22.6802007 15.5016933,21.7947527 16.4328594,20.849319 C18.8568311,18.3885305 21.2604495,15.9070968 23.6524212,13.4143082 C24.3476014,12.6897778 24.9871491,11.9089319 25.6309936,11.1356559 C26.059771,10.6207885 26.0599972,10.4207599 25.6876438,9.86873118 C25.1989371,9.14431541 24.5349654,8.61969892 23.7813258,8.20220789 C23.4441385,8.01536918 23.1556862,8.03876703 22.8616933,8.31587097 C21.9857074,9.14110394 21.0626827,9.9174767 20.2151915,10.7711541 C17.7484777,13.2557993 15.3082233,15.7675125 12.8612975,18.2723441 C12.5696792,18.5710108 12.4838558,18.6148244 12.1537922,18.3565305 C11.7376792,18.0309104 11.3333258,17.6840717 10.9596155,17.3098208 C10.2296085,16.5784086 9.52391237,15.8219928 8.80871802,15.0752115 C8.4068523,14.6555412 8.20908551,14.5803011 7.61239293,15.0401147 C6.96730459,15.537319 6.48662615,16.1864946 6.10647067,16.9128602 C5.90768622,17.2927312 5.92238587,17.6384229 6.14615972,18.0154265 C6.86791237,19.2317706 7.80427986,20.2623082 8.82183463,21.2182939 C9.92543887,22.2550251 11.1438134,23.1291183 12.5382445,23.7282867 C12.6492834,23.776 12.7681244,23.8052473 12.939771,23.8615627 M15.7810996,31.8850753 C13.7304989,31.8926452 11.6016509,31.6203584 9.54313498,30.9081004 C7.35006078,30.1493907 5.43594064,28.9463513 3.8729159,27.1895627 C2.21558728,25.3265663 1.17541767,23.1425376 0.581325795,20.7270538 C-0.0242996466,18.264086 -0.151281979,15.7703799 0.174937102,13.2539642 C0.555771025,10.3166165 1.51972862,7.61175627 3.32812438,5.25579928 C4.90234346,3.2049319 6.91789117,1.77146953 9.33847067,0.924903226 C11.6130714,0.129376344 13.9582304,-0.0892329749 16.348506,0.0389964158 C18.0082092,0.128114695 19.6404353,0.377691756 21.2324071,0.861247312 C24.3632057,1.81195699 26.9756721,3.53949821 28.9216792,6.23334767 C30.3353329,8.19039427 31.1935661,10.3903656 31.6130714,12.770638 C31.892817,14.3576774 31.9823717,15.9577921 31.835036,17.5641004 C31.5322233,20.8641147 30.5258629,23.8995269 28.4495943,26.5058638 C26.7411562,28.6504373 24.5544141,30.0993835 21.980506,30.960172 C20.0054389,31.6205878 17.9730431,31.8933333 15.7810996,31.8850753" id="Fill-1"></path>
                </g>
                <path d="M12.939771,23.9714409 C12.7681244,23.9151254 12.6492834,23.8858781 12.5382445,23.8381649 C11.1438134,23.2389964 9.92543887,22.3649032 8.82183463,21.328172 C7.80427986,20.3721864 6.86791237,19.3416487 6.14615972,18.1253047 C5.92238587,17.7483011 5.90768622,17.4026093 6.10647067,17.0227384 C6.48662615,16.2963728 6.96730459,15.6471971 7.61239293,15.1499928 C8.20908551,14.6901792 8.4068523,14.7654194 8.80871802,15.1850896 C9.52391237,15.931871 10.2296085,16.6882867 10.9596155,17.4196989 C11.3333258,17.7939498 11.7376792,18.1407885 12.1537922,18.4664086 C12.4838558,18.7247025 12.5696792,18.6808889 12.8612975,18.3822222 C15.3082233,15.8773907 17.7484777,13.3656774 20.2151915,10.8810323 C21.0626827,10.0273548 21.9857074,9.25098208 22.8616933,8.4257491 C23.1556862,8.14864516 23.4441385,8.12524731 23.7813258,8.31208602 C24.5349654,8.72957706 25.1989371,9.25419355 25.6876438,9.97860932 C26.0599972,10.530638 26.059771,10.7306667 25.6309936,11.2455341 C24.9871491,12.01881 24.3476014,12.7996559 23.6524212,13.5241864 C21.2604495,16.0169749 18.8568311,18.4984086 16.4328594,20.9591971 C15.5016933,21.9046308 14.5105979,22.7900789 13.5303576,23.6843584 C13.3671915,23.833233 13.1197852,23.8870251 12.939771,23.9714409" id="Fill-4" fill="#FEFEFE"></path>
            </g>
        </g>
    </g>
</svg>