<?xml version="1.0" encoding="UTF-8"?>
<svg width="20px" height="20px" viewBox="0 0 20 20" version="1.1" xmlns="http://www.w3.org/2000/svg" xmlns:xlink="http://www.w3.org/1999/xlink">
    <!-- Generator: Sketch 46.2 (44496) - http://www.bohemiancoding.com/sketch -->
    <title>Fill 1</title>
    <desc>Created with Sketch.</desc>
    <defs></defs>
    <g id="Welcome" stroke="none" stroke-width="1" fill="none" fill-rule="evenodd">
        <g id="Trang-nhân-vật-Copy-3" transform="translate(-1246.000000, -47.000000)" fill="#FFA705">
            <g id="Group-2" transform="translate(882.000000, 39.000000)">
                <path d="M371.90139,10.7482239 C368.887711,10.7557143 366.669053,13.2866465 366.768689,16.0369326 C366.868971,18.8035556 369.18804,21.0950517 372.097369,21.0043268 C374.817499,20.9195427 377.071156,18.5506238 377.026148,15.8109922 C376.980754,13.0485019 374.728195,10.7548749 371.90139,10.7482239 M364,15.8656208 C364.107062,13.0670343 365.263819,10.8742701 367.554541,9.31522359 C369.052049,8.296006 370.733397,7.87944666 372.531879,8.02983679 C376.183408,8.33526629 379.013313,11.0380913 379.637086,14.439659 C379.917978,15.9714557 379.765586,17.4588263 379.159635,18.8945387 C379.096805,19.0433791 379.117727,19.123966 379.229567,19.2352249 C380.530193,20.5290062 381.822489,21.8311819 383.121695,23.1264484 C383.73914,23.7419566 384.039597,24.476408 383.995817,25.3489807 C383.92046,26.8515259 382.643016,28.0279784 381.139115,27.9866518 C380.351068,27.9650199 379.694685,27.6581052 379.142975,27.1041349 C377.844674,25.8004094 376.542433,24.5005583 375.248071,23.1928938 C375.14017,23.0838303 375.059776,23.0809891 374.931987,23.1352303 C373.657061,23.6764152 372.326344,23.8639993 370.954688,23.7030838 C369.421212,23.5231839 368.05343,22.9322133 366.870262,21.93805 C365.35745,20.6668692 364.434059,19.051709 364.11791,17.0995431 C364.050238,16.6816277 364.035902,16.2550596 364,15.8656208" id="Fill-1"></path>
            </g>
        </g>
    </g>
</svg>