<svg id="Layer_1" data-name="Layer 1" xmlns="http://www.w3.org/2000/svg" viewBox="0 0 93.46 151.99"><defs><style>.cls-1{fill:#939598;}.cls-2{fill:#fff;}.cls-3{fill:none;}.cls-4{fill:#e6e7e8;}.cls-5{fill:#d1d3d4;}</style></defs><title>Untitled-12</title><g id="_Group_" data-name="&lt;Group&gt;"><g id="_Group_2" data-name="&lt;Group&gt;"><g id="_Group_3" data-name="&lt;Group&gt;"><g id="_Group_4" data-name="&lt;Group&gt;"><path id="_Compound_Path_" data-name="&lt;Compound Path&gt;" class="cls-1" d="M315.82,85q-3.32-1.47-6.57-3.05c-1.13-.55-2.27-1.07-3.39-1.64l-3.36-1.68c-2.25-1.11-4.47-2.27-6.68-3.43s-4.45-2.3-6.64-3.5-4.4-2.38-6.59-3.59-4.37-2.43-6.54-3.66q-6.53-3.69-13-7.51l6.25-1.9c-.81,1.9-1.65,3.79-2.48,5.68s-1.65,3.78-2.52,5.66-1.71,3.76-2.6,5.62-1.8,3.72-2.7,5.57-1.84,3.7-2.81,5.52l-2.89,5.49L247.4,99.47l0-2.24c.58,1.74,1.05,3.39,1.56,5.08s1,3.37,1.41,5.06l1.3,5.07,1.23,5.08c.38,1.7.79,3.39,1.14,5.1s.74,3.4,1,5.12.64,3.43.93,5.15.55,3.45.74,5.19.41,3.48.58,5.23l.17,2.64c.05.88.05,1.77.1,2.65s0,1.77,0,2.66,0,1.78-.07,2.68-.1,1.79-.18,2.69l-.31,2.7a44.69,44.69,0,0,1-1.14,5.4,22.2,22.2,0,0,1-.85,2.67l-.48,1.33c-.18.44-.4.86-.6,1.3a21,21,0,0,1-1.33,2.56l-.76,1.24a8.78,8.78,0,0,1-.83,1.21c-.61.76-1.18,1.58-1.85,2.3l-2.1,2.11.88-4.79c.35.49.85,1.17,1.31,1.75s1,1.19,1.47,1.77c1,1.16,2.09,2.25,3.19,3.29a32.92,32.92,0,0,0,7.06,5.26,22.75,22.75,0,0,0,3.78,1.66,17.16,17.16,0,0,0,3.84.76,16.32,16.32,0,0,0,3.8-.14c.62-.15,1.25-.25,1.87-.44s1.24-.35,1.85-.65a26.12,26.12,0,0,0,7-4.42c1.08-1,2.18-2,3.19-3.08l.78-.81.39-.4,0,0-.11.12.05-.06.1-.12.2-.24L289.5,177l.4-.48.31-.44.62-.87c.42-.59.86-1.09,1.26-1.77.83-1.28,1.69-2.54,2.42-3.91a85.43,85.43,0,0,0,4.26-8.35c1.27-2.9,2.48-5.85,3.53-8.88l.82-2.27.75-2.3c.52-1.53,1-3.09,1.42-4.64.9-3.12,1.7-6.27,2.5-9.44s1.49-6.38,2.1-9.6,1.28-6.46,1.84-9.71,1.1-6.52,1.58-9.8,1-6.57,1.36-9.88S315.47,88.22,315.82,85Zm1-.31c.44,3.35.72,6.7.93,10.06s.32,6.73.33,10.1,0,6.75-.16,10.13-.36,6.76-.65,10.14-.74,6.75-1.21,10.12q-.37,2.53-.8,5.06c-.34,1.68-.63,3.36-1,5s-.72,3.35-1.16,5l-.63,2.51-.71,2.5c-1,3.33-2.13,6.61-3.38,9.89a88.21,88.21,0,0,1-4.58,9.59c-.84,1.57-1.85,3.08-2.82,4.6-.45.75-1.09,1.54-1.64,2.31l-.86,1.15-.43.57-.41.48L296,185.82l-.55.62-.48.49-1,1a50.59,50.59,0,0,1-4.15,3.7,36.23,36.23,0,0,1-10.11,5.73,29.93,29.93,0,0,1-2.91.87c-1,.23-2,.37-3,.53a26,26,0,0,1-6.18-.1,26.64,26.64,0,0,1-5.88-1.49,32,32,0,0,1-5.24-2.62,35.26,35.26,0,0,1-4.55-3.37,43.58,43.58,0,0,1-3.95-3.85,46.25,46.25,0,0,1-3.4-4.23q-.79-1.1-1.52-2.24c-.5-.78-.94-1.49-1.45-2.42l-1.57-2.86,2.45-1.93,1.73-1.36c.57-.47,1.05-1,1.6-1.55a5.56,5.56,0,0,0,.75-.84l.71-.89a15.36,15.36,0,0,0,1.3-1.89c.2-.33.43-.65.62-1l.53-1a17.45,17.45,0,0,0,1-2.15,38.68,38.68,0,0,0,1.55-4.58l.57-2.4c.18-.81.28-1.63.42-2.45s.21-1.65.3-2.48.18-1.66.21-2.5c.14-1.68.1-3.36.09-5.05s-.11-3.38-.26-5.07-.36-3.38-.58-5.07-.53-3.37-.87-5q-1-5-2.45-9.94c-1-3.27-2.09-6.51-3.36-9.68-.63-1.58-1.28-3.16-2-4.72s-1.41-3.12-2.13-4.58l-.46-.92.49-1.32,4.33-11.63,2.24-5.78c.73-1.93,1.54-3.84,2.31-5.75s1.59-3.81,2.43-5.7,1.66-3.78,2.52-5.66,1.74-3.75,2.61-5.62,1.75-3.74,2.65-5.6l2.19-4.52,4.06,2.61q6.3,4.06,12.53,8.23c2.07,1.4,4.15,2.79,6.2,4.21s4.12,2.84,6.16,4.28,4.07,2.91,6.11,4.37,4.07,2.92,6.07,4.44l3,2.25c1,.74,2,1.53,3,2.29q3,2.29,5.91,4.69l.2.17Z" transform="translate(-238.36 -46.89)"/></g></g><g id="_Group_5" data-name="&lt;Group&gt;"><g id="_Group_6" data-name="&lt;Group&gt;"><path id="_Path_" data-name="&lt;Path&gt;" class="cls-2" d="M283.67,64.52c-8.91,8.69-19,6.7-25.29,4L244.85,98.31s12,15.6,23,0c0,0,13.18,18.2,23.74-2.09,0,0,17.26,8.46,24.76-11.52Z" transform="translate(-238.36 -46.89)"/><path id="_Path_2" data-name="&lt;Path&gt;" class="cls-1" d="M283.67,64.52,265.35,53.21l-7,15.34C264.64,71.22,274.76,73.21,283.67,64.52Z" transform="translate(-238.36 -46.89)"/></g><polygon id="_Path_3" data-name="&lt;Path&gt;" class="cls-3" points="59.25 50.97 59.25 50.97 59.25 50.97 59.25 50.97"/><path id="_Path_4" data-name="&lt;Path&gt;" class="cls-4" d="M297.62,97.86h0c-12.07,18.65-25,5.14-25,5.14-7.11,16.45-14.2,10.81-14.2,10.81,25.69,49.27-10.36,52.07,2.64,69s32.37-2.09,32.37-2.09c16.74-20.4,21.31-58,22.54-79.6C307.51,101.35,297.62,97.86,297.62,97.86Z" transform="translate(-238.36 -46.89)"/><path id="_Path_5" data-name="&lt;Path&gt;" class="cls-5" d="M272.58,103s13,13.51,25-5.14a20.59,20.59,0,0,1-6-1.64C285,108.9,277.37,106.55,272.58,103Z" transform="translate(-238.36 -46.89)"/><path id="_Path_6" data-name="&lt;Path&gt;" class="cls-5" d="M261,182.79c-13-16.91,23-19.72-2.64-69,0,0,7.09,5.64,14.2-10.81a24.4,24.4,0,0,1-4.73-4.69c-11,15.6-23,0-23,0s24.5,58.57,0,78.24c0,0,20.47,34.82,46.74,6.24.62-.67,1.22-1.38,1.81-2.09C293.39,180.7,274,199.71,261,182.79Z" transform="translate(-238.36 -46.89)"/><path id="_Path_7" data-name="&lt;Path&gt;" class="cls-5" d="M316.35,84.7c-4.64,12.37-13,13.84-18.74,13.16,0,0,9.89,3.49,18.32,3.24C316.49,91.23,316.35,84.7,316.35,84.7Z" transform="translate(-238.36 -46.89)"/></g><g id="_Group_7" data-name="&lt;Group&gt;"><g id="_Group_8" data-name="&lt;Group&gt;"><circle id="_Path_8" data-name="&lt;Path&gt;" class="cls-5" cx="72.51" cy="76.26" r="20.54"/><g id="_Group_9" data-name="&lt;Group&gt;"><circle id="_Path_9" data-name="&lt;Path&gt;" class="cls-2" cx="72.51" cy="73.13" r="20.58"/><circle id="_Path_10" data-name="&lt;Path&gt;" class="cls-1" cx="74" cy="74.8" r="14.75"/><circle id="_Path_11" data-name="&lt;Path&gt;" class="cls-2" cx="64.84" cy="64.96" r="5.58"/><g id="_Group_10" data-name="&lt;Group&gt;"><path id="_Path_12" data-name="&lt;Path&gt;" class="cls-1" d="M311.87,101a21.67,21.67,0,0,1,14.82,5.83A20.58,20.58,0,0,0,290.29,120s0,0,0,.07A21.75,21.75,0,0,1,311.87,101Z" transform="translate(-238.36 -46.89)"/></g></g></g><g id="_Group_11" data-name="&lt;Group&gt;"><path id="_Path_13" data-name="&lt;Path&gt;" class="cls-1" d="M297,99.32a4.73,4.73,0,0,1-.16-1.1,9.64,9.64,0,0,1,0-1.29,10,10,0,0,1,.3-1.65,10.23,10.23,0,0,1,.71-1.9,8.91,8.91,0,0,1,.57-1,5.42,5.42,0,0,1,.71-1c.27-.31.55-.62.85-.92s.67-.54,1-.8a5.45,5.45,0,0,1,1.13-.69c.4-.19.79-.41,1.2-.57l1.27-.36a5,5,0,0,1,1.26-.24c.42,0,.84-.07,1.25-.09l.61,0,.59.06a16.84,16.84,0,0,1,2.2.35c.67.21,1.29.42,1.85.63a7.47,7.47,0,0,1,1.47.72c.42.25.77.49,1.06.68a10,10,0,0,1,.88.65s-.42.07-1.1.11c-.34,0-.75.05-1.21.06a12.92,12.92,0,0,0-1.52.06c-.55,0-1.13.07-1.73.08s-1.21.16-1.84.2a16.94,16.94,0,0,0-1.85.33,4.13,4.13,0,0,0-.9.24l-.88.27c-.29.1-.55.25-.83.37a4.1,4.1,0,0,0-.8.4c-.25.16-.51.31-.77.45s-.46.37-.71.53a4.9,4.9,0,0,0-.68.56c-.21.2-.45.37-.64.58-.39.41-.79.81-1.11,1.22s-.63.8-.92,1.15-.52.68-.69,1l-.44.66Z" transform="translate(-238.36 -46.89)"/></g></g><g id="_Group_12" data-name="&lt;Group&gt;"><g id="_Group_13" data-name="&lt;Group&gt;"><circle id="_Path_14" data-name="&lt;Path&gt;" class="cls-5" cx="17.57" cy="77.08" r="17.53"/><g id="_Group_14" data-name="&lt;Group&gt;"><circle id="_Path_15" data-name="&lt;Path&gt;" class="cls-2" cx="17.57" cy="74.41" r="17.57"/><circle id="_Path_16" data-name="&lt;Path&gt;" class="cls-1" cx="18.85" cy="75.84" r="12.59"/><circle id="_Path_17" data-name="&lt;Path&gt;" class="cls-2" cx="11.02" cy="67.44" r="4.77"/><g id="_Group_15" data-name="&lt;Group&gt;"><path id="_Path_18" data-name="&lt;Path&gt;" class="cls-1" d="M256.78,105.09a18.49,18.49,0,0,1,12.65,5,17.57,17.57,0,0,0-31.07,11.24s0,0,0,.06A18.56,18.56,0,0,1,256.78,105.09Z" transform="translate(-238.36 -46.89)"/></g></g></g><g id="_Group_16" data-name="&lt;Group&gt;"><path id="_Path_19" data-name="&lt;Path&gt;" class="cls-1" d="M245.42,103.94a3.92,3.92,0,0,1,.1-1,7.3,7.3,0,0,1,.94-2.4,8.54,8.54,0,0,1,1.05-1.42,7.54,7.54,0,0,1,.72-.68,4.67,4.67,0,0,1,.84-.63c.3-.19.62-.38.95-.56s.7-.29,1.06-.41a4.75,4.75,0,0,1,1.12-.28c.38-.06.77-.14,1.16-.17l1.15,0a4.35,4.35,0,0,1,1.12.14c.36.08.71.16,1.06.26a4,4,0,0,1,1,.35,13.64,13.64,0,0,1,1.72.89c.49.36.94.71,1.34,1a6.28,6.28,0,0,1,1,1c.27.32.49.63.67.87a7.67,7.67,0,0,1,.52.81s-.37,0-1-.14c-.29-.06-.65-.12-1-.22a11.85,11.85,0,0,0-1.27-.29c-.46-.09-.94-.19-1.44-.32s-1-.15-1.53-.26-1-.08-1.55-.17a3.46,3.46,0,0,0-.77,0h-.76c-.25,0-.49.06-.74.08a3.41,3.41,0,0,0-.73.11c-.24.06-.48.11-.72.15s-.46.17-.69.23a4.15,4.15,0,0,0-.68.26c-.22.1-.45.17-.67.28-.42.22-.86.42-1.23.65s-.74.46-1.08.65-.62.4-.85.57Z" transform="translate(-238.36 -46.89)"/></g></g><g id="_Group_17" data-name="&lt;Group&gt;"><path id="_Path_20" data-name="&lt;Path&gt;" class="cls-1" d="M279.08,138.57a3.22,3.22,0,0,0,0-.5A8.1,8.1,0,0,0,279,137a4.77,4.77,0,0,1,0-1.81,3.32,3.32,0,0,1,.58-1.23,3.42,3.42,0,0,1,1.21-1,3.86,3.86,0,0,1,2.62-.24l.15,0a.71.71,0,0,1,.14,0l.25.1a3.62,3.62,0,0,1,.48.24,4.14,4.14,0,0,1,.73.56,4.59,4.59,0,0,1,.8,1.07,3.4,3.4,0,0,1,.22.48,4.75,4.75,0,0,1-.52,0c-.32,0-.76,0-1.22,0h-.69a3.25,3.25,0,0,0-.33,0h-.17s-.11,0-.08,0h-.07a3.58,3.58,0,0,0-1,.3c-.12,0-.24.14-.29.14a1.92,1.92,0,0,0-.34.34c-.25.33-.52.86-.84,1.31a3.07,3.07,0,0,1-1,1A1.35,1.35,0,0,1,279.08,138.57Z" transform="translate(-238.36 -46.89)"/></g></g><g id="_Group_18" data-name="&lt;Group&gt;"><path id="_Path_21" data-name="&lt;Path&gt;" class="cls-1" d="M297.65,177.39s17.62-24,34.17-8.38c0,0-7.88-.12-13,5.81S305.66,185.48,297.65,177.39Z" transform="translate(-238.36 -46.89)"/><path id="_Path_22" data-name="&lt;Path&gt;" class="cls-1" d="M297.65,177.39s13.61-2.45,16.6,11.56C314.24,188.94,296.77,192.75,297.65,177.39Z" transform="translate(-238.36 -46.89)"/></g></g></svg>