<svg id="Layer_1" data-name="Layer 1" xmlns="http://www.w3.org/2000/svg" xmlns:xlink="http://www.w3.org/1999/xlink" viewBox="0 0 117.44 163.49"><defs><style>.cls-1,.cls-2{fill:none;}.cls-2{stroke:#939598;stroke-miterlimit:10;}.cls-3{fill:#939598;}.cls-4{fill:#e6e7e8;}.cls-5{fill:#d1d3d4;}.cls-6{fill:#801277;}.cls-7{fill:#fff;}.cls-8{clip-path:url(#clip-path);}.cls-9{clip-path:url(#clip-path-2);}.cls-10{clip-path:url(#clip-path-3);}.cls-11{fill:#fefefe;}</style><clipPath id="clip-path" transform="translate(-226.33 -47.82)"><circle id="_Clipping_Path_" data-name="&lt;Clipping Path&gt;" class="cls-1" cx="261.11" cy="117.43" r="17.01"/></clipPath><clipPath id="clip-path-2" transform="translate(-226.33 -47.82)"><circle id="_Clipping_Path_2" data-name="&lt;Clipping Path&gt;" class="cls-2" cx="305.76" cy="117.43" r="17.01"/></clipPath><clipPath id="clip-path-3" transform="translate(-226.33 -47.82)"><path id="_Clipping_Path_3" data-name="&lt;Clipping Path&gt;" class="cls-1" d="M275.29,149a8.63,8.63,0,0,1-1.76-4.24,3.54,3.54,0,0,1,.17-1.84,3.5,3.5,0,0,1,2.92-1.76c2.24-.27,4.48.47,6.73.47s4.83-.8,7,.21a2.42,2.42,0,0,1,.73.49,2.55,2.55,0,0,1,.53,1c1,3.12-1.1,6.66-4.1,8s-6.53.88-9.6-.31c-1.33-.52-2.79-1.44-2.84-2.86"/></clipPath></defs><title>icon-discover</title><g id="_Group_" data-name="&lt;Group&gt;"><g id="_Group_2" data-name="&lt;Group&gt;"><g id="_Group_3" data-name="&lt;Group&gt;"><path id="_Compound_Path_" data-name="&lt;Compound Path&gt;" class="cls-3" d="M331.29,108.76l-1.62-3.47c-.54-1.12-1.33-2.41-2.21-4a51.34,51.34,0,0,0-3.59-5A41.88,41.88,0,0,0,311.37,86,45.59,45.59,0,0,0,307,84c-.77-.29-1.51-.65-2.32-.89l-2.43-.76a63.51,63.51,0,0,0-10.54-2c-.92-.14-1.88-.16-2.83-.25s-1.91-.15-2.89-.17l-2.79-.09c-1.06,0-2.12,0-3.2.05a11.15,11.15,0,0,0-1.49.09l-1.41.12c-.48,0-.94,0-1.44.12l-1.5.23c-1,.16-2,.26-3,.52l-1.52.32-.76.16-.75.21a54.78,54.78,0,0,0-12.09,4.63,50.29,50.29,0,0,0-11.25,8A44.89,44.89,0,0,0,236,105.72l-.87,1.65-.79,1.73c-.49,1.16-.94,2.31-1.36,3.51a42.72,42.72,0,0,0-1.84,7.34,33.93,33.93,0,0,0,.89,15c.16.61.38,1.2.6,1.79l.31.86.37.92c.5,1.27,1,2.37,1.55,3.54a68.82,68.82,0,0,0,3.75,6.74A83.14,83.14,0,0,0,248,160.93c.86.94,1.74,1.87,2.63,2.78l1.35,1.35c.46.46,1,1,1.48,1.5a20.06,20.06,0,0,1,3,3.93,14.34,14.34,0,0,1,1.12,2.53c.07.22.15.45.21.67l.15.58c0,.11,0,.11,0,.12l0,.1.11.29.72,1.78a3,3,0,0,0,.43.9,1.8,1.8,0,0,0,.92.67,2.69,2.69,0,0,0,.36.11l.29.07.26,0a10.87,10.87,0,0,0,1.33.14l.72,0,.84,0,1.93,0,15.19-.32c4.94-.12,9.88-.17,14.67-.18h3.58c.36,0,1.26,0,1.52,0s.82-.06,1.13-.11a3.07,3.07,0,0,0,1.05-.28,2.92,2.92,0,0,0,.8-.95,22.08,22.08,0,0,0,1.21-2.36c.43-1,.9-2.09,1.53-3.33a16.6,16.6,0,0,1,2.7-3.94c.39-.4.5-.5.72-.7l.6-.55,1.07-1a106.09,106.09,0,0,0,7.86-8.75c1.22-1.49,2.38-3,3.52-4.48l1.67-2.22.41-.55.2-.28.1-.14s.08-.12,0,0l0-.07.78-1.13.78-1.11.67-1c.45-.68.89-1.37,1.28-2.09a41.13,41.13,0,0,0,2.16-4.27,35.83,35.83,0,0,0,3.21-15.79,36.27,36.27,0,0,0-1.81-10.45c-.34-1.19-.74-2.05-.94-2.65l-.34-.9Zm.91-.4.37.91c.23.61.65,1.48,1,2.69a49.65,49.65,0,0,1,2.61,10.65l.23,1.82.13,1.93c.07.66.06,1.34.07,2s0,1.41,0,2.13a46.74,46.74,0,0,1-1.19,9.4A51.81,51.81,0,0,1,334,145c-.27.87-.61,1.74-1,2.64l-.54,1.35-.55,1.24-.57,1.25-.66,1.34-1.3,2.59q-1.33,2.63-2.92,5.3a70.84,70.84,0,0,1-7.68,10.67l-1.18,1.31-.56.6-.43.46a7.67,7.67,0,0,0-.89,1.58c-.34.76-.69,1.72-1.13,2.83a27,27,0,0,1-1.76,3.76,13.48,13.48,0,0,1-3.7,4.22,13,13,0,0,1-5.42,2.18,18.27,18.27,0,0,1-2.38.26c-.92.05-1.2,0-2,.06h-3.58c-4.81,0-9.68-.06-14.71-.18l-15.19-.36-1.93-.05-1.09,0q-.6,0-1.21-.09a20.08,20.08,0,0,1-2.51-.42l-.69-.18-.64-.2a11.73,11.73,0,0,1-1.45-.58,11.05,11.05,0,0,1-4.85-4.41,12.55,12.55,0,0,1-1.15-2.67l-.63-1.9-.19-.65-.1-.37-.08-.36-.08-.38c0-.09,0-.18-.06-.27a6.9,6.9,0,0,0-.38-1.11,12.48,12.48,0,0,0-1.6-2.5c-.35-.46-.73-.92-1.16-1.44l-1.3-1.59c-.85-1.08-1.7-2.16-2.52-3.27a88.93,88.93,0,0,1-8.44-14.23,76.28,76.28,0,0,1-3.11-7.65c-.46-1.28-.92-2.66-1.27-3.9l-.28-1-.27-1c-.18-.67-.34-1.35-.47-2a44.18,44.18,0,0,1-.26-16.38,59.05,59.05,0,0,1,1.89-7.83c.38-1.27.83-2.55,1.29-3.79L232,106l.8-1.83a60,60,0,0,1,8.07-13.58A51.25,51.25,0,0,1,265.7,73.17a36.13,36.13,0,0,1,3.57-1,29.47,29.47,0,0,1,3.58-.7l1.78-.27c.59-.09,1.23-.11,1.84-.16l1.84-.12a16.54,16.54,0,0,1,1.74,0c1.08,0,2.14,0,3.2.07h.37l.21,0,.42,0,.83.08,1.65.17a31.43,31.43,0,0,1,3.24.48c1.06.21,2.13.32,3.15.63a53.35,53.35,0,0,1,11.47,4.11,54.29,54.29,0,0,1,9.17,5.92,58.76,58.76,0,0,1,11.48,12.9c1.36,1.94,2.32,3.82,3.27,5.37l2.1,4.14,1.58,3.48Z" transform="translate(-226.33 -47.82)"/></g></g><g id="_Group_4" data-name="&lt;Group&gt;"><path id="_Path_" data-name="&lt;Path&gt;" class="cls-4" d="M328.39,149.93c7.94-13.25,9.38-27.17,3.36-41.38-9-21.21-25.43-32.23-48.34-33.17a51.63,51.63,0,0,0-11.24.77c-8.63,4.72-16.37,11.19-21.46,19.56-5.94,9.77-7.86,22.33-3.41,32.87,4.36,10.32,14.31,18.12,16.23,29.16.75,4.31.43,9.36,3.71,12.26,1.59,1.41,3.74,2,5.8,2.49,12.57,3.17,26.67,6.13,38.11.67a10.76,10.76,0,0,1,2.06-3.05C319.33,164.14,324,157.19,328.39,149.93Z" transform="translate(-226.33 -47.82)"/><path id="_Path_2" data-name="&lt;Path&gt;" class="cls-5" d="M273,172.49c-2.06-.52-4.21-1.08-5.8-2.49-3.28-2.89-3-8-3.71-12.26-1.92-11-11.86-18.84-16.23-29.16-4.45-10.54-2.53-23.1,3.41-32.87,5.09-8.37,12.83-14.84,21.46-19.56a52.19,52.19,0,0,0-38.65,30.64c-4.37,10.13-6.09,20.67-2.51,31.44,3.74,11.26,10.12,21,18.13,29.67,2,2.17,3.84,4.28,4.48,7.24a30.88,30.88,0,0,0,1.05,3.12,6.61,6.61,0,0,0,4.68,4.49,15.73,15.73,0,0,0,4.1.53c6.08.05,12.15,0,18.23,0h17.89c5.95,0,7.91-1.42,10.21-6.91.44-1.06.88-2.17,1.39-3.23C299.71,178.62,285.61,175.66,273,172.49Z" transform="translate(-226.33 -47.82)"/></g><path id="_Path_3" data-name="&lt;Path&gt;" class="cls-6" d="M298.25,191.73h-30.7c-4.56,0-4.7.14-4.65,4.64,0,2.36.6,2.94,3,2.94h16.3c5.61,0,11.22,0,16.82,0,2,0,2.6-.67,2.66-2.59,0-.52,0-1,0-1.56C301.68,192.26,301.16,191.73,298.25,191.73Z" transform="translate(-226.33 -47.82)"/><path id="_Path_4" data-name="&lt;Path&gt;" class="cls-3" d="M298.25,191.73h-30.7c-4.56,0-4.7.14-4.65,4.64,0,2.36.6,2.94,3,2.94h16.3c5.61,0,11.22,0,16.82,0,2,0,2.6-.67,2.66-2.59,0-.52,0-1,0-1.56C301.68,192.26,301.16,191.73,298.25,191.73Z" transform="translate(-226.33 -47.82)"/><path id="_Path_5" data-name="&lt;Path&gt;" class="cls-3" d="M282.69,211.3c5.65-.09,10.44-2.09,13.92-7.17H267.94C271.7,209.49,276.77,211.4,282.69,211.3Z" transform="translate(-226.33 -47.82)"/><g id="_Group_5" data-name="&lt;Group&gt;"><circle id="_Path_6" data-name="&lt;Path&gt;" class="cls-5" cx="34.77" cy="72.19" r="16.97"/><g id="_Group_6" data-name="&lt;Group&gt;"><circle id="_Path_7" data-name="&lt;Path&gt;" class="cls-7" cx="34.77" cy="69.61" r="17.01"/><g id="_Group_7" data-name="&lt;Group&gt;"><g id="_Group_8" data-name="&lt;Group&gt;"><path id="_Compound_Path_2" data-name="&lt;Compound Path&gt;" class="cls-3" d="M278.27,117.43l-.05,1.2a11.29,11.29,0,0,1-.14,1.45c0,.28-.06.6-.12.92l-.21,1a19.89,19.89,0,0,1-1.87,5.06,16.69,16.69,0,0,1-4.65,5.46,16,16,0,0,1-8,3.07c-.38,0-.77,0-1.16,0a11.65,11.65,0,0,1-1.22,0,17.78,17.78,0,0,1-2.29-.32,16.93,16.93,0,0,1-4.61-1.65,21,21,0,0,1-4.05-2.83,22.5,22.5,0,0,1-3.28-3.79,21.07,21.07,0,0,1-2.26-4.56,18.35,18.35,0,0,1-.66-2.5,17.58,17.58,0,0,1,.12-7.85,18,18,0,0,1,2.08-4.88,19.41,19.41,0,0,1,3.42-4,18.81,18.81,0,0,1,4.34-2.82A16.83,16.83,0,0,1,258.4,99a17.42,17.42,0,0,1,2.43-.21h.38l.27,0,.55,0c.37,0,.7,0,1.1.1a18.3,18.3,0,0,1,2.34.46l1.09.3c.35.12.69.28,1,.41a16.27,16.27,0,0,1,3.66,2.09,17.5,17.5,0,0,1,4.63,5.51,19.84,19.84,0,0,1,1.87,5.07l.21,1c.05.33.07.64.11.92a11.14,11.14,0,0,1,.13,1.45l0,1.21Zm-.3,0-.07-1.19a8.47,8.47,0,0,0-.19-1.41,10.86,10.86,0,0,0-.49-1.86,13.91,13.91,0,0,0-2.44-4.49,17,17,0,0,0-4.92-4.14,19.83,19.83,0,0,0-3.29-1.44,16.89,16.89,0,0,0-3.64-.8c-.3,0-.7,0-1.05-.05l-.55,0h-.45a15.9,15.9,0,0,0-2,.17,16.59,16.59,0,0,0-4,1.11,16.77,16.77,0,0,0-3.73,2.2,17.34,17.34,0,0,0-3.08,3.25,18.76,18.76,0,0,0-2.14,4.06,17.37,17.37,0,0,0-1,4.65,16.73,16.73,0,0,0,.45,4.73,15.82,15.82,0,0,0,2,4.38,15.26,15.26,0,0,0,3.21,3.47,15.1,15.1,0,0,0,4,2.19,16,16,0,0,0,4.22.89,17.51,17.51,0,0,0,2.16.06c.59,0,1.33-.09,2-.17a20.07,20.07,0,0,0,7-2.43,18,18,0,0,0,4.9-4.19,13.89,13.89,0,0,0,2.44-4.5,10.76,10.76,0,0,0,.48-1.86,8.34,8.34,0,0,0,.19-1.41l.07-1.2Z" transform="translate(-226.33 -47.82)"/></g></g><g id="_Clip_Group_" data-name="&lt;Clip Group&gt;"><g class="cls-8"><circle id="_Path_8" data-name="&lt;Path&gt;" class="cls-3" cx="29.59" cy="62.73" r="16.01"/></g></g></g></g><g id="_Group_9" data-name="&lt;Group&gt;"><circle id="_Path_9" data-name="&lt;Path&gt;" class="cls-5" cx="79.42" cy="72.19" r="16.97"/><g id="_Group_10" data-name="&lt;Group&gt;"><circle id="_Path_10" data-name="&lt;Path&gt;" class="cls-7" cx="79.42" cy="69.61" r="17.01"/><circle id="_Path_11" data-name="&lt;Path&gt;" class="cls-6" cx="79.42" cy="69.61" r="13.43"/><g id="_Group_11" data-name="&lt;Group&gt;"><g id="_Group_12" data-name="&lt;Group&gt;"><path id="_Compound_Path_3" data-name="&lt;Compound Path&gt;" class="cls-3" d="M322.92,117.43l-.05,1.2a11.29,11.29,0,0,1-.14,1.45c0,.28-.06.6-.12.92l-.21,1a19.9,19.9,0,0,1-1.87,5.06,16.69,16.69,0,0,1-4.65,5.46,16,16,0,0,1-8,3.07c-.38,0-.77,0-1.16,0a11.65,11.65,0,0,1-1.22,0,17.78,17.78,0,0,1-2.29-.32,16.93,16.93,0,0,1-4.61-1.65,21,21,0,0,1-4.05-2.83,22.51,22.51,0,0,1-3.28-3.79,19.61,19.61,0,0,1-3.28-9.66,20.12,20.12,0,0,1,.06-2.61,18.51,18.51,0,0,1,.42-2.65,18,18,0,0,1,2.08-4.88,19.42,19.42,0,0,1,3.42-4,18.81,18.81,0,0,1,4.34-2.82A16.83,16.83,0,0,1,303.05,99a17.42,17.42,0,0,1,2.43-.21h.38l.27,0,.55,0c.37,0,.7,0,1.1.1a18.29,18.29,0,0,1,2.34.46l1.09.3c.35.12.69.28,1,.41a16.27,16.27,0,0,1,3.66,2.09,17.5,17.5,0,0,1,4.63,5.51,19.84,19.84,0,0,1,1.87,5.07l.21,1c.05.33.07.64.11.92a11.12,11.12,0,0,1,.13,1.45l0,1.21Zm-.3,0-.07-1.19a8.46,8.46,0,0,0-.19-1.41,10.84,10.84,0,0,0-.49-1.86,13.91,13.91,0,0,0-2.44-4.49,17,17,0,0,0-4.92-4.14,19.83,19.83,0,0,0-3.29-1.44,16.89,16.89,0,0,0-3.64-.8c-.3,0-.7,0-1.05-.05l-.55,0h-.45a15.9,15.9,0,0,0-2,.17,16.59,16.59,0,0,0-4,1.11,16.78,16.78,0,0,0-3.73,2.2,17.34,17.34,0,0,0-3.08,3.25,18.76,18.76,0,0,0-2.14,4.06,17,17,0,0,0-.64,2.23,18.35,18.35,0,0,0-.35,2.38,16.73,16.73,0,0,0,.45,4.77,15.82,15.82,0,0,0,2,4.38,15.26,15.26,0,0,0,3.21,3.47,15.1,15.1,0,0,0,4,2.19,16,16,0,0,0,4.22.89,17.51,17.51,0,0,0,2.16.06c.59,0,1.33-.09,2-.17a20.07,20.07,0,0,0,7-2.43,18,18,0,0,0,4.9-4.19,13.89,13.89,0,0,0,2.44-4.5,10.77,10.77,0,0,0,.48-1.86,8.36,8.36,0,0,0,.19-1.41l.07-1.2Z" transform="translate(-226.33 -47.82)"/></g></g></g><g id="_Group_13" data-name="&lt;Group&gt;"><circle id="_Path_12" data-name="&lt;Path&gt;" class="cls-7" cx="79.42" cy="69.61" r="17.01"/><g id="_Clip_Group_2" data-name="&lt;Clip Group&gt;"><g class="cls-9"><circle id="_Path_13" data-name="&lt;Path&gt;" class="cls-3" cx="74.24" cy="62.73" r="16.01"/></g><circle id="_Clipping_Path_4" data-name="&lt;Clipping Path&gt;" class="cls-2" cx="79.42" cy="69.61" r="17.01"/></g></g></g><g id="_Group_14" data-name="&lt;Group&gt;"><path id="_Path_14" data-name="&lt;Path&gt;" class="cls-3" d="M241.09,105a2.88,2.88,0,0,1,.26.17c.16.13.36.24.57.4a16.42,16.42,0,0,1,1.35,1,15.48,15.48,0,0,1,1.23,1.16l.49.5.21.23a1.94,1.94,0,0,1-.28.16,2.08,2.08,0,0,1-.77.2,3.1,3.1,0,0,1-3.25-2.77,2,2,0,0,1,.07-.79A2.89,2.89,0,0,1,241.09,105Z" transform="translate(-226.33 -47.82)"/></g><g id="_Group_15" data-name="&lt;Group&gt;"><path id="_Path_15" data-name="&lt;Path&gt;" class="cls-3" d="M239.92,111l.28-.09c.18,0,.39-.11.64-.16a6.84,6.84,0,0,1,1.57-.17,6.64,6.64,0,0,1,1.56.21,7.84,7.84,0,0,1,.91.27,2,2,0,0,1-.58.83,2.89,2.89,0,0,1-3.81-.05,2,2,0,0,1-.45-.57A2.66,2.66,0,0,1,239.92,111Z" transform="translate(-226.33 -47.82)"/></g><g id="_Group_16" data-name="&lt;Group&gt;"><path id="_Path_16" data-name="&lt;Path&gt;" class="cls-3" d="M238.86,115.34a7.7,7.7,0,0,1,1.11-.16c.62-.07,1.3-.07,1.9-.12l.43,0,.43-.06c.29,0,.56-.09.83-.15a5.41,5.41,0,0,0,1-.36,1.72,1.72,0,0,1,0,.35,1.82,1.82,0,0,1-.26.87,2.55,2.55,0,0,1-.9.92,3,3,0,0,1-.67.31,3.58,3.58,0,0,1-.74.15,3.38,3.38,0,0,1-2.42-.79A2.75,2.75,0,0,1,238.86,115.34Z" transform="translate(-226.33 -47.82)"/></g><g id="_Group_17" data-name="&lt;Group&gt;"><path id="_Path_17" data-name="&lt;Path&gt;" class="cls-3" d="M318.88,106.52s.5-.15,1-.35l.8-.34.39-.19c.13-.07.24-.12.39-.2l.41-.22.46-.24a4.85,4.85,0,0,1,1-.38,2.36,2.36,0,0,1,1.18,0s-.21.46-.5,1a4.48,4.48,0,0,1-.59.85,3.5,3.5,0,0,1-.45.43,3.61,3.61,0,0,1-.59.39,3.2,3.2,0,0,1-.69.26,2.82,2.82,0,0,1-.71.09,2.64,2.64,0,0,1-1.21-.26,2.16,2.16,0,0,1-.7-.51A1.51,1.51,0,0,1,318.88,106.52Z" transform="translate(-226.33 -47.82)"/></g><g id="_Group_18" data-name="&lt;Group&gt;"><path id="_Path_18" data-name="&lt;Path&gt;" class="cls-3" d="M320.41,108.54l.29-.11c.19-.05.4-.14.66-.21a9.32,9.32,0,0,1,1.65-.34,9,9,0,0,1,1.68,0c.26,0,.51,0,.69.06l.3,0a2.11,2.11,0,0,1-.51.94,3.11,3.11,0,0,1-4.05.44,2,2,0,0,1-.54-.54A2.77,2.77,0,0,1,320.41,108.54Z" transform="translate(-226.33 -47.82)"/></g><g id="_Group_19" data-name="&lt;Group&gt;"><path id="_Path_19" data-name="&lt;Path&gt;" class="cls-3" d="M321.29,110.57l.27,0c.17,0,.37,0,.6,0a4,4,0,0,1,1.37.25,3.9,3.9,0,0,1,1.19.73,5.39,5.39,0,0,1,.62.62,1.93,1.93,0,0,1-.76.52,2.47,2.47,0,0,1-3.08-1.18A1.81,1.81,0,0,1,321.29,110.57Z" transform="translate(-226.33 -47.82)"/></g><circle id="_Path_20" data-name="&lt;Path&gt;" class="cls-7" cx="40.89" cy="72.19" r="3.48"/><circle id="_Path_21" data-name="&lt;Path&gt;" class="cls-7" cx="86.71" cy="70.12" r="3.48"/><g id="_Clip_Group_3" data-name="&lt;Clip Group&gt;"><g class="cls-10"><path id="_Path_22" data-name="&lt;Path&gt;" class="cls-3" d="M275.29,149a8.63,8.63,0,0,1-1.76-4.24,3.54,3.54,0,0,1,.17-1.84,3.5,3.5,0,0,1,2.92-1.76c2.24-.27,4.48.47,6.73.47s4.83-.8,7,.21a2.42,2.42,0,0,1,.73.49,2.55,2.55,0,0,1,.53,1c1,3.12-1.1,6.66-4.1,8s-6.53.88-9.6-.31c-1.33-.52-2.79-1.44-2.84-2.86" transform="translate(-226.33 -47.82)"/><path id="_Path_23" data-name="&lt;Path&gt;" class="cls-11" d="M277.41,137.7a11.91,11.91,0,0,0-2.08,2.28,1.92,1.92,0,0,0-.45,1.19,2.07,2.07,0,0,0,.46,1,9.51,9.51,0,0,0,3,3.12,8.7,8.7,0,0,0,3.07.8,9.32,9.32,0,0,0,4.65-.28,10.22,10.22,0,0,0,3.58-3c.6-.68,1.24-1.59.87-2.42a2,2,0,0,0-.81-.81,11.49,11.49,0,0,0-4.73-1.28l-5-.61c-1.47-.18-3.1-.32-4.3.55" transform="translate(-226.33 -47.82)"/></g></g><g id="_Group_20" data-name="&lt;Group&gt;"><path id="_Path_24" data-name="&lt;Path&gt;" class="cls-3" d="M226.33,82.41a3.68,3.68,0,0,1,.49.09,9.94,9.94,0,0,1,1.12.35,10.39,10.39,0,0,1,2.7,1.6,10.23,10.23,0,0,1,2.1,2.33,9.26,9.26,0,0,1,.57,1,4,4,0,0,1,.19.46,3.39,3.39,0,0,1-.5,0,5.63,5.63,0,0,1-1.21-.09,7.09,7.09,0,0,1-5.08-4.17,5.5,5.5,0,0,1-.33-1.17A3.69,3.69,0,0,1,226.33,82.41Z" transform="translate(-226.33 -47.82)"/></g><g id="_Group_21" data-name="&lt;Group&gt;"><path id="_Path_25" data-name="&lt;Path&gt;" class="cls-3" d="M244.58,57.48A6.28,6.28,0,0,1,245,58c.25.37.56.85.92,1.45a42.54,42.54,0,0,1,2.16,4.37,41.5,41.5,0,0,1,1.69,4.57c.19.67.33,1.25.42,1.67a6.72,6.72,0,0,1,.12.68,5.78,5.78,0,0,1-.61-.34,9.46,9.46,0,0,1-1.4-1.09,11.86,11.86,0,0,1-1.61-1.86,12.41,12.41,0,0,1-.73-1.17c-.24-.41-.43-.84-.63-1.27a14.62,14.62,0,0,1-.84-2.67,12,12,0,0,1-.24-2.45,9.3,9.3,0,0,1,.17-1.77A6.28,6.28,0,0,1,244.58,57.48Z" transform="translate(-226.33 -47.82)"/></g><g id="_Group_22" data-name="&lt;Group&gt;"><path id="_Path_26" data-name="&lt;Path&gt;" class="cls-3" d="M282.89,47.82a6.12,6.12,0,0,1,.32.61,12.08,12.08,0,0,1,.61,1.62,17.37,17.37,0,0,1-.16,9.92,12.06,12.06,0,0,1-.67,1.6,5.94,5.94,0,0,1-.34.6,6.16,6.16,0,0,1-.26-.63,15,15,0,0,1-.47-1.65,21.33,21.33,0,0,1-.46-4.91,21.6,21.6,0,0,1,.63-4.89,15.31,15.31,0,0,1,.53-1.63A6.13,6.13,0,0,1,282.89,47.82Z" transform="translate(-226.33 -47.82)"/></g><g id="_Group_23" data-name="&lt;Group&gt;"><path id="_Path_27" data-name="&lt;Path&gt;" class="cls-3" d="M322.37,63.21a3.72,3.72,0,0,1,.09.49,5,5,0,0,1,0,1.23,6,6,0,0,1-.44,1.59,6.83,6.83,0,0,1-2.3,2.86,6,6,0,0,1-1.46.77,5.14,5.14,0,0,1-1.2.27,3.27,3.27,0,0,1-.5,0,4.16,4.16,0,0,1,.13-.48,11.54,11.54,0,0,1,.41-1.1,12.16,12.16,0,0,1,1.63-2.63,12.39,12.39,0,0,1,2.22-2.15c.38-.27.71-.48,1-.64A3.71,3.71,0,0,1,322.37,63.21Z" transform="translate(-226.33 -47.82)"/></g><g id="_Group_24" data-name="&lt;Group&gt;"><path id="_Path_28" data-name="&lt;Path&gt;" class="cls-3" d="M343.77,83.88a5.26,5.26,0,0,1-.35.52,12.25,12.25,0,0,1-1,1.18,16.55,16.55,0,0,1-3.52,2.68,16.36,16.36,0,0,1-4.09,1.68,12,12,0,0,1-1.53.27,5.27,5.27,0,0,1-.63,0,5.13,5.13,0,0,1,.31-.54,10.37,10.37,0,0,1,.94-1.25,14.54,14.54,0,0,1,7.7-4.4,10.41,10.41,0,0,1,1.55-.18A5.26,5.26,0,0,1,343.77,83.88Z" transform="translate(-226.33 -47.82)"/></g></g></svg>