<svg id="Layer_1" data-name="Layer 1" xmlns="http://www.w3.org/2000/svg" viewBox="0 0 124.43 130.64"><defs><style>.cls-1{fill:#939598;}.cls-2{fill:#d1d3d4;}.cls-3{fill:#e6e7e8;}</style></defs><title>icon-toys</title><g id="_Group_" data-name="&lt;Group&gt;"><g id="_Group_2" data-name="&lt;Group&gt;"><g id="_Group_3" data-name="&lt;Group&gt;"><path id="_Compound_Path_" data-name="&lt;Compound Path&gt;" class="cls-1" d="M347.5,130.35l0,1.09c0,.72,0,1.78-.12,3.19a72.82,72.82,0,0,1-8.46,30,64.18,64.18,0,0,1-6.76,10,58.78,58.78,0,0,1-9.82,9.33,56.27,56.27,0,0,1-28.51,10.85c-1.36.14-2.74.17-4.13.24l-2.08,0h-1.4l-.24,0-.49,0-2-.15c-.67-.06-1.43-.17-2.14-.25-1.47-.15-2.84-.43-4.25-.68a58.77,58.77,0,0,1-8.29-2.32c-1.37-.45-2.7-1-4-1.58s-2.65-1.19-3.93-1.9a69.06,69.06,0,0,1-14.41-10,73.29,73.29,0,0,1-11.68-13.43,68.84,68.84,0,0,1-11.58-34.32c0-1.65-.14-3-.07-4.63s.13-3.17.25-4.73a59.47,59.47,0,0,1,4.58-18.23A63.8,63.8,0,0,1,259.8,70.23a57.36,57.36,0,0,1,8.42-3.2,61.54,61.54,0,0,1,8.63-1.92c1.45-.18,2.89-.39,4.33-.47s2.87-.18,4.3-.19h1.19l1,0,1.95.07c1.42.12,2.93.21,4.3.4s2.74.37,4.08.67,2.66.57,4,.91,2.57.76,3.84,1.13,2.48.89,3.69,1.38a58.34,58.34,0,0,1,13,7.42,60,60,0,0,1,9.78,9.44,65.12,65.12,0,0,1,6.75,10,70.42,70.42,0,0,1,6.72,18A68.86,68.86,0,0,1,347.38,126c.12,1.4.08,2.48.11,3.21l0,1.1Zm-1,0,0-1.08c0-.71,0-1.77-.17-3.15a49.33,49.33,0,0,0-2.37-11.67,51.18,51.18,0,0,0-8.7-16,56.79,56.79,0,0,0-7.67-8,61.28,61.28,0,0,0-9.82-6.93,62.6,62.6,0,0,0-25-8.1c-1.17-.13-2.23-.16-3.39-.24l-1.95,0h-1l-.77,0a57.8,57.8,0,0,0-7.23.59,58.64,58.64,0,0,0-7.24,1.52c-1.21.31-2.39.73-3.6,1.1s-2.39.83-3.55,1.36A56.91,56.91,0,0,0,239.68,99.3a61.68,61.68,0,0,0-7.6,14.56,59.7,59.7,0,0,0-2.32,8.06c-.26,1.38-.54,2.78-.7,4.13s-.29,3-.43,4.28a63.34,63.34,0,0,0,.14,8.56,52.55,52.55,0,0,0,4.36,16.57,53,53,0,0,0,9.36,14.23A51.77,51.77,0,0,0,263,183.26a58.31,58.31,0,0,0,15.18,3.3c1.26.08,2.52.2,3.71.19.61,0,1.17,0,1.81,0l2,0h.86c.07,0-.12,0,0,0l.91-.06,1.81-.12c1.2-.14,2.39-.22,3.56-.4a67.32,67.32,0,0,0,13.36-3.28,71.28,71.28,0,0,0,11.69-5.49,63,63,0,0,0,9.79-7,57.7,57.7,0,0,0,7.65-8A51.17,51.17,0,0,0,344,146.26a48.78,48.78,0,0,0,2.33-11.68c.14-1.36.12-2.45.15-3.16l0-1.09Z" transform="translate(-223.07 -64.45)"/></g></g><g id="_Group_4" data-name="&lt;Group&gt;"><g id="_Group_5" data-name="&lt;Group&gt;"><path id="_Compound_Path_2" data-name="&lt;Compound Path&gt;" class="cls-2" d="M287.28,68a60.23,60.23,0,1,1-60.61,61.7A60.07,60.07,0,0,1,287.28,68Zm11.77,63.56-.29-.09c0-.57,0-1.14.11-1.7a100,100,0,0,0-1.32-29.63c-.34-1.79-1.13-2.62-2.84-2.78-3.79-.36-7.57-1-11.36-1.06-5.18-.09-10.36.24-15.54.42-1.23,0-2.45.17-3.89.27C272,89.18,282.18,85.46,292,81.12a15.38,15.38,0,0,0-7-9.27,5.06,5.06,0,0,0-3.31-.78,58,58,0,0,0-37,18.24,3.58,3.58,0,0,0-1,2.56,64.86,64.86,0,0,0,1.62,15.53,58.46,58.46,0,0,0,18.59,31.81c8.62,7.58,18.7,12.26,29.8,14.89a71.78,71.78,0,0,0,26.67,1.66,45.55,45.55,0,0,0,19.88-7.39,2.69,2.69,0,0,0,.95-1.24A56.15,56.15,0,0,0,343.79,121a57.31,57.31,0,0,0-13.53-30.3c-.5-.58-1-1.13-1.56-1.69L326.54,93a72.84,72.84,0,0,1,8.8,15.4,78.43,78.43,0,0,1,5,17.17c-6.5-7.72-13.61-14.68-22.68-19.19Zm15.25,47-.8.19c-2.46.49-4.89,1.12-7.37,1.43A68.57,68.57,0,0,1,279.51,178a75.88,75.88,0,0,1-27.27-13.13,58.31,58.31,0,0,1-20.76-30.8c-.79-2.77-1.31-5.62-1.92-8.3-1.14,15.64,5.7,37.67,26.23,50.89A57.23,57.23,0,0,0,314.3,178.63ZM296.7,71.81l.82.38c3.43,1.56,7,2.95,10.25,4.76,2.15,1.18,4.3,1,6.52,1A49.76,49.76,0,0,0,296.7,71.81Z" transform="translate(-223.07 -64.45)"/><path id="_Path_" data-name="&lt;Path&gt;" class="cls-3" d="M299.05,131.6l18.64-25.17c9.06,4.5,16.18,11.47,22.68,19.19a78.43,78.43,0,0,0-5-17.17,72.84,72.84,0,0,0-8.8-15.4L328.7,89c.53.57,1.07,1.11,1.56,1.69A57.31,57.31,0,0,1,343.79,121a56.15,56.15,0,0,1-2.69,26.18,2.69,2.69,0,0,1-.95,1.24,45.55,45.55,0,0,1-19.88,7.39,71.78,71.78,0,0,1-26.67-1.66c-11.1-2.63-21.19-7.31-29.8-14.89A58.46,58.46,0,0,1,245.2,107.4a64.86,64.86,0,0,1-1.62-15.53,3.58,3.58,0,0,1,1-2.56,58,58,0,0,1,37-18.24,5.06,5.06,0,0,1,3.31.78,15.38,15.38,0,0,1,7,9.27C282.18,85.46,272,89.18,263.92,97c1.44-.1,2.66-.23,3.89-.27,5.18-.17,10.36-.51,15.54-.42,3.79.06,7.58.7,11.36,1.06,1.71.16,2.5,1,2.84,2.78a100,100,0,0,1,1.32,29.63c-.06.57-.07,1.14-.11,1.7Z" transform="translate(-223.07 -64.45)"/><path id="_Path_2" data-name="&lt;Path&gt;" class="cls-3" d="M314.3,178.63a57.23,57.23,0,0,1-58.5-2c-20.52-13.22-27.37-35.25-26.23-50.89.61,2.68,1.13,5.53,1.92,8.3a58.31,58.31,0,0,0,20.76,30.8A75.88,75.88,0,0,0,279.51,178a68.57,68.57,0,0,0,26.62,2.24c2.48-.31,4.91-.94,7.37-1.43Z" transform="translate(-223.07 -64.45)"/><path id="_Path_3" data-name="&lt;Path&gt;" class="cls-3" d="M296.7,71.81a49.76,49.76,0,0,1,17.59,6.11c-2.22,0-4.36.21-6.52-1-3.3-1.81-6.82-3.19-10.25-4.76Z" transform="translate(-223.07 -64.45)"/></g></g></g></svg>