<svg id="Layer_1" data-name="Layer 1" xmlns="http://www.w3.org/2000/svg" xmlns:xlink="http://www.w3.org/1999/xlink" viewBox="0 0 96.05 151.99"><defs><style>.cls-1{fill:none;}.cls-2{fill:#801277;}.cls-3{fill:#fff;}.cls-4{fill:#ffce00;}.cls-5{fill:#eabf0a;}.cls-6{fill:#fa0;}.cls-7{clip-path:url(#clip-path);}.cls-8{fill:#ec6b6b;}</style><clipPath id="clip-path" transform="translate(-237.68 -47.17)"><path id="_Clipping_Path_" data-name="&lt;Clipping Path&gt;" class="cls-1" d="M276,170.11a19.25,19.25,0,0,0,6-5.24,36.66,36.66,0,0,0,6.67-13.73,9,9,0,0,0,.19-4.74c-1.29-4.19-5.39-3.07-8.73-3-7.2.1-12-4.6-13.8-4.54-5.18.17,1.23,10.18,1.86,12.17a18.55,18.55,0,0,1-.43,12.31c-.84,2.13-2,4.7-.59,6.48a4.12,4.12,0,0,0,2.27,1.28A9.23,9.23,0,0,0,276,170.11Z"/></clipPath></defs><title>Untitled-13</title><g id="_Group_" data-name="&lt;Group&gt;"><g id="_Group_2" data-name="&lt;Group&gt;"><g id="_Group_3" data-name="&lt;Group&gt;"><path id="_Compound_Path_" data-name="&lt;Compound Path&gt;" class="cls-2" d="M313.43,85.27q-3.32-1.47-6.57-3.05c-1.13-.55-2.27-1.07-3.39-1.64l-3.36-1.68c-2.25-1.11-4.47-2.27-6.68-3.43s-4.45-2.3-6.64-3.5-4.4-2.38-6.59-3.59-4.37-2.43-6.55-3.66q-6.52-3.69-13-7.51l6.25-1.9c-.81,1.9-1.65,3.79-2.48,5.68s-1.65,3.78-2.52,5.66-1.71,3.76-2.6,5.62-1.8,3.72-2.7,5.57-1.84,3.7-2.81,5.52l-2.89,5.49L245,99.75l0-2.24c.58,1.74,1.05,3.39,1.56,5.08s1,3.37,1.41,5.06l1.3,5.07,1.23,5.08c.38,1.7.79,3.39,1.14,5.1s.74,3.4,1,5.12.64,3.43.93,5.15.55,3.45.74,5.19.41,3.48.58,5.23l.17,2.64c.05.88.05,1.77.1,2.65s0,1.77,0,2.66,0,1.78-.07,2.68-.1,1.79-.18,2.69l-.31,2.7a44.69,44.69,0,0,1-1.14,5.4,22.2,22.2,0,0,1-.85,2.67l-.48,1.33c-.18.44-.4.86-.6,1.3a21,21,0,0,1-1.33,2.56l-.76,1.24a8.78,8.78,0,0,1-.83,1.21c-.61.76-1.18,1.58-1.85,2.3l-2.1,2.11.88-4.79c.35.49.85,1.17,1.31,1.75s1,1.19,1.47,1.77c1,1.16,2.09,2.25,3.19,3.29a32.92,32.92,0,0,0,7.06,5.26,22.76,22.76,0,0,0,3.78,1.66,17.16,17.16,0,0,0,3.84.76,16.32,16.32,0,0,0,3.8-.14c.62-.15,1.25-.25,1.87-.44s1.24-.35,1.85-.65a26.13,26.13,0,0,0,7-4.42c1.08-1,2.18-2,3.19-3.08l.78-.81.39-.4,0,0-.11.12.05-.06.1-.12.2-.24,1.61-1.92.4-.48.31-.44.62-.87c.42-.59.86-1.09,1.26-1.77.83-1.28,1.69-2.54,2.42-3.91a85.4,85.4,0,0,0,4.26-8.35c1.27-2.9,2.48-5.85,3.53-8.88l.82-2.27.75-2.3c.52-1.53,1-3.09,1.42-4.64.9-3.12,1.7-6.27,2.5-9.44s1.49-6.38,2.1-9.6,1.28-6.46,1.84-9.71,1.1-6.52,1.58-9.8,1-6.57,1.36-9.88S313.09,88.5,313.43,85.27Zm1-.31c.44,3.35.72,6.7.93,10.06s.32,6.73.33,10.1,0,6.75-.16,10.13-.36,6.76-.65,10.14-.74,6.75-1.21,10.12q-.37,2.53-.8,5.06c-.34,1.68-.63,3.36-1,5s-.72,3.35-1.16,5l-.63,2.51-.71,2.5c-1,3.33-2.13,6.61-3.38,9.89a88.18,88.18,0,0,1-4.58,9.59c-.84,1.57-1.85,3.08-2.82,4.6-.45.75-1.09,1.54-1.64,2.31l-.86,1.15-.43.57-.41.48-1.64,1.89-.55.62-.48.49-1,1a50.59,50.59,0,0,1-4.15,3.7,36.23,36.23,0,0,1-10.11,5.73,29.93,29.93,0,0,1-2.91.87c-1,.23-2,.37-3,.53a26,26,0,0,1-6.18-.1,26.64,26.64,0,0,1-5.88-1.49,32,32,0,0,1-5.24-2.62,35.25,35.25,0,0,1-4.55-3.37,43.59,43.59,0,0,1-3.95-3.85,46.25,46.25,0,0,1-3.4-4.23q-.79-1.1-1.52-2.24c-.5-.78-.94-1.49-1.45-2.42l-1.57-2.86,2.45-1.93,1.73-1.36c.57-.47,1.05-1,1.6-1.55a5.56,5.56,0,0,0,.75-.84l.71-.89a15.36,15.36,0,0,0,1.3-1.89c.2-.33.43-.65.62-1l.53-1a17.47,17.47,0,0,0,1-2.15,38.7,38.7,0,0,0,1.55-4.58l.57-2.4c.18-.81.28-1.63.42-2.45s.21-1.65.3-2.48.18-1.66.21-2.5c.14-1.68.1-3.36.09-5.05s-.11-3.38-.26-5.07-.36-3.38-.58-5.07-.53-3.37-.87-5q-1-5-2.45-9.94c-1-3.27-2.09-6.51-3.36-9.68-.63-1.58-1.28-3.16-2-4.72s-1.41-3.12-2.13-4.58l-.46-.92.49-1.32,4.33-11.63L246.49,80c.73-1.93,1.54-3.84,2.31-5.75s1.59-3.81,2.43-5.7,1.66-3.78,2.52-5.66,1.74-3.75,2.61-5.62,1.75-3.74,2.65-5.6l2.19-4.52,4.06,2.61q6.3,4.06,12.53,8.23c2.07,1.4,4.15,2.79,6.2,4.21s4.12,2.84,6.16,4.28,4.07,2.91,6.11,4.37,4.07,2.92,6.07,4.44l3,2.25c1,.74,2,1.53,3,2.29q3,2.29,5.91,4.69l.2.17Z" transform="translate(-237.68 -47.17)"/></g><g id="_Group_4" data-name="&lt;Group&gt;"><g id="_Group_5" data-name="&lt;Group&gt;"><path id="_Path_" data-name="&lt;Path&gt;" class="cls-3" d="M281.28,64.8c-8.91,8.69-19,6.7-25.29,4L242.47,98.59s12,15.6,23,0c0,0,13.18,18.2,23.74-2.09,0,0,17.26,8.46,24.76-11.52Z" transform="translate(-237.68 -47.17)"/><path id="_Path_2" data-name="&lt;Path&gt;" class="cls-2" d="M281.28,64.8,263,53.49l-7,15.34C262.26,71.5,272.37,73.48,281.28,64.8Z" transform="translate(-237.68 -47.17)"/></g><polygon id="_Path_3" data-name="&lt;Path&gt;" class="cls-1" points="57.55 50.97 57.55 50.97 57.55 50.97 57.55 50.97"/><path id="_Path_4" data-name="&lt;Path&gt;" class="cls-4" d="M295.23,98.14h0c-12.07,18.65-25,5.14-25,5.14-7.11,16.45-14.2,10.81-14.2,10.81,25.69,49.27-10.36,52.07,2.64,69S291,181,291,181c16.74-20.4,21.31-58,22.54-79.6C305.12,101.62,295.23,98.14,295.23,98.14Z" transform="translate(-237.68 -47.17)"/><path id="_Path_5" data-name="&lt;Path&gt;" class="cls-5" d="M270.19,103.28s13,13.51,25-5.14a20.59,20.59,0,0,1-6-1.64C282.6,109.18,275,106.83,270.19,103.28Z" transform="translate(-237.68 -47.17)"/><path id="_Path_6" data-name="&lt;Path&gt;" class="cls-5" d="M258.63,183.07c-13-16.91,23-19.72-2.64-69,0,0,7.09,5.64,14.2-10.81a24.4,24.4,0,0,1-4.73-4.69c-11,15.6-23,0-23,0s24.5,58.57,0,78.24c0,0,20.47,34.82,46.74,6.24.62-.67,1.22-1.38,1.81-2.09C291,181,271.63,200,258.63,183.07Z" transform="translate(-237.68 -47.17)"/><path id="_Path_7" data-name="&lt;Path&gt;" class="cls-5" d="M314,85c-4.64,12.37-13,13.84-18.74,13.16,0,0,9.89,3.49,18.32,3.24C314.11,91.5,314,85,314,85Z" transform="translate(-237.68 -47.17)"/></g><g id="_Group_6" data-name="&lt;Group&gt;"><g id="_Group_7" data-name="&lt;Group&gt;"><circle id="_Path_8" data-name="&lt;Path&gt;" class="cls-5" cx="70.8" cy="76.26" r="20.54"/><g id="_Group_8" data-name="&lt;Group&gt;"><circle id="_Path_9" data-name="&lt;Path&gt;" class="cls-3" cx="70.8" cy="73.13" r="20.58"/><circle id="_Path_10" data-name="&lt;Path&gt;" class="cls-2" cx="72.3" cy="74.8" r="14.75"/><circle id="_Path_11" data-name="&lt;Path&gt;" class="cls-3" cx="63.13" cy="64.96" r="5.58"/><g id="_Group_9" data-name="&lt;Group&gt;"><path id="_Path_12" data-name="&lt;Path&gt;" class="cls-2" d="M309.48,101.3a21.67,21.67,0,0,1,14.82,5.83,20.58,20.58,0,0,0-36.4,13.17s0,0,0,.07A21.75,21.75,0,0,1,309.48,101.3Z" transform="translate(-237.68 -47.17)"/></g></g></g><g id="_Group_10" data-name="&lt;Group&gt;"><path id="_Path_13" data-name="&lt;Path&gt;" class="cls-2" d="M315.75,94.2a4.73,4.73,0,0,1,.8-.78,9.62,9.62,0,0,1,1-.75,10,10,0,0,1,1.51-.73,10.24,10.24,0,0,1,2-.55,8.92,8.92,0,0,1,1.13-.12,5.42,5.42,0,0,1,1.2,0c.41,0,.83.07,1.25.14s.83.21,1.25.35a5.45,5.45,0,0,1,1.22.5c.39.21.8.39,1.17.63l1,.81a5,5,0,0,1,.94.88c.28.31.55.63.81,1,.13.16.26.31.38.48l.3.51a16.83,16.83,0,0,1,1,2c.23.66.42,1.29.59,1.87a7.47,7.47,0,0,1,.29,1.61c.05.48.07.91.08,1.26a10,10,0,0,1,0,1.1s-.3-.3-.74-.82c-.22-.26-.49-.58-.76-.94a12.91,12.91,0,0,0-.94-1.19c-.36-.42-.73-.87-1.09-1.34s-.85-.88-1.25-1.36a16.93,16.93,0,0,0-1.36-1.29,4.13,4.13,0,0,0-.73-.58l-.74-.55c-.25-.17-.53-.29-.79-.45a4.1,4.1,0,0,0-.8-.41c-.28-.11-.55-.23-.82-.36s-.57-.16-.85-.25a4.89,4.89,0,0,0-.85-.21c-.29-.05-.57-.14-.85-.17-.56-.07-1.12-.16-1.64-.17s-1,0-1.47-.06-.86,0-1.19,0l-.79,0Z" transform="translate(-237.68 -47.17)"/></g></g><g id="_Group_11" data-name="&lt;Group&gt;"><path id="_Path_14" data-name="&lt;Path&gt;" class="cls-6" d="M276.7,138.85a3.22,3.22,0,0,0,0-.5,8.1,8.1,0,0,0-.14-1.11,4.77,4.77,0,0,1,0-1.81,3.32,3.32,0,0,1,.58-1.23,3.42,3.42,0,0,1,1.21-1,3.86,3.86,0,0,1,2.62-.24l.15,0a.7.7,0,0,1,.14,0l.25.1a3.62,3.62,0,0,1,.48.24,4.14,4.14,0,0,1,.73.56,4.59,4.59,0,0,1,.8,1.07,3.39,3.39,0,0,1,.22.48,4.75,4.75,0,0,1-.52,0c-.32,0-.76,0-1.22,0h-.69a3.25,3.25,0,0,0-.33,0h-.17s-.11,0-.08,0h-.07a3.58,3.58,0,0,0-1,.3c-.12,0-.24.14-.29.14a1.92,1.92,0,0,0-.34.34c-.25.33-.52.86-.84,1.31a3.07,3.07,0,0,1-1,1A1.35,1.35,0,0,1,276.7,138.85Z" transform="translate(-237.68 -47.17)"/></g><g id="_Group_12" data-name="&lt;Group&gt;"><path id="_Path_15" data-name="&lt;Path&gt;" class="cls-2" d="M251.63,117.72a7.29,7.29,0,0,1,.92-.77,13.5,13.5,0,0,1,2.74-1.55,13.05,13.05,0,0,1,4.47-1,10.9,10.9,0,0,1,2.76.24,9.53,9.53,0,0,1,2.8,1.17,8.58,8.58,0,0,1,2.22,2.15,8.82,8.82,0,0,1,1.25,2.57,11.69,11.69,0,0,1,.44,2.48,13,13,0,0,1-.07,2.16,10.8,10.8,0,0,1-.33,1.76,8,8,0,0,1-.4,1.31,11.78,11.78,0,0,1-.46,1.1s-.15-.42-.33-1.14-.44-1.72-.79-2.84c-.15-.57-.37-1.15-.57-1.76a17.6,17.6,0,0,0-.78-1.75c-.15-.28-.33-.53-.48-.81s-.36-.5-.56-.72a6.7,6.7,0,0,0-1.32-1.16,8.43,8.43,0,0,0-1.64-.78,14.5,14.5,0,0,0-1.9-.45,26.66,26.66,0,0,0-3.84-.25c-1.19,0-2.22,0-3,0Z" transform="translate(-237.68 -47.17)"/></g><g id="_Clip_Group_" data-name="&lt;Clip Group&gt;"><g class="cls-7"><path id="_Path_16" data-name="&lt;Path&gt;" class="cls-2" d="M276,170.11a19.25,19.25,0,0,0,6-5.24,36.66,36.66,0,0,0,6.67-13.73,9,9,0,0,0,.19-4.74c-1.29-4.19-5.39-3.07-8.73-3-7.2.1-12-4.6-13.8-4.54-5.18.17,1.23,10.18,1.86,12.17a18.55,18.55,0,0,1-.43,12.31c-.84,2.13-2,4.7-.59,6.48a4.12,4.12,0,0,0,2.27,1.28A9.23,9.23,0,0,0,276,170.11Z" transform="translate(-237.68 -47.17)"/><path id="_Path_17" data-name="&lt;Path&gt;" class="cls-3" d="M269.94,137.66a3.19,3.19,0,0,0-2.57,3,6.08,6.08,0,0,0,1.35,3.94,11,11,0,0,0,8.91,4.55,9.86,9.86,0,0,0,8.45-5.18,2,2,0,0,0,.29-1.35c-.15-.59-.73-.94-1.27-1.22a31.59,31.59,0,0,0-17.25-3.25" transform="translate(-237.68 -47.17)"/><path id="_Path_18" data-name="&lt;Path&gt;" class="cls-8" d="M290.42,157.41a12.07,12.07,0,0,0-14,4.49,7.37,7.37,0,0,0-1.19,6.19,7.69,7.69,0,0,0,1.86,2.86,5.73,5.73,0,0,0,2,1.45,4.64,4.64,0,0,0,3.66-.31,10.51,10.51,0,0,0,2.93-2.35,29.48,29.48,0,0,0,4.39-6.08,7.17,7.17,0,0,0,1.06-3.2,2.91,2.91,0,0,0-1.58-2.78" transform="translate(-237.68 -47.17)"/></g></g></g><g id="_Group_13" data-name="&lt;Group&gt;"><path id="_Path_19" data-name="&lt;Path&gt;" class="cls-2" d="M295.26,177.66s17.62-24,34.17-8.38c0,0-7.88-.12-13,5.81S303.28,185.76,295.26,177.66Z" transform="translate(-237.68 -47.17)"/><path id="_Path_20" data-name="&lt;Path&gt;" class="cls-2" d="M295.26,177.66s13.61-2.45,16.6,11.56C311.86,189.22,294.39,193,295.26,177.66Z" transform="translate(-237.68 -47.17)"/></g></g></svg>