<?xml version="1.0" encoding="UTF-8"?>
<svg width="150px" height="120px" viewBox="0 0 150 120" version="1.1" xmlns="http://www.w3.org/2000/svg" xmlns:xlink="http://www.w3.org/1999/xlink">
    <!-- Generator: Sketch 46.2 (44496) - http://www.bohemiancoding.com/sketch -->
    <title>Page 1</title>
    <desc>Created with Sketch.</desc>
    <defs>
        <filter x="-6.1%" y="-12.1%" width="117.3%" height="135.3%" filterUnits="objectBoundingBox" id="filter-1">
            <feOffset dx="14" dy="15" in="SourceAlpha" result="shadowOffsetOuter1"></feOffset>
            <feGaussianBlur stdDeviation="13.5" in="shadowOffsetOuter1" result="shadowBlurOuter1"></feGaussianBlur>
            <feColorMatrix values="0 0 0 0 0.423628827   0 0 0 0 0.423628827   0 0 0 0 0.423628827  0 0 0 0.5 0" type="matrix" in="shadowBlurOuter1" result="shadowMatrixOuter1"></feColorMatrix>
            <feMerge>
                <feMergeNode in="shadowMatrixOuter1"></feMergeNode>
                <feMergeNode in="SourceGraphic"></feMergeNode>
            </feMerge>
        </filter>
        <polygon id="path-2" points="38.7942578 0.242265569 38.7942578 18.7024968 0.321110437 18.7024968 0.321110437 0.242265569 38.7942578 0.242265569"></polygon>
        <polygon id="path-4" points="0 27.2199166 0 0.0649201193 35.3111297 0.0649201193 35.3111297 27.2199166 1.07821217e-15 27.2199166"></polygon>
    </defs>
    <g id="Welcome" stroke="none" stroke-width="1" fill="none" fill-rule="evenodd">
        <g id="profile" transform="translate(-620.000000, -479.000000)">
            <g id="Group" filter="url(#filter-1)" transform="translate(456.000000, 375.000000)">
                <g id="Page-1" transform="translate(175.000000, 113.000000)">
                    <path d="M95.83385,27.7656671 C95.83385,36.6175494 88.650225,43.7928553 79.7898422,43.7928553 C70.9286703,43.7928553 63.7450453,36.6175494 63.7450453,27.7656671 C63.7450453,18.9137847 70.9286703,11.7384788 79.7898422,11.7384788 C88.650225,11.7384788 95.83385,18.9137847 95.83385,27.7656671" id="Fill-1" fill="#FFFFFF"></path>
                    <path d="M93.2789445,27.7656671 C93.2789445,35.2081847 87.2394602,41.2413376 79.789132,41.2413376 C72.339593,41.2413376 66.3001086,35.2081847 66.3001086,27.7656671 C66.3001086,20.3231494 72.339593,14.2899965 79.789132,14.2899965 C87.2394602,14.2899965 93.2789445,20.3231494 93.2789445,27.7656671" id="Fill-3" fill="#000000"></path>
                    <path d="M36.8892242,30.3931706 C36.8892242,39.2450529 29.7055992,46.4203588 20.8452164,46.4203588 C11.9840445,46.4203588 4.80041953,39.2450529 4.80041953,30.3931706 C4.80041953,21.5412882 11.9840445,14.3659824 20.8452164,14.3659824 C29.7055992,14.3659824 36.8892242,21.5412882 36.8892242,30.3931706" id="Fill-5" fill="#FFFFFF"></path>
                    <path d="M34.3343187,30.3931706 C34.3343187,37.8356882 28.2948344,43.8688412 20.8445062,43.8688412 C13.3949672,43.8688412 7.35548281,37.8356882 7.35548281,30.3931706 C7.35548281,22.9506529 13.3949672,16.9175 20.8445062,16.9175 C28.2948344,16.9175 34.3343187,22.9506529 34.3343187,30.3931706" id="Fill-7" fill="#000000"></path>
                    <g id="Group-11" transform="translate(61.546875, 1.511441)">
                        <mask id="mask-3" fill="white">
                            <use xlink:href="#path-2"></use>
                        </mask>
                        <g id="Clip-10"></g>
                        <path d="M34.1911039,18.5950224 L2.30903359,9.44045765 C0.851635156,9.02190471 0.00970546875,7.50297529 0.428697656,6.04710471 L1.52707266,2.22810471 C1.94606484,0.772234118 3.46737734,-0.0688129412 4.92477578,0.34974 L36.8068461,9.50430471 C38.2642445,9.92285765 39.1061742,11.4417871 38.687182,12.8976576 L37.588018,16.7166576 C37.1690258,18.1725282 35.6485023,19.0135753 34.1911039,18.5950224" id="Fill-9" fill="#000000" mask="url(#mask-3)"></path>
                    </g>
                    <g id="Group-14" transform="translate(0.000000, 0.723206)">
                        <mask id="mask-5" fill="white">
                            <use xlink:href="#path-4"></use>
                        </mask>
                        <g id="Clip-13"></g>
                        <path d="M34.0865531,8.39888353 L6.47094375,26.7600365 C5.20844375,27.5995071 3.50485781,27.2574129 2.66450625,25.9970247 L0.459865625,22.6888012 C-0.379696875,21.4276247 -0.0380328125,19.7250365 1.22446719,18.8863541 L28.8400766,0.524412941 C30.1025766,-0.314269412 31.8069516,0.0270364706 32.6465141,1.28821294 L34.8511547,4.59643647 C35.6907172,5.85682471 35.3490531,7.55941294 34.0865531,8.39888353" id="Fill-12" fill="#000000" mask="url(#mask-5)"></path>
                    </g>
                    <path d="M38.0570367,60.1035718 C38.0570367,63.8760659 34.9954742,66.9352071 31.218232,66.9352071 C27.4417789,66.9352071 24.3802164,63.8760659 24.3802164,60.1035718 C24.3802164,56.3310776 27.4417789,53.2719365 31.218232,53.2719365 C34.9954742,53.2719365 38.0570367,56.3310776 38.0570367,60.1035718 Z" id="Stroke-15" stroke="#FFFFFF" stroke-width="6" stroke-linecap="round"></path>
                </g>
            </g>
        </g>
    </g>
</svg>