<svg id="Layer_1" data-name="Layer 1" xmlns="http://www.w3.org/2000/svg" xmlns:xlink="http://www.w3.org/1999/xlink" viewBox="0 0 137.57 140.48"><defs><style>.cls-1{fill:none;}.cls-2{fill:#939598;}.cls-3{fill:#d1d3d4;}.cls-4{fill:#e6e7e8;}.cls-5{clip-path:url(#clip-path);}.cls-6{fill:#fff;}</style><clipPath id="clip-path" transform="translate(-217.4 -59.89)"><path id="_Clipping_Path_" data-name="&lt;Clipping Path&gt;" class="cls-1" d="M268.4,154.94a24.38,24.38,0,0,1-.18-4.19c.09-2.29.67-4.79,2.54-6.11s4.46-1,6.77-.73a67.32,67.32,0,0,0,14.66.12c2.88-.29,6.16-.65,8.32,1.28s2.17,5.19,1.22,7.84c-3,8.27-9.83,14.89-18.91,15.2C274.17,168.64,269.41,162.55,268.4,154.94Z"/></clipPath></defs><title>icon-cartoon-n</title><g id="_Group_" data-name="&lt;Group&gt;"><g id="_Group_2" data-name="&lt;Group&gt;"><g id="_Group_3" data-name="&lt;Group&gt;"><path id="_Compound_Path_" data-name="&lt;Compound Path&gt;" class="cls-2" d="M331.74,83l-.86-.83q-.85-.83-2.55-2.32a56.14,56.14,0,0,0-30-13.11,68,68,0,0,0-25.17,1.71,72.21,72.21,0,0,0-26.33,12.64c-1,.8-2.11,1.56-3.07,2.47l-1.51,1.31-.76.66c-.1.1,0,0,0,0l-.1.09-.19.19-.38.38-1.56,1.5c-.51.49-.92,1-1.39,1.44-.93.92-1.81,2-2.72,3.05a67.07,67.07,0,0,0-5,6.8c-.8,1.18-1.47,2.45-2.21,3.7l-1,1.93q-.52,1-.95,2A57.39,57.39,0,0,0,220.67,133a58.67,58.67,0,0,0,3.76,18.29,58.15,58.15,0,0,0,9.42,16.26,69.62,69.62,0,0,0,6.49,6.79A66.23,66.23,0,0,0,273,190c1.48.23,3,.45,4.43.59l.55.06.14,0c.07,0-.14,0,0,0l.3,0,1.19.08c.78,0,1.62.12,2.35.14,1.43,0,2.8.07,4.3,0l2.19-.11,2.18-.22a62.13,62.13,0,0,0,16.59-4.18,65.69,65.69,0,0,0,25.75-19,68.2,68.2,0,0,0,13.08-25.85,67,67,0,0,0,2.15-13,62.54,62.54,0,0,0-.32-12.12,56.72,56.72,0,0,0-5.81-19.13,54.66,54.66,0,0,0-7.23-10.85c-1-1.18-1.79-2-2.31-2.57l-.81-.87Zm.7-.71.84.86c.54.58,1.4,1.39,2.39,2.56a74.13,74.13,0,0,1,8,10.66,76,76,0,0,1,8.6,19.12,70.87,70.87,0,0,1,2.44,12.93,65.68,65.68,0,0,1-.34,14.78A64.06,64.06,0,0,1,350,158.84c-.54,1.3-1.15,2.59-1.78,3.89s-1.32,2.57-2.09,3.82-1.5,2.52-2.35,3.74-1.71,2.44-2.63,3.64A67.78,67.78,0,0,1,311,196.07a69.27,69.27,0,0,1-19.47,4.14l-2.52.14h-2.53c-1.66,0-3.46-.11-5.19-.19-.86-.06-1.6-.16-2.4-.24l-1.19-.13-.3,0-.28,0-.16,0-.63-.1c-1.69-.24-3.36-.58-5-.94a68.25,68.25,0,0,1-9.8-3,70.91,70.91,0,0,1-9.23-4.52,66.83,66.83,0,0,1-8.37-5.91,71.61,71.61,0,0,1-7.38-7,74.47,74.47,0,0,1-17.63-35.35A77.29,77.29,0,0,1,221,104.64q.34-1.14.76-2.25l.83-2.23c.62-1.45,1.2-2.92,1.92-4.32a64.35,64.35,0,0,1,4.63-8.14c.9-1.27,1.74-2.54,2.76-3.78.49-.61,1-1.27,1.46-1.83l1.42-1.63a64,64,0,0,1,6.56-6.27,61.45,61.45,0,0,1,30.25-13.61c1.27-.23,2.55-.34,3.81-.45a37.39,37.39,0,0,1,3.74-.2c1.23,0,2.45-.05,3.64,0l3.54.19c1.16.07,2.3.28,3.42.41l1.67.22,1.63.32c1.08.22,2.13.41,3.17.65l3.07.82c1,.25,1.93.58,2.84.89l2.74.95c1.78.68,3.47,1.38,5.05,2.13S313,68,314.38,68.76s2.72,1.52,3.94,2.3A79,79,0,0,1,329,79c1.15,1,2,1.83,2.57,2.38l.85.83Z" transform="translate(-217.4 -59.89)"/></g></g><g id="_Group_4" data-name="&lt;Group&gt;"><path id="_Path_" data-name="&lt;Path&gt;" class="cls-3" d="M232.73,119.84a66.8,66.8,0,0,1,21-48.66,66.24,66.24,0,1,0,72.69,110.14,67,67,0,0,1-93.66-61.49Z" transform="translate(-217.4 -59.89)"/><path id="_Path_2" data-name="&lt;Path&gt;" class="cls-4" d="M351.48,129.43a66.26,66.26,0,0,0-97.79-58.25,67,67,0,0,0,72.69,110.14A66.1,66.1,0,0,0,351.48,129.43Z" transform="translate(-217.4 -59.89)"/></g><g id="_Clip_Group_" data-name="&lt;Clip Group&gt;"><g class="cls-5"><path id="_Path_3" data-name="&lt;Path&gt;" class="cls-2" d="M268.4,154.94a24.38,24.38,0,0,1-.18-4.19c.09-2.29.67-4.79,2.54-6.11s4.46-1,6.77-.73a67.32,67.32,0,0,0,14.66.12c2.88-.29,6.16-.65,8.32,1.28s2.17,5.19,1.22,7.84c-3,8.27-9.83,14.89-18.91,15.2C274.17,168.64,269.41,162.55,268.4,154.94Z" transform="translate(-217.4 -59.89)"/><path id="_Path_4" data-name="&lt;Path&gt;" class="cls-6" d="M275.35,139.62c0,6,10.82,20.41,22,4S275.35,139.62,275.35,139.62Z" transform="translate(-217.4 -59.89)"/><path id="_Path_5" data-name="&lt;Path&gt;" class="cls-6" d="M268.19,162s21.34-11.55,23.95,6.35S268.19,162,268.19,162Z" transform="translate(-217.4 -59.89)"/></g></g><g id="_Group_5" data-name="&lt;Group&gt;"><g id="_Group_6" data-name="&lt;Group&gt;"><circle id="_Path_6" data-name="&lt;Path&gt;" class="cls-3" cx="39.21" cy="54.25" r="20.54"/><g id="_Group_7" data-name="&lt;Group&gt;"><circle id="_Path_7" data-name="&lt;Path&gt;" class="cls-6" cx="39.17" cy="51.75" r="20.58"/><circle id="_Path_8" data-name="&lt;Path&gt;" class="cls-2" cx="40.67" cy="53.42" r="14.75"/><circle id="_Path_9" data-name="&lt;Path&gt;" class="cls-6" cx="31.5" cy="43.58" r="5.58"/><g id="_Group_8" data-name="&lt;Group&gt;"><path id="_Path_10" data-name="&lt;Path&gt;" class="cls-2" d="M257.56,92.64a21.67,21.67,0,0,1,14.82,5.83A20.58,20.58,0,0,0,236,111.64s0,0,0,.07A21.75,21.75,0,0,1,257.56,92.64Z" transform="translate(-217.4 -59.89)"/></g></g></g><g id="_Group_9" data-name="&lt;Group&gt;"><circle id="_Path_11" data-name="&lt;Path&gt;" class="cls-3" cx="96.58" cy="54.25" r="20.54"/><g id="_Group_10" data-name="&lt;Group&gt;"><circle id="_Path_12" data-name="&lt;Path&gt;" class="cls-6" cx="96.54" cy="51.75" r="20.58"/><circle id="_Path_13" data-name="&lt;Path&gt;" class="cls-2" cx="98.04" cy="53.42" r="14.75"/><circle id="_Path_14" data-name="&lt;Path&gt;" class="cls-6" cx="88.87" cy="43.58" r="5.58"/><g id="_Group_11" data-name="&lt;Group&gt;"><path id="_Path_15" data-name="&lt;Path&gt;" class="cls-2" d="M314.93,92.64a21.67,21.67,0,0,1,14.82,5.83,20.58,20.58,0,0,0-36.4,13.17s0,0,0,.07A21.75,21.75,0,0,1,314.93,92.64Z" transform="translate(-217.4 -59.89)"/></g></g></g></g><g id="_Group_12" data-name="&lt;Group&gt;"><path id="_Path_16" data-name="&lt;Path&gt;" class="cls-2" d="M281.35,128.73a3.21,3.21,0,0,0,.31-.4,8.09,8.09,0,0,0,.48-1,4.77,4.77,0,0,1,1-1.5,3.33,3.33,0,0,1,1.15-.73,3.42,3.42,0,0,1,1.55-.18,3.86,3.86,0,0,1,2.35,1.2l.1.11a.71.71,0,0,1,.09.11l.16.22a3.62,3.62,0,0,1,.27.46,4.14,4.14,0,0,1,.31.87,4.59,4.59,0,0,1,.1,1.33,3.39,3.39,0,0,1-.07.52,4.75,4.75,0,0,1-.46-.25c-.28-.16-.64-.41-1-.66l-.59-.37a3.26,3.26,0,0,0-.29-.16l-.15-.08s-.09-.06-.07,0l-.07,0a3.59,3.59,0,0,0-1-.28c-.12,0-.28,0-.32,0a1.92,1.92,0,0,0-.47.1c-.39.14-.89.44-1.41.65a3.07,3.07,0,0,1-1.41.27A1.35,1.35,0,0,1,281.35,128.73Z" transform="translate(-217.4 -59.89)"/></g></g></svg>