<svg id="Layer_1" data-name="Layer 1" xmlns="http://www.w3.org/2000/svg" viewBox="0 0 141.36 125.77"><defs><style>.cls-1{fill:#939598;}.cls-2{fill:#e6e7e8;}.cls-3{fill:#d1d3d4;}.cls-4{fill:#fff;}</style></defs><title>Untitled-15</title><g id="_Group_" data-name="&lt;Group&gt;"><g id="_Group_2" data-name="&lt;Group&gt;"><g id="_Group_3" data-name="&lt;Group&gt;"><path id="_Compound_Path_" data-name="&lt;Compound Path&gt;" class="cls-1" d="M356.4,110.71a58.08,58.08,0,0,0-.48-6.09,45.49,45.49,0,0,0-1.27-5.94,33.69,33.69,0,0,0-2.24-5.59c-.22-.44-.49-.9-.71-1.29s-.54-.89-.81-1.3a23.16,23.16,0,0,0-1.77-2.35,24.75,24.75,0,0,0-9.34-6.83L339.1,81l-.34-.13-.17-.07-.08,0,0,0,0,0c-.47-.14-1-.37-1.42-.44-.82-.21-1.81-.41-2.77-.58-1.94-.34-3.94-.59-5.93-.81-4-.4-8-.72-12.09-.91s-8.09-.38-12.14-.5c-2-.09-4-.14-6.07-.19L292,77.21c-4.06-.1-8.09-.15-12.15-.18s-8.1,0-12.16,0-8.11.13-12.17.25l-3,.12-2.95.25a11.81,11.81,0,0,0-1.43.19l-1.36.22a24.22,24.22,0,0,0-2.76.61,30,30,0,0,0-10.29,4.89,26.94,26.94,0,0,0-2.23,1.84c-.71.65-1.36,1.38-2,2.07A35.32,35.32,0,0,0,226,92.21a41.19,41.19,0,0,0-4.47,11,58.86,58.86,0,0,0-1.7,11.89c-.07,2-.08,4,0,6a50.37,50.37,0,0,0,.56,5.92v.32a87,87,0,0,0,1.66,14.07A89.91,89.91,0,0,0,225.79,155c.38,1.1.82,2.18,1.26,3.25l.33.81,0,.1,0,.05-.06-.15.1.2.2.41.82,1.63c.14.26.27.57.41.79l.42.6.81,1.21a10.52,10.52,0,0,0,1,1.22l1,1.22a37.68,37.68,0,0,0,10.4,7.75,69,69,0,0,0,12.6,4.93,111.27,111.27,0,0,0,13.59,2.73c1.14.2,2.31.3,3.47.43l3.48.37c2.34.13,4.67.35,7,.41l3.53.12c.57,0,1.22.06,1.71.06l1.82,0c1.24,0,2.37,0,3.52,0s2.32,0,3.48-.07a134.19,134.19,0,0,0,13.87-1.15c2.29-.31,4.55-.72,6.8-1.16s4.45-1,6.62-1.66c1.07-.35,2.17-.65,3.22-1,.53-.19,1.07-.36,1.58-.57l1.51-.58,1.66-.69c.48-.22,1-.42,1.45-.66,1-.47,2-1,2.92-1.51A29,29,0,0,0,346,166c.15-.2.28-.42.42-.63l.21-.32c-.11.23,0,0,0,.07l0-.05.05-.1.11-.2.87-1.6c.31-.55.47-1,.71-1.49s.47-.95.68-1.49a66.56,66.56,0,0,0,2.34-6.59,112.37,112.37,0,0,0,3.15-14c.76-4.76,1.29-9.57,1.58-14.4s.38-9.67.3-14.51Zm1,0c.15,4.86.21,9.71.25,14.58s0,9.74-.17,14.64a142.09,142.09,0,0,1-1.14,14.77,72.21,72.21,0,0,1-1.39,7.46c-.32,1.24-.74,2.64-1.14,3.83l-.63,1.71-.08.21,0,.11,0,.05c0,.07,0-.09-.08.18l-.22.49c-.15.32-.29.65-.46,1a33.41,33.41,0,0,1-11.06,12c-1.09.77-2.23,1.46-3.37,2.13-.57.34-1.19.66-1.79,1l-1.64.84-1.84.84c-.59.28-1.2.51-1.8.76-1.2.51-2.42.95-3.64,1.38a90.84,90.84,0,0,1-14.91,3.68c-2.51.42-5,.72-7.54,1s-5,.38-7.55.46a145,145,0,0,1-15-.3c-2.49-.15-5-.46-7.48-.69l-3.74-.52c-1.24-.18-2.49-.33-3.73-.58l-3.72-.69c-1.24-.24-2.47-.57-3.71-.86-2.47-.53-4.91-1.34-7.36-2a74.39,74.39,0,0,1-14.18-6.3A42.28,42.28,0,0,1,226,171.43l-1.19-1.67A15.85,15.85,0,0,1,223.7,168l-1-1.92-.51-1c-.15-.31-.23-.57-.35-.86l-.65-1.7-.16-.42-.08-.21s-.17-.41-.1-.25l0-.06,0-.11-.27-.91c-.36-1.22-.72-2.43-1-3.66a98,98,0,0,1-2.53-14.79c-.26-2.47-.38-5-.47-7.43s-.11-4.92,0-7.49l0,.32a76.92,76.92,0,0,1,.06-12.66,73.6,73.6,0,0,1,2-12.43c.26-1,.56-2,.85-3s.64-2,1.05-3,.75-2,1.22-2.94c.22-.48.43-1,.67-1.45l.76-1.41a36.23,36.23,0,0,1,19.13-17,29.54,29.54,0,0,1,3.15-1.1l1.64-.46a16.14,16.14,0,0,1,1.59-.4l1.51-.31.76-.15.38-.08.19,0,.09,0h0l.17,0,3.08-.49c4.12-.64,8.26-1.11,12.4-1.52s8.31-.63,12.47-.77c2.08-.06,4.16-.07,6.25-.09s4.2.05,6.24.11,4.16.19,6.24.31,4.15.32,6.23.51c4.15.43,8.28,1,12.4,1.68s8.22,1.54,12.29,2.62c2,.54,4.07,1.11,6.1,1.79,1,.36,2,.7,3.13,1.18.58.22,1,.46,1.44.69l0,0,.12.06.09.05.18.1.35.2.7.42a30.52,30.52,0,0,1,9.36,8.89c.6.88,1.14,1.8,1.66,2.75.25.47.47.92.7,1.38s.45,1,.65,1.47a38,38,0,0,1,1.94,6,48.57,48.57,0,0,1,1.08,6.14,59.2,59.2,0,0,1,.43,6.19Z" transform="translate(-216.28 -68.1)"/></g><path id="_Path_" data-name="&lt;Path&gt;" class="cls-2" d="M252.11,74.18s-20.88,5.19-22.3,20.76-4.41,80.28,37.33,86.41c41.26,6.06,64.56.14,65.09,0,8.86-3.93,14.76-9.12,17.55-14.72,6.16-12.33,7.59-36,7.11-55.95-.2-8.34-1.9-14.59-4.39-19.33-30.6-1.07-56.49-16.91-59.2-18.62A305.55,305.55,0,0,0,252.11,74.18Z" transform="translate(-216.28 -68.1)"/><path id="_Path_2" data-name="&lt;Path&gt;" class="cls-2" d="M339.35,78.92c-5.19-2.44-23.16-5.47-46-6.18,2.71,1.71,28.6,17.55,59.2,18.62A27.74,27.74,0,0,0,339.35,78.92Z" transform="translate(-216.28 -68.1)"/><path id="_Path_3" data-name="&lt;Path&gt;" class="cls-3" d="M267.14,181.35c-41.74-6.13-38.76-70.84-37.33-86.41s22.3-20.76,22.3-20.76c-40.3,4.27-33.66,53.1-33.66,53.1a99,99,0,0,0,5.69,33.19c6.16,16.59,28.45,27,63.37,28,19.08.52,34.05-2.37,44.72-7.09C331.7,181.49,308.4,187.41,267.14,181.35Z" transform="translate(-216.28 -68.1)"/></g><path id="_Path_4" data-name="&lt;Path&gt;" class="cls-1" d="M299.87,68.82s4.5,17.32-25.75,20.52C274.12,89.34,258.62,64.85,299.87,68.82Z" transform="translate(-216.28 -68.1)"/><g id="_Group_4" data-name="&lt;Group&gt;"><circle id="_Path_5" data-name="&lt;Path&gt;" class="cls-3" cx="106.19" cy="45.57" r="20.54"/><g id="_Group_5" data-name="&lt;Group&gt;"><circle id="_Path_6" data-name="&lt;Path&gt;" class="cls-4" cx="106.19" cy="42.44" r="20.58"/><circle id="_Path_7" data-name="&lt;Path&gt;" class="cls-1" cx="107.69" cy="44.11" r="14.75"/><circle id="_Path_8" data-name="&lt;Path&gt;" class="cls-4" cx="98.52" cy="34.27" r="5.58"/><g id="_Group_6" data-name="&lt;Group&gt;"><path id="_Path_9" data-name="&lt;Path&gt;" class="cls-1" d="M323.47,91.54a21.67,21.67,0,0,1,14.82,5.83,20.58,20.58,0,0,0-36.4,13.17s0,0,0,.07A21.75,21.75,0,0,1,323.47,91.54Z" transform="translate(-216.28 -68.1)"/></g></g></g><g id="_Group_7" data-name="&lt;Group&gt;"><circle id="_Path_10" data-name="&lt;Path&gt;" class="cls-3" cx="42.31" cy="49.06" r="20.54"/><g id="_Group_8" data-name="&lt;Group&gt;"><circle id="_Path_11" data-name="&lt;Path&gt;" class="cls-4" cx="42.26" cy="46.56" r="20.58"/><circle id="_Path_12" data-name="&lt;Path&gt;" class="cls-1" cx="43.76" cy="48.23" r="14.75"/><circle id="_Path_13" data-name="&lt;Path&gt;" class="cls-4" cx="34.59" cy="38.4" r="5.58"/><g id="_Group_9" data-name="&lt;Group&gt;"><path id="_Path_14" data-name="&lt;Path&gt;" class="cls-1" d="M259.55,95.66a21.67,21.67,0,0,1,14.82,5.83A20.58,20.58,0,0,0,238,114.66s0,0,0,.07A21.75,21.75,0,0,1,259.55,95.66Z" transform="translate(-216.28 -68.1)"/></g></g></g><path id="_Path_15" data-name="&lt;Path&gt;" class="cls-1" d="M236.66,103.11a8.77,8.77,0,0,1,.57-1.16,19.6,19.6,0,0,1,1.9-2.79,22,22,0,0,1,1.5-1.67c.55-.58,1.18-1.13,1.84-1.71s1.38-1.11,2.14-1.62A26.77,26.77,0,0,1,247,92.71a22.12,22.12,0,0,1,2.52-1.2,18.19,18.19,0,0,1,2.55-.9c.42-.12.83-.26,1.25-.34l1.22-.23a14.38,14.38,0,0,1,2.25-.26c.7,0,1.35,0,1.91,0s1.07.11,1.48.16c.81.11,1.27.22,1.27.22s-.43.24-1.16.57c-.37.16-.81.37-1.31.56s-1,.51-1.65.77-1.24.56-1.91.89-1.37.63-2.09,1c-.36.18-.72.35-1.09.53s-.73.4-1.1.58c-.75.37-1.5.77-2.24,1.19s-1.48.83-2.23,1.22l-2.16,1.22-3.87,2.24-2.85,1.59Z" transform="translate(-216.28 -68.1)"/><path id="_Path_16" data-name="&lt;Path&gt;" class="cls-1" d="M315.37,87.58a8.79,8.79,0,0,1,1.22-.42,19.61,19.61,0,0,1,3.32-.62,22,22,0,0,1,2.24-.12c.8,0,1.64,0,2.5.09s1.76.19,2.66.37a26.77,26.77,0,0,1,2.7.65,22.09,22.09,0,0,1,2.63.93,18.19,18.19,0,0,1,2.44,1.17c.38.22.77.41,1.12.64l1,.7A14.4,14.4,0,0,1,339,92.39c.52.47,1,.92,1.37,1.34s.68.83.93,1.16c.5.65.74,1.05.74,1.05s-.47-.13-1.22-.42c-.37-.14-.83-.31-1.32-.53s-1.1-.38-1.71-.62-1.27-.48-2-.72-1.42-.53-2.18-.77c-.38-.12-.76-.26-1.15-.4s-.79-.23-1.19-.37c-.79-.26-1.6-.52-2.42-.74s-1.64-.46-2.44-.71L324.05,90l-4.32-1.16L316.6,88Z" transform="translate(-216.28 -68.1)"/><path id="_Path_17" data-name="&lt;Path&gt;" class="cls-1" d="M249.74,145s1.24-.17,3.41-.4,5.27-.51,9-.75c1.86-.12,3.88-.26,6-.34s4.38-.22,6.7-.27,4.73-.16,7.17-.18l7.4-.06c2.48,0,5,0,7.4.06s4.84.12,7.17.18,4.57.17,6.7.27,4.15.22,6,.34c3.72.24,6.82.53,9,.75s3.41.4,3.41.4-1.24.17-3.41.4-5.27.52-9,.75c-1.86.13-3.88.26-6,.34s-4.38.22-6.7.27-4.73.16-7.17.18-4.92,0-7.4.06l-7.4-.06c-2.44,0-4.84-.12-7.17-.18s-4.57-.17-6.7-.27-4.15-.22-6-.34c-3.72-.24-6.82-.52-9-.75S249.74,145,249.74,145Z" transform="translate(-216.28 -68.1)"/><path id="_Path_18" data-name="&lt;Path&gt;" class="cls-1" d="M326,139.59l.13.11a4,4,0,0,1,.34.3c.28.27.62.59,1,1a28.91,28.91,0,0,1,2.16,2.51,13.49,13.49,0,0,1,1.76,3.12,6.71,6.71,0,0,1,.25.77c0,.11.08.23.05.3s0,0-.09,0h0a.54.54,0,0,0-.4,0,.55.55,0,0,0-.28.28.52.52,0,0,0,0,.23.36.36,0,0,0,0,.15c.05.1,0,0,0,0v0a1,1,0,0,0,0-.14c0-.18,0-.35,0-.45l0-.16.16,0a3.42,3.42,0,0,1,.44.13l.15.06,0,0s0,0,.08.1a.47.47,0,0,1,0,.18.54.54,0,0,1,0,.23.56.56,0,0,1-.69.3l-.05,0-.15-.07-.39-.09c-.25-.05-.51-.11-.78-.19a6.85,6.85,0,0,1-3.4-2.44,6.06,6.06,0,0,1-.62-1,5.64,5.64,0,0,1-.41-1.12,5.37,5.37,0,0,1-.13-2.11,4.75,4.75,0,0,1,.45-1.47,4,4,0,0,1,.23-.39Z" transform="translate(-216.28 -68.1)"/><path id="_Path_19" data-name="&lt;Path&gt;" class="cls-1" d="M289.18,134.84l.08-.13a1.31,1.31,0,0,0,.17-.36c.11-.29.17-.65.28-1.1a3.55,3.55,0,0,1,.87-1.59,3.41,3.41,0,0,1,1.22-.81,3.61,3.61,0,0,1,1.7-.21A3.91,3.91,0,0,1,296,132l.1.12a.46.46,0,0,1,.09.12l.15.24a3.2,3.2,0,0,1,.26.5,3.68,3.68,0,0,1,.24.92,4.09,4.09,0,0,1-.08,1.39,3.06,3.06,0,0,1-.12.41l0,.14-.15,0c-.09,0-.25-.07-.39-.14-.32-.12-.73-.32-1.16-.5l-.61-.25a1.68,1.68,0,0,0-.27-.09.24.24,0,0,1-.14,0s-.1-.06-.06,0h-.06l-.41-.06-.28,0s-.13,0-.07-.07c-.1,0-.13-.06-.31,0s-.87.3-1.42.46a3.14,3.14,0,0,1-1.52.11.94.94,0,0,1-.41-.17Z" transform="translate(-216.28 -68.1)"/></g></svg>