<?xml version="1.0" encoding="UTF-8"?>
<svg width="137px" height="111px" viewBox="0 0 137 111" version="1.1" xmlns="http://www.w3.org/2000/svg" xmlns:xlink="http://www.w3.org/1999/xlink">
    <!-- Generator: Sketch 46.2 (44496) - http://www.bohemiancoding.com/sketch -->
    <title>Group 27</title>
    <desc>Created with Sketch.</desc>
    <defs>
        <filter x="-6.1%" y="-12.1%" width="117.3%" height="135.3%" filterUnits="objectBoundingBox" id="filter-1">
            <feOffset dx="14" dy="15" in="SourceAlpha" result="shadowOffsetOuter1"></feOffset>
            <feGaussianBlur stdDeviation="13.5" in="shadowOffsetOuter1" result="shadowBlurOuter1"></feGaussianBlur>
            <feColorMatrix values="0 0 0 0 0.423628827   0 0 0 0 0.423628827   0 0 0 0 0.423628827  0 0 0 0.5 0" type="matrix" in="shadowBlurOuter1" result="shadowMatrixOuter1"></feColorMatrix>
            <feMerge>
                <feMergeNode in="shadowMatrixOuter1"></feMergeNode>
                <feMergeNode in="SourceGraphic"></feMergeNode>
            </feMerge>
        </filter>
        <path d="M18.6000258,7.89276269 C16.637596,9.4581331 14.0617441,10.4101087 11.1690968,9.88406452 C5.71582066,8.89281505 1.98852712,5.64971097 0.612468448,0.609130177 L18.6000258,0.609129032 L18.6000258,7.89276269 L18.6000258,7.89276269 Z" id="path-2"></path>
    </defs>
    <g id="Welcome" stroke="none" stroke-width="1" fill="none" fill-rule="evenodd">
        <g id="profile" transform="translate(-494.000000, -490.000000)">
            <g id="Group" filter="url(#filter-1)" transform="translate(456.000000, 375.000000)">
                <g id="Group-30">
                    <g id="Group-29-Copy" transform="translate(37.000000, 100.000000)">
                        <g id="Group-27" transform="translate(12.000000, 25.000000)">
                            <g id="Group-13">
                                <path d="M86.0907806,15.5806452 C86.0907806,23.9125806 79.3362,30.6664194 71.0050065,30.6664194 C62.673071,30.6664194 55.9184903,23.9125806 55.9184903,15.5806452 C55.9184903,7.24870968 62.673071,0.494870968 71.0050065,0.494870968 C79.3362,0.494870968 86.0907806,7.24870968 86.0907806,15.5806452" id="Fill-3" fill="#FFFFFF"></path>
                                <path d="M83.6885419,15.5806452 C83.6885419,22.586 78.0097677,28.2647742 71.0044129,28.2647742 C63.9998,28.2647742 58.3210258,22.586 58.3210258,15.5806452 C58.3210258,8.57529032 63.9998,2.89651613 71.0044129,2.89651613 C78.0097677,2.89651613 83.6885419,8.57529032 83.6885419,15.5806452" id="Fill-5" fill="#000000"></path>
                                <path d="M30.6666419,18.0537387 C30.6666419,26.3856742 23.9120613,33.1395129 15.5808677,33.1395129 C7.24893226,33.1395129 0.494351613,26.3856742 0.494351613,18.0537387 C0.494351613,9.72180323 7.24893226,2.96796452 15.5808677,2.96796452 C23.9120613,2.96796452 30.6666419,9.72180323 30.6666419,18.0537387" id="Fill-7" fill="#FFFFFF"></path>
                                <path d="M28.2644032,18.0537387 C28.2644032,25.0590935 22.585629,30.7378677 15.5802742,30.7378677 C8.57566129,30.7378677 2.8968871,25.0590935 2.8968871,18.0537387 C2.8968871,11.0483839 8.57566129,5.36960968 15.5802742,5.36960968 C22.585629,5.36960968 28.2644032,11.0483839 28.2644032,18.0537387" id="Fill-9" fill="#000000"></path>
                                <path d="M20.0669806,45.6644226 C20.0669806,45.6644226 21.3772387,39.3765194 26.8786903,42.5208419 C32.3808839,45.6644226 31.332529,49.0706484 34.2142065,48.2841968 C37.0966258,47.4984871 41.0266581,46.4501323 42.3361742,50.1182613 C43.6464323,53.7863903 38.4061419,61.6457129 31.2019484,60.3361968 C23.9970129,59.0259387 19.8050774,53.7863903 20.0669806,45.6644226" id="Fill-11" fill="#FFFFFF"></path>
                            </g>
                            <g id="Group-16" transform="translate(20.000000, 50.000000)">
                                <mask id="mask-3" fill="white">
                                    <use xlink:href="#path-2"></use>
                                </mask>
                                <g id="Clip-15"></g>
                                <path d="M18.6000258,12.2679032 C18.6000258,18.7064194 13.3805097,23.9266774 6.94125161,23.9266774 C0.502735484,23.9266774 -4.71752258,18.7064194 -4.71752258,12.2679032 C-4.71752258,5.8293871 0.502735484,0.609129032 6.94125161,0.609129032 C13.3805097,0.609129032 18.6000258,5.8293871 18.6000258,12.2679032" id="Fill-14" fill="#E6E7E8" mask="url(#mask-3)"></path>
                            </g>
                        </g>
                    </g>
                </g>
            </g>
        </g>
    </g>
</svg>