<?xml version="1.0" encoding="UTF-8"?>
<svg width="57px" height="54px" viewBox="0 0 57 54" version="1.1" xmlns="http://www.w3.org/2000/svg" xmlns:xlink="http://www.w3.org/1999/xlink">
    <!-- Generator: Sketch 46.2 (44496) - http://www.bohemiancoding.com/sketch -->
    <title>Page 1</title>
    <desc>Created with Sketch.</desc>
    <defs>
        <polygon id="path-1" points="0.151858586 29.4878472 45.6835281 29.4878472 45.6835281 0.0582291667 0.151858586 0.0582291667 0.151858586 29.4878472"></polygon>
    </defs>
    <g id="Welcome" stroke="none" stroke-width="1" fill="none" fill-rule="evenodd">
        <g id="Homepage-Kid" transform="translate(-1210.000000, -824.000000)">
            <g id="Group-10" transform="translate(1166.000000, 744.000000)">
                <g id="Page-1" transform="translate(44.000000, 80.000000)">
                    <g id="Group-8" transform="translate(35.526690, 0.137830)"></g>
                    <g id="Group-27">
                        <g id="Group-3" transform="translate(5.560976, 24.235278)">
                            <mask id="mask-2" fill="white">
                                <use xlink:href="#path-1"></use>
                            </mask>
                            <g id="Clip-2"></g>
                            <path d="M5.83485366,17.4235851 L39.9840105,17.4235851 L39.9840105,0.0582291667 L45.6826202,0.0582291667 L45.6826202,0.575759549 C45.6826202,8.33628906 45.6854007,16.0966319 45.68123,23.8571615 C45.6798397,26.6292057 43.9555401,28.7407595 41.2056376,29.3305165 C40.7416934,29.4299913 40.2555052,29.4796354 39.779446,29.4800087 C28.5421045,29.4880339 17.3047631,29.4913932 6.067223,29.4829948 C3.03609408,29.4805686 0.710414634,27.6622135 0.221247387,24.9461589 C0.158289199,24.5960373 0.154714286,24.2335981 0.154714286,23.8769444 C0.151139373,16.1009245 0.151933798,8.32490451 0.151933798,0.548884549 L0.151933798,0.0600954861 L5.83485366,0.0600954861 L5.83485366,17.4235851 Z" id="Fill-1" fill="#FFA705" mask="url(#mask-2)"></path>
                        </g>
                        <path d="M15.6659038,0.19613151 C15.0716739,1.69012023 14.5072348,3.11188238 13.9404125,4.53308464 C13.1412209,6.53732509 12.3352767,8.53913932 11.5464125,10.5469258 C11.451876,10.7873077 11.4059979,11.0581107 11.4046077,11.3151029 C11.3932871,13.3353937 11.4000397,15.3558711 11.3974578,17.3761619 C11.3962662,18.4052504 10.8441408,18.9283798 9.75677143,18.9293129 C7.04460418,18.9315525 4.33223833,18.9319258 1.62007108,18.9291263 C0.58394216,18.9280065 0.011558885,18.4114093 0.00659372822,17.4418563 C-0.00432961672,15.3594171 -0.000357491289,13.2767912 0.00897700348,11.194352 C0.00977142857,11.0166784 0.064189547,10.8238876 0.148795819,10.663944 C1.77438815,7.59440842 3.40613728,4.52785894 5.04205714,1.46317578 C5.45515819,0.68939974 6.16120348,0.225432726 7.05195261,0.211995226 C9.89460418,0.16925651 12.7382488,0.19613151 15.6659038,0.19613151" id="Fill-4" fill="#FFA705"></path>
                        <path d="M41.3160031,0.188871528 L41.8532331,0.188871528 C44.4019474,0.188871528 46.9506617,0.193723958 49.499376,0.186631944 C50.6562575,0.183459201 51.4882192,0.647799479 52.0067801,1.6253776 C53.5918568,4.61260851 55.1876582,7.59498698 56.7671739,10.5848307 C56.879585,10.7975911 56.9441321,11.0557031 56.9457209,11.2934722 C56.9596233,13.299579 56.9560484,15.3058724 56.9524735,17.3121658 C56.9504875,18.4312109 56.4132575,18.9295182 55.2196338,18.9298915 C52.5551321,18.930638 49.8904317,18.9311979 47.22593,18.9295182 C46.0974491,18.9287717 45.5602192,18.4215061 45.5592261,17.3565842 C45.5572401,15.3659679 45.5657801,13.3751649 45.5508847,11.3845486 C45.5485014,11.0827648 45.4899125,10.7653038 45.3782958,10.4825564 C44.0966895,7.23758681 42.7993934,3.99802951 41.5084526,0.756419271 C41.4403307,0.585651042 41.3898847,0.408537326 41.3160031,0.188871528" id="Fill-6" fill="#FFA705"></path>
                        <path d="M24.2364993,0.208150608 L32.7408199,0.208150608 C32.8736875,1.17546398 33.0091369,2.1390447 33.138231,3.10355859 C33.461562,5.52249523 33.7932345,7.94031207 34.0961091,10.3614883 C34.1691962,10.945273 34.1582728,11.5398824 34.1608547,12.1296393 C34.1684017,13.8546784 34.165224,15.5797174 34.1628408,17.3047565 C34.1612519,18.4439579 33.6500394,18.929201 32.4546282,18.9297609 C29.7919139,18.9308806 27.1291997,18.9310673 24.466684,18.9295742 C23.3233077,18.9288277 22.7964052,18.4402253 22.7942206,17.3687713 C22.7902484,15.286332 22.7272902,13.2012799 22.8154714,11.1220135 C22.877238,9.66796398 23.1415829,8.22100651 23.3288686,6.77236936 C23.5900359,4.75301172 23.8627223,2.7349605 24.133224,0.716722656 C24.1556666,0.550433594 24.1997571,0.386757378 24.2364993,0.208150608" id="Fill-9" fill="#FFA705"></path>
                    </g>
                </g>
            </g>
        </g>
    </g>
</svg>