<?xml version="1.0" encoding="UTF-8"?>
<svg width="73px" height="52px" viewBox="0 0 73 52" version="1.1" xmlns="http://www.w3.org/2000/svg" xmlns:xlink="http://www.w3.org/1999/xlink">
    <!-- Generator: Sketch 46.2 (44496) - http://www.bohemiancoding.com/sketch -->
    <title>Page 1</title>
    <desc>Created with Sketch.</desc>
    <defs>
        <polygon id="path-1" points="3.63885047e-05 0 72.8048985 0 72.8048985 51.8598889 3.63885047e-05 51.8598889 3.63885047e-05 0"></polygon>
    </defs>
    <g id="Welcome" stroke="none" stroke-width="1" fill="none" fill-rule="evenodd">
        <g id="Homepage-Kid" transform="translate(-338.000000, -829.000000)">
            <g id="Group-26" transform="translate(303.000000, 746.000000)">
                <g id="Page-1" transform="translate(35.000000, 83.000000)">
                    <mask id="mask-2" fill="white">
                        <use xlink:href="#path-1"></use>
                    </mask>
                    <g id="Clip-2"></g>
                    <path d="M37.297531,42.408287 C37.6027818,42.2811759 38.1993099,42.1015833 38.7274155,41.8016204 C42.8580591,39.4563241 46.974729,37.0859907 51.097904,34.7276944 C51.9623396,34.233213 52.7653396,33.6609722 52.7612439,32.5533241 C52.7571482,31.4516944 51.9671581,30.8729537 51.0983858,30.376787 C46.9735244,28.0211389 42.8438446,25.6736759 38.7360888,23.2881759 C36.3923792,21.9272685 34.8972043,23.2101759 34.9347884,25.4955278 C35.0118842,30.1870833 34.9576762,34.8808056 34.9588809,39.5735648 C34.9588809,39.8542685 34.9543033,40.1366574 34.9810459,40.4151944 C35.0957257,41.6128796 35.8748743,42.3774722 37.297531,42.408287 M6.80400957,35.3415833 C6.7642571,35.0312685 6.73365974,34.8408426 6.71655413,34.6494537 C6.49466304,32.1758426 6.20001287,29.7058426 6.07184125,27.2274167 C5.88199307,23.5544352 6.11641221,19.8906019 6.68162013,16.2556574 C6.90278845,14.8333611 7.09600957,13.3845833 7.53473234,12.0229537 C8.56179175,8.8355463 12.2317884,5.9779537 16.3409898,5.99287963 C29.4670162,6.0405463 42.5932835,6.0104537 55.7195508,6.0104537 L56.6083198,6.0104537 C56.360168,5.64765741 56.2047719,5.37321296 56.0055277,5.13560185 C54.5725112,3.42802778 52.770399,2.51489815 50.5052307,2.51658333 C37.1180426,2.5264537 23.7308545,2.51658333 10.3436663,2.53487963 C9.61318449,2.53584259 8.84150462,2.61384259 8.16017129,2.85578704 C5.9193363,3.65167593 4.2343132,5.08817593 3.7233132,7.50352778 C3.32193366,9.4010463 3.03740231,11.3313056 2.83358053,13.2610833 C2.20115479,19.2434907 2.50447822,25.191713 3.65922739,31.0958796 C4.02446832,32.9633056 5.11946832,34.2905093 6.80400957,35.3415833 M12.5994386,41.2069907 C12.538003,40.7221389 12.4943957,40.3882315 12.4541614,40.0540833 C12.4132043,39.7158426 12.372729,39.3773611 12.3375541,39.0383981 C11.8106531,33.9683981 11.8513693,28.9048981 12.5859469,23.8584907 C12.8194023,22.2563611 13.0169601,20.6173981 13.5253099,19.0932685 C14.7135475,15.5305463 18.396795,13.0749907 22.265795,13.0740278 C35.5754056,13.0708981 48.8850162,13.0728241 62.1948677,13.0728241 L62.9831713,13.0728241 C62.971366,12.9644907 62.9757026,12.9038241 62.9569106,12.8513426 C62.8964386,12.6816204 62.8439172,12.5063611 62.7593528,12.3484352 C61.4371614,9.88012037 59.4076168,8.49056481 56.5743495,8.4869537 C43.144036,8.46913889 29.7139634,8.47323148 16.2838908,8.49369444 C15.5350987,8.49489815 14.7417356,8.59119444 14.0464287,8.85047222 C11.7533132,9.70606481 10.1008149,11.2090093 9.64763663,13.7353426 C9.37539241,15.253213 9.1202538,16.7758981 8.92438251,18.3050833 C8.10981815,24.6685833 8.4432571,30.9926019 9.68618449,37.2730463 C10.0184188,38.9517315 11.046201,40.1751759 12.5994386,41.2069907 M30.4776927,0.0328611111 C37.1019007,0.0328611111 43.7275541,0.11712037 50.3495937,0.00108333333 C54.3079766,-0.0680092593 58.2282934,2.71062037 59.3647323,6.11782407 C59.4370096,6.33400926 59.7131086,6.53887963 59.9424683,6.63758333 C62.2835277,7.64556481 64.0743165,9.22458333 65.1293231,11.5725278 C65.5598545,12.5304352 66.735564,14.0242315 67.6163825,14.601287 C70.0887455,16.2214722 71.3731119,18.5231944 71.8460459,21.421713 C72.7519205,26.9736759 73.0925871,32.5408056 72.5329205,38.1404352 C72.30597,40.4103796 71.9771086,42.6781574 71.5395904,44.9165648 C70.9004188,48.1863056 67.697333,51.1204537 64.3099403,51.6813796 C63.6806465,51.7856204 63.0337653,51.8258241 62.3950756,51.8263056 C49.0864287,51.83425 35.7775409,51.7815278 22.4696168,51.8597685 C17.7629238,51.8874537 13.6633594,48.2659907 13.1526003,44.5154907 C13.1318809,44.3640648 12.947333,44.1796574 12.7941053,44.1098426 C10.2964452,42.9701759 8.42711518,41.2375648 7.46896007,38.60675 C7.40342871,38.4271574 7.14973564,38.2754907 6.94976865,38.1909907 C4.28322079,37.0628796 2.29053762,35.2563611 1.45308548,32.4339167 C1.04520099,31.0597685 0.861857756,29.6124352 0.654422112,28.1867685 C0.0313924092,23.9061574 -0.194353465,19.5978611 0.186306601,15.2888426 C0.436385809,12.4596574 0.802108581,9.62806481 1.33696007,6.83980556 C1.96288086,3.57680556 5.14765644,0.738712963 8.50975215,0.183564815 C9.13904587,0.0795648148 9.78568614,0.0400833333 10.4246168,0.0391203704 C17.1088149,0.0290092593 23.7932538,0.0328611111 30.4776927,0.0328611111" id="Fill-1" fill="#FFA705" mask="url(#mask-2)"></path>
                </g>
            </g>
        </g>
    </g>
</svg>