<svg id="Layer_1" data-name="Layer 1" xmlns="http://www.w3.org/2000/svg" xmlns:xlink="http://www.w3.org/1999/xlink" viewBox="0 0 141.36 125.77"><defs><style>.cls-1{fill:none;}.cls-2{fill:#801277;}.cls-3{fill:#ffce00;}.cls-4{fill:#eabf0a;}.cls-5{fill:#fa0;}.cls-6{clip-path:url(#clip-path);}.cls-7{fill:#fff;}.cls-8{fill:#ec6b6b;}</style><clipPath id="clip-path" transform="translate(-217.19 -61.38)"><path id="_Clipping_Path_" data-name="&lt;Clipping Path&gt;" class="cls-1" d="M344.89,139.42c1.67-6.21-.24-13.67-5.72-17a22.22,22.22,0,0,0-6-2.26,152.57,152.57,0,0,0-47.42-4.7,209.94,209.94,0,0,0-21.9,2.55c-6.07,1-22.46,3.89-19,23.31,1.91,10.62,12.74,18.71,21.23,23.09,6.62,3.42,14.22,4.44,21.67,4.49,16.08.11,32.45-4.3,45.29-14,5.2-3.93,9.94-8.94,11.74-15.2Z"/></clipPath></defs><title>Untitled-2</title><g id="_Group_" data-name="&lt;Group&gt;"><path id="_Compound_Path_" data-name="&lt;Compound Path&gt;" class="cls-2" d="M357.31,104a58.08,58.08,0,0,0-.48-6.09A45.51,45.51,0,0,0,355.56,92a33.69,33.69,0,0,0-2.24-5.59c-.22-.44-.49-.9-.71-1.29s-.54-.89-.81-1.3A23.11,23.11,0,0,0,350,81.41a24.75,24.75,0,0,0-9.34-6.83L340,74.3l-.34-.13-.17-.07-.08,0,0,0,0,0c-.47-.14-1-.37-1.42-.44-.82-.21-1.81-.41-2.77-.58-1.94-.34-3.94-.59-5.93-.81-4-.4-8-.72-12.09-.91s-8.09-.38-12.14-.5c-2-.09-4-.14-6.07-.19l-6.07-.15c-4.06-.1-8.09-.15-12.15-.18s-8.1,0-12.16,0-8.11.13-12.17.25l-3,.12-2.95.25a11.81,11.81,0,0,0-1.43.19l-1.36.22a24.2,24.2,0,0,0-2.76.61,30,30,0,0,0-10.29,4.89,26.92,26.92,0,0,0-2.23,1.84c-.71.65-1.36,1.38-2,2.07a35.31,35.31,0,0,0-3.44,4.75,41.19,41.19,0,0,0-4.47,11,58.86,58.86,0,0,0-1.7,11.89c-.07,2-.08,4,0,6a50.35,50.35,0,0,0,.56,5.92v.32A87,87,0,0,0,223,134.69a89.94,89.94,0,0,0,3.74,13.59c.38,1.1.82,2.18,1.26,3.25l.33.81,0,.1,0,.05-.06-.15.1.2.2.41.82,1.63c.14.26.27.57.41.79l.42.6.81,1.21a10.52,10.52,0,0,0,1,1.22l1,1.22a37.68,37.68,0,0,0,10.4,7.75A69,69,0,0,0,256,172.3,111.28,111.28,0,0,0,269.62,175c1.14.2,2.31.3,3.47.43l3.48.37c2.34.13,4.67.35,7,.41l3.53.12c.57,0,1.22.06,1.71.06l1.82,0c1.24,0,2.37,0,3.52,0s2.32,0,3.48-.07a134.21,134.21,0,0,0,13.87-1.15c2.29-.31,4.55-.72,6.8-1.16s4.45-1,6.62-1.66c1.07-.35,2.17-.65,3.22-1,.53-.19,1.07-.36,1.58-.57l1.51-.58,1.66-.69c.48-.22,1-.42,1.45-.66,1-.47,2-1,2.92-1.51a29,29,0,0,0,9.6-8.05c.15-.2.28-.42.42-.63l.21-.32c-.11.23,0,0,0,.07l0-.05.05-.1.11-.2.87-1.6c.31-.55.47-1,.71-1.49s.47-.95.68-1.49a66.62,66.62,0,0,0,2.34-6.59,112.41,112.41,0,0,0,3.15-14c.76-4.76,1.29-9.57,1.58-14.4s.38-9.67.3-14.51Zm1,0c.15,4.86.21,9.71.25,14.58s0,9.74-.17,14.64A142.09,142.09,0,0,1,357.24,148a72.24,72.24,0,0,1-1.39,7.46c-.32,1.24-.74,2.64-1.14,3.83l-.63,1.71-.08.21,0,.11,0,.05c0,.07,0-.09-.08.18l-.22.49c-.15.32-.29.65-.46,1a33.41,33.41,0,0,1-11.06,12c-1.09.77-2.23,1.46-3.37,2.13-.57.34-1.19.66-1.79,1l-1.64.84-1.84.84c-.59.28-1.2.51-1.8.76-1.2.51-2.42.95-3.64,1.38a90.85,90.85,0,0,1-14.91,3.68c-2.51.42-5,.72-7.54,1s-5,.38-7.55.46a145,145,0,0,1-15-.3c-2.49-.15-5-.46-7.48-.69l-3.74-.52c-1.24-.18-2.49-.33-3.73-.58l-3.72-.69c-1.24-.24-2.47-.57-3.71-.86-2.47-.53-4.91-1.34-7.36-2a74.41,74.41,0,0,1-14.18-6.3,42.28,42.28,0,0,1-12.15-10.38L225.76,163a15.84,15.84,0,0,1-1.15-1.74l-1-1.92-.51-1c-.15-.31-.23-.57-.35-.86l-.65-1.7-.16-.42-.08-.21s-.17-.41-.1-.25l0-.06,0-.11-.27-.91c-.36-1.22-.72-2.43-1-3.66a97.92,97.92,0,0,1-2.52-14.79c-.26-2.47-.38-5-.47-7.43s-.11-4.92,0-7.49l0,.32a76.92,76.92,0,0,1,.06-12.66,73.62,73.62,0,0,1,2-12.43c.26-1,.56-2,.85-3s.64-2,1.05-3,.75-2,1.22-2.94c.22-.48.43-1,.67-1.45l.76-1.41a36.23,36.23,0,0,1,19.13-17,29.54,29.54,0,0,1,3.15-1.1l1.64-.46a16.14,16.14,0,0,1,1.59-.4l1.51-.31.76-.15.38-.08.19,0,.09,0h0l.17,0,3.08-.49c4.12-.64,8.26-1.11,12.4-1.52s8.31-.63,12.47-.77c2.08-.06,4.16-.07,6.25-.09s4.2.05,6.24.11,4.16.19,6.24.31,4.15.32,6.23.51c4.15.43,8.28,1,12.4,1.68s8.22,1.54,12.29,2.62c2,.54,4.07,1.11,6.1,1.79,1,.36,2,.7,3.13,1.18.58.22,1,.46,1.44.69l0,0,.12.06.09.05.18.1.35.2.7.42A30.53,30.53,0,0,1,351.84,80c.6.88,1.14,1.8,1.66,2.75.25.47.47.92.7,1.38s.45,1,.65,1.47a38.07,38.07,0,0,1,1.94,6,48.61,48.61,0,0,1,1.08,6.14,59.16,59.16,0,0,1,.43,6.19Z" transform="translate(-217.19 -61.38)"/></g><path id="_Path_" data-name="&lt;Path&gt;" class="cls-3" d="M253,67.46s-20.88,5.19-22.3,20.76S226.31,168.5,268,174.63c41.26,6.06,64.56.14,65.09,0,8.86-3.93,14.76-9.12,17.55-14.72,6.16-12.33,7.59-36,7.11-55.95-.2-8.34-1.9-14.59-4.39-19.33-30.6-1.07-56.49-16.91-59.2-18.62A305.55,305.55,0,0,0,253,67.46Z" transform="translate(-217.19 -61.38)"/><path id="_Path_2" data-name="&lt;Path&gt;" class="cls-3" d="M340.26,72.2c-5.19-2.44-23.16-5.47-46-6.18,2.71,1.71,28.6,17.55,59.2,18.62A27.74,27.74,0,0,0,340.26,72.2Z" transform="translate(-217.19 -61.38)"/><path id="_Path_3" data-name="&lt;Path&gt;" class="cls-4" d="M268,174.63c-41.74-6.13-38.76-70.84-37.33-86.41S253,67.46,253,67.46c-40.3,4.27-33.66,53.1-33.66,53.1A99,99,0,0,0,225,153.76c6.16,16.59,28.45,27,63.37,28,19.08.52,34.05-2.37,44.72-7.09C332.61,174.77,309.31,180.69,268,174.63Z" transform="translate(-217.19 -61.38)"/><g id="_Group_2" data-name="&lt;Group&gt;"><g id="_Group_3" data-name="&lt;Group&gt;"><path id="_Path_4" data-name="&lt;Path&gt;" class="cls-5" d="M286.6,107.4a3,3,0,0,0,.28-.39,8.19,8.19,0,0,0,.43-1,4.35,4.35,0,0,1,.94-1.45,3.19,3.19,0,0,1,1.11-.71,3.3,3.3,0,0,1,1.5-.17,3.69,3.69,0,0,1,2.26,1.16l.1.11a.64.64,0,0,1,.09.11l.15.21a3.39,3.39,0,0,1,.26.45,3.88,3.88,0,0,1,.29.84,4.29,4.29,0,0,1,.07,1.28,3.22,3.22,0,0,1-.08.5,4.52,4.52,0,0,1-.45-.23c-.27-.15-.62-.38-1-.61l-.57-.34a2.84,2.84,0,0,0-.27-.14l-.14-.07s-.09-.06-.07,0l-.06,0a3.51,3.51,0,0,0-.92-.24,2.1,2.1,0,0,1-.27,0,1.71,1.71,0,0,0-.43.08c-.36.12-.85.4-1.35.6a2.94,2.94,0,0,1-1.36.23A1.27,1.27,0,0,1,286.6,107.4Z" transform="translate(-217.19 -61.38)"/></g><g id="_Group_4" data-name="&lt;Group&gt;"><path id="_Path_5" data-name="&lt;Path&gt;" class="cls-2" d="M241.39,95A8.79,8.79,0,0,1,242,93.8a19.61,19.61,0,0,1,1.9-2.79,22,22,0,0,1,1.5-1.67c.55-.58,1.18-1.13,1.84-1.71s1.38-1.11,2.14-1.62a26.78,26.78,0,0,1,2.37-1.45,22.12,22.12,0,0,1,2.52-1.2,18.19,18.19,0,0,1,2.55-.9c.42-.12.83-.26,1.25-.34l1.22-.23a14.38,14.38,0,0,1,2.25-.26c.7,0,1.35,0,1.91,0s1.07.11,1.48.16c.81.11,1.27.22,1.27.22s-.43.24-1.16.57c-.37.16-.81.37-1.31.56s-1,.51-1.65.77-1.24.56-1.91.89-1.37.63-2.09,1c-.36.18-.72.35-1.09.53s-.73.4-1.1.58c-.75.37-1.5.77-2.24,1.19s-1.48.83-2.23,1.22l-2.16,1.22-3.87,2.24-2.85,1.59Z" transform="translate(-217.19 -61.38)"/></g><g id="_Group_5" data-name="&lt;Group&gt;"><path id="_Path_6" data-name="&lt;Path&gt;" class="cls-2" d="M319.8,80.19a8.8,8.8,0,0,1,1.22-.42,19.61,19.61,0,0,1,3.32-.62,22,22,0,0,1,2.24-.12c.8,0,1.64,0,2.5.09s1.76.19,2.66.37a26.77,26.77,0,0,1,2.7.65,22.12,22.12,0,0,1,2.63.93,18.2,18.2,0,0,1,2.44,1.17c.38.22.77.41,1.12.64l1,.7A14.38,14.38,0,0,1,343.44,85c.52.47,1,.92,1.37,1.34s.68.83.93,1.16c.5.65.74,1.05.74,1.05s-.47-.13-1.22-.42c-.37-.15-.83-.31-1.32-.53s-1.1-.38-1.71-.62-1.27-.48-2-.72-1.42-.53-2.18-.77c-.38-.12-.76-.26-1.15-.4s-.79-.23-1.19-.37c-.79-.26-1.6-.52-2.42-.74s-1.64-.46-2.44-.71l-2.39-.66-4.32-1.16L321,80.56Z" transform="translate(-217.19 -61.38)"/></g><path id="_Path_7" data-name="&lt;Path&gt;" class="cls-2" d="M344.89,139.42c1.67-6.21-.24-13.67-5.72-17a22.22,22.22,0,0,0-6-2.26,152.57,152.57,0,0,0-47.42-4.7,209.94,209.94,0,0,0-21.9,2.55c-6.07,1-22.46,3.89-19,23.31,1.91,10.62,12.74,18.71,21.23,23.09,6.62,3.42,14.22,4.44,21.67,4.49,16.08.11,32.45-4.3,45.29-14,5.2-3.93,9.94-8.94,11.74-15.2Z" transform="translate(-217.19 -61.38)"/><g id="_Clip_Group_" data-name="&lt;Clip Group&gt;"><g class="cls-6"><path id="_Path_8" data-name="&lt;Path&gt;" class="cls-7" d="M273.55,115.19s2.67,10.56,12.33,9.43,4.41-11.72,4.41-11.72Z" transform="translate(-217.19 -61.38)"/><path id="_Path_9" data-name="&lt;Path&gt;" class="cls-7" d="M297.22,113.07s-4.67,9.71,2.67,9.74,12.33-1.93,14-7.62S297.22,113.07,297.22,113.07Z" transform="translate(-217.19 -61.38)"/><path id="_Path_10" data-name="&lt;Path&gt;" class="cls-8" d="M248.16,148.12s55.81-12.22,64.1,19.94S229.06,182.47,248.16,148.12Z" transform="translate(-217.19 -61.38)"/></g></g><g id="_Group_6" data-name="&lt;Group&gt;"><path id="_Path_11" data-name="&lt;Path&gt;" class="cls-2" d="M244.33,104.49a11.37,11.37,0,0,1,1-1.08,23.83,23.83,0,0,1,3.11-2.4,27.87,27.87,0,0,1,5-2.54,26.18,26.18,0,0,1,3-1,27.71,27.71,0,0,1,3.23-.65,24.89,24.89,0,0,1,3.32-.21,14.22,14.22,0,0,1,1.64.07,15.44,15.44,0,0,1,1.59.19,18.8,18.8,0,0,1,3,.7,16.74,16.74,0,0,1,4.45,2.2c.55.39,1,.77,1.36,1.08.7.67,1.05,1.08,1.05,1.08s-.55-.12-1.43-.38l-1.6-.38c-.62-.11-1.3-.27-2.05-.36s-1.54-.21-2.39-.28-1.73-.11-2.64-.11a41.83,41.83,0,0,0-5.71.39,88,88,0,0,0-10.79,2.31Z" transform="translate(-217.19 -61.38)"/></g><g id="_Group_7" data-name="&lt;Group&gt;"><path id="_Path_12" data-name="&lt;Path&gt;" class="cls-2" d="M308,101.29a11.39,11.39,0,0,1,1-1.08,23.82,23.82,0,0,1,3.11-2.4,27.86,27.86,0,0,1,5-2.54,26.19,26.19,0,0,1,3-1,27.71,27.71,0,0,1,3.23-.65,24.89,24.89,0,0,1,3.32-.21,14.21,14.21,0,0,1,1.64.07,15.44,15.44,0,0,1,1.59.19,18.8,18.8,0,0,1,3,.7,16.74,16.74,0,0,1,4.45,2.2c.55.39,1,.77,1.36,1.08.7.67,1.05,1.08,1.05,1.08s-.55-.12-1.43-.38l-1.6-.38c-.62-.11-1.3-.27-2.05-.36s-1.54-.21-2.39-.28-1.73-.11-2.64-.11a41.82,41.82,0,0,0-5.71.39,88,88,0,0,0-10.79,2.31Z" transform="translate(-217.19 -61.38)"/></g></g><path id="_Path_13" data-name="&lt;Path&gt;" class="cls-2" d="M300.78,62.1s4.5,17.32-25.75,20.52C275,82.62,259.53,58.13,300.78,62.1Z" transform="translate(-217.19 -61.38)"/></svg>