<?xml version="1.0" encoding="UTF-8"?>
<svg width="128px" height="128px" viewBox="0 0 128 128" version="1.1" xmlns="http://www.w3.org/2000/svg" xmlns:xlink="http://www.w3.org/1999/xlink">
    <!-- Generator: Sketch 46.2 (44496) - http://www.bohemiancoding.com/sketch -->
    <title>Group</title>
    <desc>Created with Sketch.</desc>
    <defs></defs>
    <g id="Welcome" stroke="none" stroke-width="1" fill="none" fill-rule="evenodd">
        <g id="Trang-nhân-vật" transform="translate(-464.000000, -525.000000)">
            <g id="Group-15" transform="translate(129.000000, 226.000000)">
                <g id="Group-10">
                    <g id="Group" transform="translate(336.000000, 300.000000)">
                        <path d="M62.924129,-1.42108547e-14 C28.1663578,-1.42108547e-14 0,28.1663578 0,62.924129 C0,97.6693372 28.1663578,125.82732 62.924129,125.82732 C97.6735249,125.82732 125.84407,97.6651496 125.84407,62.924129 C125.848258,28.1663578 97.6735249,-1.42108547e-14 62.924129,-1.42108547e-14 L62.924129,-1.42108547e-14 Z" id="Shape" fill-opacity="0.281278306" fill="#000000"></path>
                        <g id="play">
                            <path d="M83.6782874,60.4617713 L57.5471437,41.4664399 C56.5881642,40.7712845 55.3151085,40.6665924 54.264,41.2068035 C53.2045161,41.742827 52.5428622,42.8316246 52.5428622,44.0083636 L52.5428622,81.9864633 C52.5428622,83.1757654 53.2045161,84.2603754 54.264,84.7963988 C54.7120821,85.0225337 55.2020411,85.1356012 55.6961877,85.1356012 C56.3410909,85.1356012 56.9943695,84.9304047 57.5471437,84.5241994 L83.6782874,65.5456188 C84.503261,64.9384047 84.9848446,64.0003636 84.9848446,63.003695 C84.9890323,61.9902757 84.4948856,61.0564223 83.6782874,60.4617713 L83.6782874,60.4617713 Z" id="Shape" fill="#FFFFFF"></path>
                            <path d="M62.924129,0.00837536657 C28.1663578,0.00837536657 0,28.1747331 0,62.9325044 C0,97.6777126 28.1663578,125.835695 62.924129,125.835695 C97.6735249,125.835695 125.84407,97.6735249 125.84407,62.9325044 C125.848258,28.1747331 97.6735249,0.00837536657 62.924129,0.00837536657 L62.924129,0.00837536657 Z" id="Shape" stroke="#FFFFFF" stroke-width="1.1"></path>
                        </g>
                    </g>
                </g>
            </g>
        </g>
    </g>
</svg>