<svg id="Layer_1" data-name="Layer 1" xmlns="http://www.w3.org/2000/svg" viewBox="0 0 141.36 151.72"><defs><style>.cls-1{fill:#939598;}.cls-2{fill:#e6e7e8;}.cls-3{fill:#fff;}.cls-4{fill:#d1d3d4;}</style></defs><title>icon-tvshow</title><g id="_Group_" data-name="&lt;Group&gt;"><g id="_Group_2" data-name="&lt;Group&gt;"><g id="_Group_3" data-name="&lt;Group&gt;"><path id="_Compound_Path_" data-name="&lt;Compound Path&gt;" class="cls-1" d="M357.24,122a58.06,58.06,0,0,0-.48-6.09,45.5,45.5,0,0,0-1.27-5.94,33.69,33.69,0,0,0-2.24-5.59c-.22-.44-.49-.9-.71-1.29s-.54-.89-.81-1.3A23.12,23.12,0,0,0,350,99.37a24.75,24.75,0,0,0-9.34-6.83l-.67-.28-.34-.13-.17-.07-.08,0,0,0,0,0c-.47-.14-1-.37-1.42-.44-.82-.21-1.81-.41-2.77-.58-1.94-.34-3.94-.59-5.93-.81-4-.4-8-.72-12.09-.91s-8.09-.38-12.14-.5c-2-.09-4-.14-6.07-.19l-6.07-.15c-4.06-.1-8.09-.15-12.15-.18s-8.1,0-12.16,0-8.11.13-12.17.25l-3,.12-2.95.25a11.82,11.82,0,0,0-1.43.19l-1.36.22a24.21,24.21,0,0,0-2.76.61,30,30,0,0,0-10.29,4.89,26.92,26.92,0,0,0-2.23,1.84c-.71.65-1.36,1.38-2,2.07a35.31,35.31,0,0,0-3.44,4.75,41.19,41.19,0,0,0-4.47,11,58.85,58.85,0,0,0-1.7,11.89c-.07,2-.08,4,0,6a50.37,50.37,0,0,0,.56,5.92v.32a87,87,0,0,0,1.66,14.07,89.93,89.93,0,0,0,3.74,13.59c.38,1.1.82,2.18,1.26,3.25l.33.81,0,.1,0,.05-.06-.15.1.2.2.41.82,1.63c.14.26.27.57.41.79l.42.6.81,1.21a10.51,10.51,0,0,0,1,1.22l1,1.22a37.68,37.68,0,0,0,10.4,7.75,69,69,0,0,0,12.6,4.93A111.28,111.28,0,0,0,269.56,193c1.14.2,2.31.3,3.47.43l3.48.37c2.34.13,4.67.35,7,.41l3.53.12c.57,0,1.22.06,1.71.06l1.82,0c1.24,0,2.37,0,3.52,0s2.32,0,3.48-.07a134.2,134.2,0,0,0,13.87-1.15c2.29-.31,4.55-.72,6.8-1.16s4.45-1,6.62-1.66c1.07-.35,2.17-.65,3.22-1,.53-.19,1.07-.36,1.58-.57l1.51-.58,1.66-.69c.48-.22,1-.42,1.45-.66,1-.47,2-1,2.92-1.51a29,29,0,0,0,9.6-8.05c.15-.2.28-.42.42-.63l.21-.32c-.11.23,0,0,0,.07l0-.05.05-.1.11-.2.87-1.6c.31-.55.47-1,.71-1.49s.47-.95.68-1.49a66.59,66.59,0,0,0,2.34-6.59,112.4,112.4,0,0,0,3.15-14c.76-4.76,1.29-9.57,1.58-14.4s.38-9.67.3-14.51Zm1,0c.15,4.86.21,9.71.25,14.58s0,9.74-.17,14.64a142.11,142.11,0,0,1-1.14,14.77,72.22,72.22,0,0,1-1.39,7.46c-.32,1.24-.74,2.64-1.14,3.83l-.63,1.71-.08.21,0,.11,0,.05c0,.07,0-.09-.08.18l-.22.49c-.15.32-.29.65-.46,1a33.41,33.41,0,0,1-11.06,12c-1.09.77-2.23,1.46-3.37,2.13-.57.34-1.19.66-1.79,1l-1.64.84-1.84.84c-.59.28-1.2.51-1.8.76-1.2.51-2.42.95-3.64,1.38a90.84,90.84,0,0,1-14.91,3.68c-2.51.42-5,.72-7.54,1s-5,.38-7.55.46a145,145,0,0,1-15-.3c-2.49-.15-5-.46-7.48-.69l-3.74-.52c-1.24-.18-2.49-.33-3.73-.58l-3.72-.69c-1.24-.24-2.47-.57-3.71-.86-2.47-.53-4.91-1.34-7.36-2A74.4,74.4,0,0,1,239,193a42.28,42.28,0,0,1-12.15-10.38L225.69,181a15.84,15.84,0,0,1-1.15-1.74l-1-1.92-.51-1c-.15-.31-.23-.57-.35-.86l-.65-1.7-.16-.42-.08-.21s-.17-.41-.1-.25l0-.06,0-.11-.27-.91c-.36-1.22-.72-2.43-1-3.66a97.93,97.93,0,0,1-2.52-14.79c-.26-2.47-.38-5-.47-7.43s-.11-4.92,0-7.49l0,.32a76.92,76.92,0,0,1,.06-12.66,73.63,73.63,0,0,1,2-12.43c.26-1,.56-2,.85-3s.64-2,1.05-3,.75-2,1.22-2.94c.22-.48.43-1,.67-1.45l.76-1.41a36.23,36.23,0,0,1,19.13-17,29.53,29.53,0,0,1,3.15-1.1l1.64-.46a16.14,16.14,0,0,1,1.59-.4l1.51-.31.76-.15.38-.08.19,0,.09,0h0l.17,0,3.08-.49c4.12-.64,8.26-1.11,12.4-1.52s8.31-.63,12.47-.77c2.08-.06,4.16-.07,6.25-.09s4.2.05,6.24.11,4.16.19,6.24.31,4.15.32,6.23.51c4.15.43,8.28,1,12.4,1.68s8.22,1.54,12.29,2.62c2,.54,4.07,1.11,6.1,1.79,1,.36,2,.7,3.13,1.18.58.22,1,.46,1.44.69l0,0,.12.06.09.05.18.1.35.2.7.42A30.53,30.53,0,0,1,351.78,98c.6.88,1.14,1.8,1.66,2.75.25.47.47.92.7,1.38s.45,1,.65,1.47a38,38,0,0,1,1.94,6,48.59,48.59,0,0,1,1.08,6.14,59.16,59.16,0,0,1,.43,6.19Z" transform="translate(-217.13 -53.39)"/></g></g><path id="_Path_" data-name="&lt;Path&gt;" class="cls-2" d="M253,85.42s-20.88,5.19-22.3,20.76-4.41,80.28,37.33,86.41c41.26,6.06,64.56.14,65.09,0,8.86-3.93,14.76-9.12,17.55-14.72,6.16-12.33,7.59-36,7.11-55.95-.2-8.34-1.9-14.59-4.39-19.33-30.6-1.07-56.49-16.91-59.2-18.62A305.55,305.55,0,0,0,253,85.42Z" transform="translate(-217.13 -53.39)"/><circle id="_Path_2" data-name="&lt;Path&gt;" class="cls-3" cx="72.32" cy="88.21" r="48.13"/><path id="_Path_3" data-name="&lt;Path&gt;" class="cls-1" d="M340.2,90.17C335,87.72,317,84.7,294.15,84c2.71,1.71,28.6,17.55,59.2,18.62A27.74,27.74,0,0,0,340.2,90.17Z" transform="translate(-217.13 -53.39)"/><path id="_Path_4" data-name="&lt;Path&gt;" class="cls-4" d="M268,192.59c-41.74-6.13-38.76-70.84-37.33-86.41S253,85.42,253,85.42c-40.3,4.27-33.66,53.1-33.66,53.1A99,99,0,0,0,225,171.72c6.16,16.59,28.45,27,63.37,28,19.08.52,34.05-2.37,44.72-7.09C332.54,192.74,309.24,198.65,268,192.59Z" transform="translate(-217.13 -53.39)"/><g id="_Group_4" data-name="&lt;Group&gt;"><g id="_Group_5" data-name="&lt;Group&gt;"><circle id="_Path_5" data-name="&lt;Path&gt;" class="cls-2" cx="35.45" cy="71.71" r="19.48"/><g id="_Group_6" data-name="&lt;Group&gt;"><circle id="_Path_6" data-name="&lt;Path&gt;" class="cls-3" cx="35.45" cy="68.74" r="19.52"/><circle id="_Path_7" data-name="&lt;Path&gt;" class="cls-1" cx="35.45" cy="68.74" r="15.41"/><g id="_Group_7" data-name="&lt;Group&gt;"><g id="_Group_8" data-name="&lt;Group&gt;"><path id="_Compound_Path_2" data-name="&lt;Compound Path&gt;" class="cls-1" d="M272.24,122.13l-.06,1.38a12.69,12.69,0,0,1-.16,1.66c-.05.33-.07.68-.14,1.05l-.25,1.18a22.29,22.29,0,0,1-2.19,5.77,19.23,19.23,0,0,1-5.35,6.18,18.54,18.54,0,0,1-9.15,3.47c-.44.06-.88,0-1.32.05a13.1,13.1,0,0,1-1.38,0,20.1,20.1,0,0,1-2.62-.34,19.39,19.39,0,0,1-5.26-1.83,23.56,23.56,0,0,1-4.65-3.2,25.13,25.13,0,0,1-3.76-4.32,22.1,22.1,0,0,1-3.7-11,23,23,0,0,1,.09-3,21.05,21.05,0,0,1,.5-3,20.63,20.63,0,0,1,2.39-5.54,22.13,22.13,0,0,1,3.89-4.54,21.44,21.44,0,0,1,4.93-3.19,19.27,19.27,0,0,1,5.47-1.61,19.87,19.87,0,0,1,2.76-.23h.42l.31,0,.63,0c.43,0,.81,0,1.26.11a20.83,20.83,0,0,1,2.65.51l1.24.34c.4.14.79.31,1.17.46a18.81,18.81,0,0,1,4.17,2.35,20,20,0,0,1,5.34,6.22,22.23,22.23,0,0,1,2.19,5.78l.25,1.18c.06.37.09.73.14,1.05a12.53,12.53,0,0,1,.16,1.66l.06,1.39Zm-.3,0-.08-1.36a9.88,9.88,0,0,0-.22-1.62c-.06-.32-.11-.66-.2-1L271.1,117a16.31,16.31,0,0,0-2.76-5.19,19.51,19.51,0,0,0-5.62-4.86,22.31,22.31,0,0,0-3.8-1.7,19.36,19.36,0,0,0-4.24-.94c-.35-.05-.81,0-1.21-.06l-.63,0h-.53a18.35,18.35,0,0,0-2.34.2,19,19,0,0,0-4.67,1.29,19.4,19.4,0,0,0-4.32,2.57,20,20,0,0,0-3.56,3.78,21.42,21.42,0,0,0-2.45,4.72,19.56,19.56,0,0,0-.72,2.59,21.26,21.26,0,0,0-.38,2.75,19.5,19.5,0,0,0,.55,5.5,18.48,18.48,0,0,0,2.27,5,16.5,16.5,0,0,0,1.71,2.15,13.16,13.16,0,0,0,1,1l1,.88a17.7,17.7,0,0,0,4.61,2.56,18.42,18.42,0,0,0,4.87,1.07,19.81,19.81,0,0,0,2.49.09c.31,0,.76-.05,1.13-.07s.78,0,1.15-.12a22.51,22.51,0,0,0,8.12-2.84,20.56,20.56,0,0,0,5.6-4.9,16.29,16.29,0,0,0,2.76-5.2l.34-1.13c.09-.36.14-.7.2-1a9.75,9.75,0,0,0,.21-1.63l.08-1.37Z" transform="translate(-217.13 -53.39)"/></g></g></g></g><circle id="_Path_8" data-name="&lt;Path&gt;" class="cls-3" cx="47.44" cy="59.35" r="3.42"/></g><g id="_Group_9" data-name="&lt;Group&gt;"><g id="_Group_10" data-name="&lt;Group&gt;"><circle id="_Path_9" data-name="&lt;Path&gt;" class="cls-2" cx="108.47" cy="71.71" r="19.48"/><g id="_Group_11" data-name="&lt;Group&gt;"><circle id="_Path_10" data-name="&lt;Path&gt;" class="cls-3" cx="108.47" cy="68.74" r="19.52"/><circle id="_Path_11" data-name="&lt;Path&gt;" class="cls-1" cx="108.47" cy="68.74" r="15.41"/><g id="_Group_12" data-name="&lt;Group&gt;"><g id="_Group_13" data-name="&lt;Group&gt;"><path id="_Compound_Path_3" data-name="&lt;Compound Path&gt;" class="cls-1" d="M345.26,122.13l-.06,1.38a12.7,12.7,0,0,1-.16,1.66c-.05.33-.07.68-.14,1.05l-.25,1.18a22.28,22.28,0,0,1-2.19,5.77,19.23,19.23,0,0,1-5.35,6.18,18.54,18.54,0,0,1-9.15,3.47c-.44.06-.88,0-1.32.05a13.1,13.1,0,0,1-1.38,0,20.1,20.1,0,0,1-2.62-.34,19.39,19.39,0,0,1-5.26-1.83,23.55,23.55,0,0,1-4.65-3.2,25.13,25.13,0,0,1-3.76-4.32,22.09,22.09,0,0,1-3.7-11,23,23,0,0,1,.09-3,21.05,21.05,0,0,1,.5-3,20.63,20.63,0,0,1,2.39-5.54,22.13,22.13,0,0,1,3.89-4.54,21.44,21.44,0,0,1,4.93-3.19,19.26,19.26,0,0,1,5.47-1.61,19.87,19.87,0,0,1,2.76-.23h.42l.31,0,.63,0c.43,0,.81,0,1.26.11a20.84,20.84,0,0,1,2.65.51l1.24.34c.4.14.79.31,1.17.46a18.81,18.81,0,0,1,4.17,2.35,20,20,0,0,1,5.34,6.22,22.23,22.23,0,0,1,2.19,5.78l.25,1.18c.06.37.09.73.14,1.05a12.54,12.54,0,0,1,.16,1.66l.06,1.39Zm-.3,0-.08-1.36a9.88,9.88,0,0,0-.22-1.62c-.06-.32-.11-.66-.2-1l-.34-1.12a16.31,16.31,0,0,0-2.76-5.19,19.51,19.51,0,0,0-5.62-4.86,22.31,22.31,0,0,0-3.8-1.7,19.36,19.36,0,0,0-4.24-.94c-.35-.05-.81,0-1.21-.06l-.63,0h-.53a18.35,18.35,0,0,0-2.34.2,19,19,0,0,0-4.67,1.29,19.4,19.4,0,0,0-4.32,2.57,20.05,20.05,0,0,0-3.56,3.78,21.43,21.43,0,0,0-2.45,4.72,19.55,19.55,0,0,0-.72,2.59,21.25,21.25,0,0,0-.38,2.75,19.49,19.49,0,0,0,.55,5.5,18.48,18.48,0,0,0,2.27,5,16.51,16.51,0,0,0,1.71,2.15,13.14,13.14,0,0,0,1,1l1,.88a17.7,17.7,0,0,0,4.61,2.56,18.42,18.42,0,0,0,4.87,1.07,19.81,19.81,0,0,0,2.49.09c.31,0,.76-.05,1.13-.07s.78,0,1.15-.12a22.51,22.51,0,0,0,8.12-2.84,20.56,20.56,0,0,0,5.6-4.9,16.29,16.29,0,0,0,2.76-5.2l.34-1.13c.09-.36.14-.7.2-1a9.75,9.75,0,0,0,.21-1.63l.08-1.37Z" transform="translate(-217.13 -53.39)"/></g></g></g></g><circle id="_Path_12" data-name="&lt;Path&gt;" class="cls-3" cx="120.45" cy="59.35" r="3.42"/></g><g id="_Group_14" data-name="&lt;Group&gt;"><path id="_Path_13" data-name="&lt;Path&gt;" class="cls-1" d="M286.53,136.57a3,3,0,0,0,.28-.39,8.18,8.18,0,0,0,.43-1,4.35,4.35,0,0,1,.94-1.45,3.19,3.19,0,0,1,1.11-.71,3.3,3.3,0,0,1,1.5-.17,3.69,3.69,0,0,1,2.26,1.16l.1.11a.63.63,0,0,1,.09.11l.15.21a3.39,3.39,0,0,1,.26.45,3.88,3.88,0,0,1,.29.84A4.29,4.29,0,0,1,294,137a3.21,3.21,0,0,1-.08.5,4.51,4.51,0,0,1-.45-.23c-.27-.15-.62-.38-1-.61l-.57-.34a2.85,2.85,0,0,0-.27-.14l-.14-.07s-.09-.06-.07,0l-.06,0a3.51,3.51,0,0,0-.92-.24,2.09,2.09,0,0,1-.27,0,1.71,1.71,0,0,0-.43.08c-.36.12-.85.4-1.35.6a2.94,2.94,0,0,1-1.36.23A1.28,1.28,0,0,1,286.53,136.57Z" transform="translate(-217.13 -53.39)"/></g><circle id="_Path_14" data-name="&lt;Path&gt;" class="cls-3" cx="133.43" cy="64.79" r="5.44"/><circle id="_Path_15" data-name="&lt;Path&gt;" class="cls-3" cx="133.43" cy="82.56" r="5.44"/><g id="_Group_15" data-name="&lt;Group&gt;"><path id="_Path_16" data-name="&lt;Path&gt;" class="cls-1" d="M228.94,92.36a8.79,8.79,0,0,1,.57-1.16,19.61,19.61,0,0,1,1.9-2.79,22,22,0,0,1,1.5-1.67c.55-.58,1.18-1.13,1.84-1.71s1.38-1.11,2.14-1.62A26.78,26.78,0,0,1,239.26,82a22.11,22.11,0,0,1,2.52-1.2,18.19,18.19,0,0,1,2.55-.9c.42-.12.83-.26,1.25-.34l1.22-.23A14.38,14.38,0,0,1,249,79c.7,0,1.35,0,1.91,0s1.07.11,1.48.16c.81.11,1.27.22,1.27.22s-.43.24-1.16.57c-.37.16-.81.37-1.31.56s-1,.51-1.65.77-1.24.56-1.91.89-1.37.63-2.09,1c-.36.18-.72.35-1.09.53s-.73.4-1.1.58c-.75.37-1.5.77-2.24,1.19s-1.48.83-2.23,1.22l-2.16,1.22-3.87,2.24-2.85,1.59Z" transform="translate(-217.13 -53.39)"/></g><g id="_Group_16" data-name="&lt;Group&gt;"><path id="_Path_17" data-name="&lt;Path&gt;" class="cls-1" d="M322.34,81.26a8.79,8.79,0,0,1,1.22-.42,19.61,19.61,0,0,1,3.32-.62,22,22,0,0,1,2.24-.12c.8,0,1.64,0,2.5.09s1.76.19,2.66.37a26.78,26.78,0,0,1,2.7.65,22.11,22.11,0,0,1,2.63.93A18.19,18.19,0,0,1,342,83.32c.38.22.77.41,1.12.64l1,.7A14.38,14.38,0,0,1,346,86.07c.52.47,1,.92,1.37,1.34s.68.83.93,1.16c.5.65.74,1.05.74,1.05s-.47-.13-1.22-.42c-.37-.15-.83-.31-1.32-.53s-1.1-.38-1.71-.62-1.27-.48-2-.72-1.42-.53-2.18-.77c-.38-.12-.76-.26-1.15-.4s-.79-.23-1.19-.37c-.79-.26-1.6-.52-2.42-.74s-1.64-.46-2.44-.71L331,83.67l-4.32-1.16-3.14-.89Z" transform="translate(-217.13 -53.39)"/></g><g id="_Group_17" data-name="&lt;Group&gt;"><path id="_Path_18" data-name="&lt;Path&gt;" class="cls-1" d="M274.44,59.52a31.42,31.42,0,0,1,2.42,2.32c.74.82,1.49,1.63,2.18,2.48a63.63,63.63,0,0,1,3.9,5.26,37.34,37.34,0,0,1,3,5.83c.45,1,.92,2,1.43,3a29.77,29.77,0,0,0,1.71,2.79l-1-.07A41.33,41.33,0,0,0,291,77.37c.89-1.29,1.74-2.63,2.65-3.9s1.89-2.5,2.85-3.72,2-2.44,2.95-3.64A78.79,78.79,0,0,1,306,59.37c1.15-1.06,2.33-2.1,3.55-3.11s2.47-2,3.81-2.88l.3.27c-.73,1.44-1.55,2.79-2.4,4.12s-1.75,2.62-2.67,3.89a78.79,78.79,0,0,1-5.91,7.27q-1.61,1.7-3.27,3.36c-1.1,1.11-2.19,2.22-3.36,3.27s-2.38,2.06-3.56,3.1a41.34,41.34,0,0,0-3.38,3.26l-.54.6-.42-.67a29.77,29.77,0,0,0-1.88-2.68c-.68-.86-1.41-1.68-2.15-2.5a37.33,37.33,0,0,1-4.13-5.11,63.62,63.62,0,0,1-3.27-5.68c-.5-1-1-2-1.4-3a31.43,31.43,0,0,1-1.16-3.15Z" transform="translate(-217.13 -53.39)"/></g><g id="_Group_18" data-name="&lt;Group&gt;"><path id="_Path_19" data-name="&lt;Path&gt;" class="cls-1" d="M268.81,155.54a12.53,12.53,0,0,1,1.32-1.46,25.43,25.43,0,0,1,4.09-3.24,28.91,28.91,0,0,1,6.74-3.16,28.27,28.27,0,0,1,4.14-1c.72-.12,1.45-.2,2.18-.27s1.48-.1,2.22-.09,1.48,0,2.22.09a19.66,19.66,0,0,1,2.19.26,26,26,0,0,1,4.15,1,26.33,26.33,0,0,1,3.67,1.48,28.21,28.21,0,0,1,3.06,1.73,27.12,27.12,0,0,1,2.37,1.76,19.74,19.74,0,0,1,1.69,1.5c.89.89,1.35,1.42,1.35,1.42s-.68-.26-1.8-.76c-.55-.27-1.26-.51-2-.85s-1.68-.62-2.62-1c-.48-.18-1-.33-1.5-.5s-1-.35-1.61-.49c-1.1-.33-2.27-.61-3.48-.86s-2.47-.44-3.75-.57c-.64-.07-1.29-.12-1.93-.15s-1.3,0-2,0a35.53,35.53,0,0,0-3.89.21c-1.28.14-2.54.34-3.76.57a51.17,51.17,0,0,0-6.62,1.81c-1.93.66-3.53,1.32-4.65,1.82S268.81,155.54,268.81,155.54Z" transform="translate(-217.13 -53.39)"/></g></g></svg>