<svg id="Layer_1" data-name="Layer 1" xmlns="http://www.w3.org/2000/svg" xmlns:xlink="http://www.w3.org/1999/xlink" viewBox="0 0 155 185.03"><defs><style>.cls-1{fill:none;}.cls-2{fill:#801277;}.cls-3{fill:#ffce00;}.cls-4{clip-path:url(#clip-path);}.cls-5{fill:#fff;}.cls-6{fill:#ec6b6b;}.cls-7{fill:#eabf0a;}</style><clipPath id="clip-path" transform="translate(-211.68 -36.67)"><path id="_Clipping_Path_" data-name="&lt;Clipping Path&gt;" class="cls-1" d="M290.37,178.79c0-2-.68-4.34-2.89-4.81a8.35,8.35,0,0,0-3.74.36l-6.9,1.77c-2.35.61-4.71,1.24-7,2.05a6.91,6.91,0,0,0-2.22,1.13c-2.58,2.2.92,6.82,2.42,8.76,2.1,2.72,5.15,5.18,8.79,4.82a12.51,12.51,0,0,0,9.89-7.28A18.05,18.05,0,0,0,290.37,178.79Z"/></clipPath></defs><title>icon-music-n</title><g id="_Group_" data-name="&lt;Group&gt;"><g id="_Group_2" data-name="&lt;Group&gt;"><g id="_Group_3" data-name="&lt;Group&gt;"><path id="_Compound_Path_" data-name="&lt;Compound Path&gt;" class="cls-2" d="M296.75,132.89v.54c0,.34,0,.85-.07,1.52a17.93,17.93,0,0,1-1.42,5.75,10.94,10.94,0,0,1-2.57,3.61,9.23,9.23,0,0,1-4.85,2.26,16.5,16.5,0,0,1-6.13-.32c-2.06-.44-4.27-1.09-6.52-1.79l-7.1-2.24c-2.48-.74-5.08-1.46-7.81-2a46,46,0,0,0-8.5-1.05,30.44,30.44,0,0,0-8.85,1.09,28.06,28.06,0,0,0-8.37,4,35.7,35.7,0,0,0-3.76,3.13,32.94,32.94,0,0,0-3.38,3.7,32.09,32.09,0,0,0-5,8.88,35,35,0,0,0-2.07,10.36,39,39,0,0,0,5.59,21.43,39.82,39.82,0,0,0,7.45,9,38.61,38.61,0,0,0,10.1,6.5,41.63,41.63,0,0,0,12,3.28c1.06.12,2.12.23,3.19.29l.4,0h.36l.9,0c.63,0,1.12,0,1.65,0a52.63,52.63,0,0,0,6.53-.4,45.84,45.84,0,0,0,24.12-10.43,53,53,0,0,0,15.53-23,55.78,55.78,0,0,0,3-14.1,49.46,49.46,0,0,0,.05-7.23c0-.3,0-.6-.07-.9l-.08-.82-.25-2c-.17-1.3-.31-2.65-.5-3.92-.75-5-1.65-10.26-2.67-15.46s-2-10.44-3.12-15.67c-2.14-10.48-4.45-21-6.86-31.48L294,69.88l-2-7.82-.49-2-.25-1-.16-.64a2.17,2.17,0,0,1,3.43-2.17l.41.33.51.45c.26.26.53.52.77.77.5.51,1,1,1.42,1.51a126.93,126.93,0,0,0,11.21,11.21A43.2,43.2,0,0,0,322,78.51a25.59,25.59,0,0,0,3.62,1,16.72,16.72,0,0,0,1.84.27l2,.19a34.74,34.74,0,0,1,4.1.67,16.1,16.1,0,0,1,4.1,1.47,7.52,7.52,0,0,1,2,1.47A5.34,5.34,0,0,1,340.92,86a6.21,6.21,0,0,1,0,2.63,10.31,10.31,0,0,1-.71,2.21c-.6,1.36-1.31,2.5-1.88,3.6a27.44,27.44,0,0,0-1.5,3.35,12.61,12.61,0,0,0-.82,6.64,9.11,9.11,0,0,0,3.33,5.28c.43.35.88.7,1.36,1l.36.24.09.05.21.12.41.23.27.1A9.75,9.75,0,0,0,345,112a15.33,15.33,0,0,0,6.41-1,14,14,0,0,0,5.22-3.44,12.76,12.76,0,0,0,1.76-2.42,13.28,13.28,0,0,0,1.08-2.76,16.65,16.65,0,0,0,.31-6.12c0-.52-.17-1.06-.25-1.58l0-.2c0-.16,0,0,0-.11l-.1-.45-.21-.89c-.16-.48-.26-.89-.44-1.37a14.32,14.32,0,0,0-.56-1.39,13.87,13.87,0,0,0-8.25-7.4,34.13,34.13,0,0,0-6.06-1.67c-2.16-.41-4.39-.74-6.81-1.17l-.92-.17-.47-.1-.24,0-.34-.08-1.68-.41c-.56-.15-1.1-.27-1.69-.44l-1.8-.55c-.59-.19-1.21-.36-1.78-.56l-1.7-.62c-1.14-.39-2.25-.84-3.34-1.32a85.28,85.28,0,0,1-12.36-6.53,101.94,101.94,0,0,1-20-16.88L288.66,50l-2-2.35c-.67-.77-1.29-1.57-1.9-2.37l-.92-1.19-.46-.59-.23-.3-.11-.15c-.22-.25.17.18.08.09L283,43a1.92,1.92,0,0,0,.26.24,1.85,1.85,0,0,0,.55.3,1.94,1.94,0,0,0,1,.11,1.88,1.88,0,0,0,1.38-.93,2,2,0,0,0,.27-.89,2,2,0,0,0,0-.39c0-.1,0,0,0,0l0,.18.2,1.41.76,5.56c.94,7.33,1.77,14.29,2.52,20.83l2,18.32,1.67,15.55L296,125.16l.79,7.71Zm-1,.08-.83-7.7c-.58-5-1.51-12.36-3-21.67-.74-4.65-1.63-9.8-2.68-15.38l-1.66-8.71-1.92-9.33c-1.34-6.43-2.82-13.25-4.43-20.43l-1.2-5.46-.31-1.39,0-.17a2.73,2.73,0,0,1-.06-.32,4.76,4.76,0,0,1,0-1.1,4.86,4.86,0,0,1,.71-2.23A5.08,5.08,0,0,1,286.44,37a4.94,4.94,0,0,1,1.17.65,6.13,6.13,0,0,1,.55.46l.13.13,2.12,2.32q1,1.06,2,2.09l2,2.09,2.09,2a114.59,114.59,0,0,0,19,14.9,88.64,88.64,0,0,0,11.15,5.82c1,.42,1.95.84,2.95,1.2l1.49.57c.5.18,1,.32,1.47.49l1.47.48c.51.16,1.09.3,1.64.45l1.67.46.64.16.78.17c4.29.89,9.39,1.62,14.41,3.85a24,24,0,0,1,7.09,4.79A20.57,20.57,0,0,1,365,87.49a20.9,20.9,0,0,1,.68,2c.2.68.35,1.46.51,2.16l.14.91.07.45s.06.35,0,.35l0,.26c.06.69.16,1.37.17,2.08a23.16,23.16,0,0,1-1.1,8.54,19.36,19.36,0,0,1-1.94,4,18.7,18.7,0,0,1-2.9,3.43,19.57,19.57,0,0,1-7.6,4.27,21,21,0,0,1-8.59.76,14,14,0,0,1-4.43-1.29l-.6-.31-.41-.26-.2-.13-.31-.21-.42-.32c-.56-.43-1.11-.9-1.63-1.4a13.68,13.68,0,0,1-4.27-7.82,16.27,16.27,0,0,1,1.33-8.57,30.87,30.87,0,0,1,1.84-3.71c.68-1.2,1.41-2.24,1.87-3.28a4.57,4.57,0,0,0,.55-2.77,3.11,3.11,0,0,0-1.71-1.92,20.15,20.15,0,0,0-7-1.84l-2-.21c-.7-.08-1.4-.16-2.09-.3a28.62,28.62,0,0,1-4.06-1,47.46,47.46,0,0,1-14.2-8.3A130.45,130.45,0,0,1,295,62a23.45,23.45,0,0,0-2.74-2.47A1.78,1.78,0,0,0,295,57.72c0-.22,0,.08,0,.09l.07.24.3,1,.59,1.93,2.34,7.74L303,84.19c3.07,10.36,6.06,20.74,8.85,31.16,1.37,5.22,2.7,10.43,3.93,15.68s2.31,10.49,3.31,15.92c.25,1.35.43,2.63.64,3.94l.3,2,.14,1.15c0,.36.08.72.11,1.07a58.65,58.65,0,0,1,.17,8.57,65.26,65.26,0,0,1-3.08,16.59,62.25,62.25,0,0,1-18,27.78,54,54,0,0,1-13.93,8.92,55.7,55.7,0,0,1-15.64,4.29,63.19,63.19,0,0,1-7.94.47c-.67,0-1.39,0-2,0l-.9,0-.54,0-.49,0c-1.31-.08-2.62-.2-3.92-.38a52.24,52.24,0,0,1-15-4.34,47.9,47.9,0,0,1-21.71-20.21,46.8,46.8,0,0,1-4.9-13.35,44.24,44.24,0,0,1-.56-13.66,38.94,38.94,0,0,1,15-26.76,41.36,41.36,0,0,1,4.74-3.21,33.64,33.64,0,0,1,10.27-3.8,34.47,34.47,0,0,1,10.09-.31,50.87,50.87,0,0,1,9,1.82c2.79.81,5.39,1.75,7.84,2.69l7,2.65c2.21.82,4.27,1.51,6.29,2a14.17,14.17,0,0,0,5.57.5,8,8,0,0,0,4.27-1.85,9.24,9.24,0,0,0,2.35-3.18,16.92,16.92,0,0,0,1.39-5.38,16.31,16.31,0,0,0,.09-1.89Z" transform="translate(-211.68 -36.67)"/></g></g><path id="_Path_" data-name="&lt;Path&gt;" class="cls-3" d="M296.26,132.92h0s.65,16-14,12.67-35.33-17.33-54.67.67c-24.31,22.63-8.67,68,31.33,70s60-34.67,56.67-62.67c-3.16-26.56-20.72-89.13-22.52-95.48a.2.2,0,0,1,.3-.22c3.66,2.44,17.75,22,34.31,23.39,15.25,1.25,12.24,7.13,9.87,11.13-4.72,8-5.5,15,2.42,20.42,6.63,4.53,24.51.53,23-19-1.13-14.58-23.5-17.91-32-19.89-17.13-4-30.12-14.49-45.23-33.18A1.55,1.55,0,0,0,283,42C286,58.19,292.68,96.92,296.26,132.92Z" transform="translate(-211.68 -36.67)"/><g id="_Group_4" data-name="&lt;Group&gt;"><g id="_Clip_Group_" data-name="&lt;Clip Group&gt;"><g class="cls-4"><path id="_Path_2" data-name="&lt;Path&gt;" class="cls-2" d="M290.37,178.79c0-2-.68-4.34-2.89-4.81a8.35,8.35,0,0,0-3.74.36l-6.9,1.77c-2.35.61-4.71,1.24-7,2.05a6.91,6.91,0,0,0-2.22,1.13c-2.58,2.2.92,6.82,2.42,8.76,2.1,2.72,5.15,5.18,8.79,4.82a12.51,12.51,0,0,0,9.89-7.28A18.05,18.05,0,0,0,290.37,178.79Z" transform="translate(-211.68 -36.67)"/><path id="_Path_3" data-name="&lt;Path&gt;" class="cls-5" d="M285.47,172.9c.19,2.34.13,5-2,6.41a16.72,16.72,0,0,1-3.76,1.61,7.46,7.46,0,0,1-3.43.76c-2.48-.32-4-3-5-5a.52.52,0,0,1-.08-.44.51.51,0,0,1,.21-.2,23.42,23.42,0,0,1,11.81-3.5c.81,0,1.61,0,2.42,0" transform="translate(-211.68 -36.67)"/><path id="_Path_4" data-name="&lt;Path&gt;" class="cls-6" d="M293.75,183.49a10.48,10.48,0,0,0-7,.39,16.31,16.31,0,0,0-5.74,4.08,11.79,11.79,0,0,0-3,4.78,6.07,6.07,0,0,0,.89,5.39,1.8,1.8,0,0,0,1.09.74,2.1,2.1,0,0,0,1.05-.22,23,23,0,0,0,13.51-15.77" transform="translate(-211.68 -36.67)"/></g></g></g><g id="_Group_5" data-name="&lt;Group&gt;"><circle id="_Path_5" data-name="&lt;Path&gt;" class="cls-7" cx="21.57" cy="109.72" r="20.54"/><g id="_Group_6" data-name="&lt;Group&gt;"><circle id="_Path_6" data-name="&lt;Path&gt;" class="cls-5" cx="21.57" cy="106.59" r="20.58"/><circle id="_Path_7" data-name="&lt;Path&gt;" class="cls-2" cx="21.57" cy="106.59" r="16.25"/><g id="_Group_7" data-name="&lt;Group&gt;"><g id="_Group_8" data-name="&lt;Group&gt;"><path id="_Compound_Path_2" data-name="&lt;Compound Path&gt;" class="cls-2" d="M254,143.27l-.07,1.45a13.29,13.29,0,0,1-.17,1.75c-.05.34-.08.72-.15,1.11l-.27,1.24a23.3,23.3,0,0,1-2.33,6.07,20.3,20.3,0,0,1-5.65,6.48,19.62,19.62,0,0,1-9.62,3.65c-.46.06-.93,0-1.39.06a13.71,13.71,0,0,1-1.45,0,21.1,21.1,0,0,1-2.76-.36,20.43,20.43,0,0,1-5.54-1.91,24.66,24.66,0,0,1-4.9-3.36,26.25,26.25,0,0,1-4-4.55,24.85,24.85,0,0,1-2.71-5.5,22,22,0,0,1-.77-3,21,21,0,0,1,.23-9.41,21.76,21.76,0,0,1,2.52-5.82,23.28,23.28,0,0,1,4.1-4.77,22.55,22.55,0,0,1,5.18-3.35,20.3,20.3,0,0,1,5.74-1.69,20.91,20.91,0,0,1,2.9-.25h.44l.33,0,.66,0c.45,0,.85,0,1.33.11a21.91,21.91,0,0,1,2.78.54l1.3.36c.42.14.83.32,1.23.48a19.89,19.89,0,0,1,4.39,2.46,21.13,21.13,0,0,1,5.64,6.52,23.25,23.25,0,0,1,2.32,6.08l.27,1.24c.07.39.09.77.15,1.11a13.12,13.12,0,0,1,.17,1.75l.06,1.46Zm-.3,0-.09-1.44a10.48,10.48,0,0,0-.23-1.71c-.06-.33-.11-.7-.21-1.07l-.36-1.19a17.33,17.33,0,0,0-2.9-5.49A20.6,20.6,0,0,0,244,127.2a23.37,23.37,0,0,0-4-1.81l-1.09-.36-1.13-.27a19.46,19.46,0,0,0-2.27-.38c-.38-.06-.85,0-1.28-.07l-.66,0H233a19.39,19.39,0,0,0-2.48.21,20,20,0,0,0-4.94,1.37,20.51,20.51,0,0,0-4.58,2.73,21.2,21.2,0,0,0-3.76,4,22.56,22.56,0,0,0-2.58,5,21.37,21.37,0,0,0-1.14,5.68,20.68,20.68,0,0,0,.6,5.76,19.61,19.61,0,0,0,2.4,5.32c.26.41.57.79.86,1.17a9.77,9.77,0,0,0,.94,1.1,13.89,13.89,0,0,0,1,1l1.09.93a18.8,18.8,0,0,0,4.86,2.72,19.47,19.47,0,0,0,5.15,1.15,20.79,20.79,0,0,0,2.62.1c.33,0,.81-.05,1.2-.07s.82,0,1.22-.12a23.55,23.55,0,0,0,8.59-3,21.64,21.64,0,0,0,5.9-5.2,17.31,17.31,0,0,0,2.89-5.5l.36-1.19c.1-.38.15-.74.21-1.07a10.35,10.35,0,0,0,.22-1.71l.08-1.45Z" transform="translate(-211.68 -36.67)"/></g></g></g></g><g id="_Group_9" data-name="&lt;Group&gt;"><circle id="_Path_8" data-name="&lt;Path&gt;" class="cls-7" cx="75.61" cy="109.72" r="20.54"/><g id="_Group_10" data-name="&lt;Group&gt;"><circle id="_Path_9" data-name="&lt;Path&gt;" class="cls-5" cx="75.61" cy="106.59" r="20.58"/><circle id="_Path_10" data-name="&lt;Path&gt;" class="cls-2" cx="75.61" cy="106.59" r="16.25"/><g id="_Group_11" data-name="&lt;Group&gt;"><g id="_Group_12" data-name="&lt;Group&gt;"><path id="_Compound_Path_3" data-name="&lt;Compound Path&gt;" class="cls-2" d="M308,143.27l-.07,1.45a13.29,13.29,0,0,1-.17,1.75c-.05.34-.08.72-.15,1.11l-.27,1.24a23.3,23.3,0,0,1-2.33,6.07,20.3,20.3,0,0,1-5.65,6.48,19.62,19.62,0,0,1-9.62,3.65c-.46.06-.93,0-1.39.06a13.71,13.71,0,0,1-1.45,0,21.1,21.1,0,0,1-2.76-.36,20.43,20.43,0,0,1-5.54-1.91,24.66,24.66,0,0,1-4.9-3.36,26.25,26.25,0,0,1-4-4.55,24.85,24.85,0,0,1-2.71-5.5,22,22,0,0,1-.77-3,21,21,0,0,1,.23-9.41,21.76,21.76,0,0,1,2.52-5.82,23.28,23.28,0,0,1,4.1-4.77,22.55,22.55,0,0,1,5.18-3.35,20.3,20.3,0,0,1,5.74-1.69,20.91,20.91,0,0,1,2.9-.25h.44l.33,0,.66,0c.45,0,.85,0,1.33.11a21.91,21.91,0,0,1,2.78.54l1.3.36c.42.14.83.32,1.23.48a19.89,19.89,0,0,1,4.39,2.46,21.13,21.13,0,0,1,5.64,6.52,23.25,23.25,0,0,1,2.32,6.08l.27,1.24c.07.39.09.77.15,1.11a13.12,13.12,0,0,1,.17,1.75l.06,1.46Zm-.3,0-.09-1.44a10.48,10.48,0,0,0-.23-1.71c-.06-.33-.11-.7-.21-1.07l-.36-1.19a17.33,17.33,0,0,0-2.9-5.49A20.6,20.6,0,0,0,298,127.2a23.37,23.37,0,0,0-4-1.81l-1.09-.36-1.13-.27a19.46,19.46,0,0,0-2.27-.38c-.38-.06-.85,0-1.28-.07l-.66,0H287a19.39,19.39,0,0,0-2.48.21,20,20,0,0,0-4.94,1.37,20.51,20.51,0,0,0-4.58,2.73,21.2,21.2,0,0,0-3.76,4,22.56,22.56,0,0,0-2.58,5,21.37,21.37,0,0,0-1.14,5.68,20.68,20.68,0,0,0,.6,5.76,19.61,19.61,0,0,0,2.4,5.32c.26.41.57.79.86,1.17a9.77,9.77,0,0,0,.94,1.1,13.89,13.89,0,0,0,1,1l1.09.93a18.8,18.8,0,0,0,4.86,2.72,19.47,19.47,0,0,0,5.15,1.15,20.79,20.79,0,0,0,2.62.1c.33,0,.81-.05,1.2-.07s.82,0,1.22-.12a23.55,23.55,0,0,0,8.59-3,21.64,21.64,0,0,0,5.9-5.2,17.31,17.31,0,0,0,2.89-5.5l.36-1.19c.1-.38.15-.74.21-1.07a10.35,10.35,0,0,0,.22-1.71l.08-1.45Z" transform="translate(-211.68 -36.67)"/></g></g></g></g><circle id="_Path_11" data-name="&lt;Path&gt;" class="cls-5" cx="34.22" cy="96.69" r="3.61"/><circle id="_Path_12" data-name="&lt;Path&gt;" class="cls-5" cx="88.25" cy="98.86" r="3.61"/><g id="_Group_13" data-name="&lt;Group&gt;"><path id="_Path_13" data-name="&lt;Path&gt;" class="cls-2" d="M232.17,108.12a8.79,8.79,0,0,1,1.28.16,19.61,19.61,0,0,1,3.25.91,22,22,0,0,1,2.07.88c.73.33,1.45.76,2.21,1.19s1.5.95,2.22,1.51a26.78,26.78,0,0,1,2.13,1.78,22.11,22.11,0,0,1,1.94,2,18.19,18.19,0,0,1,1.67,2.13c.25.36.51.7.72,1.07l.61,1.08a14.38,14.38,0,0,1,1,2c.26.66.47,1.26.64,1.8s.24,1,.32,1.45c.16.8.2,1.27.2,1.27s-.36-.33-.91-.92c-.27-.3-.61-.64-.95-1.06s-.82-.83-1.26-1.31-.93-1-1.45-1.52-1-1.1-1.62-1.65c-.29-.28-.57-.57-.85-.87s-.61-.56-.9-.86c-.59-.59-1.21-1.17-1.84-1.74s-1.26-1.14-1.87-1.72l-1.85-1.65-3.36-2.94L233.11,109Z" transform="translate(-211.68 -36.67)"/></g><g id="_Group_14" data-name="&lt;Group&gt;"><path id="_Path_14" data-name="&lt;Path&gt;" class="cls-2" d="M265.2,110.91a8.79,8.79,0,0,1,1.22-.42,19.61,19.61,0,0,1,3.32-.62,22,22,0,0,1,2.24-.12c.8,0,1.64,0,2.5.09s1.76.19,2.66.37a26.78,26.78,0,0,1,2.7.65,22.11,22.11,0,0,1,2.63.93,18.19,18.19,0,0,1,2.44,1.17c.38.22.77.41,1.12.64l1,.7a14.38,14.38,0,0,1,1.78,1.41c.52.47,1,.92,1.37,1.34s.68.83.93,1.16c.5.65.74,1.05.74,1.05s-.47-.13-1.22-.42c-.37-.15-.83-.31-1.32-.53s-1.1-.38-1.71-.62-1.27-.48-2-.72-1.42-.53-2.18-.77c-.38-.12-.76-.26-1.15-.4s-.79-.23-1.19-.37c-.79-.26-1.6-.52-2.42-.74s-1.64-.46-2.44-.71l-2.39-.66-4.32-1.16-3.14-.89Z" transform="translate(-211.68 -36.67)"/></g></g></svg>