<?xml version="1.0" encoding="UTF-8"?>
<svg width="35px" height="35px" viewBox="0 0 35 35" version="1.1" xmlns="http://www.w3.org/2000/svg" xmlns:xlink="http://www.w3.org/1999/xlink">
    <!-- Generator: Sketch 46.2 (44496) - http://www.bohemiancoding.com/sketch -->
    <title>Group 31</title>
    <desc>Created with Sketch.</desc>
    <defs>
        <path d="M5.81250806,2.48870896 C5.19924875,2.98229422 4.39429503,3.28246671 3.49034274,3.11659692 C1.78619396,2.80404078 0.621414726,1.7814404 0.19139639,0.192068074 L5.81250806,0.192067713 L5.81250806,2.48870896 L5.81250806,2.48870896 Z" id="path-1"></path>
    </defs>
    <g id="Welcome" stroke="none" stroke-width="1" fill="none" fill-rule="evenodd">
        <g id="Homepage" transform="translate(-1294.000000, -35.000000)">
            <g id="Group-31" transform="translate(1294.000000, 35.000000)">
                <rect id="Rectangle-7" fill="#FFA705" x="-1.76846192e-13" y="1.76846192e-13" width="35" height="35" rx="17.5"></rect>
                <g id="Group-27" transform="translate(3.750000, 10.405405)">
                    <g id="Group-13">
                        <path d="M26.903369,4.91281604 C26.903369,7.54000291 24.7925625,9.66959169 22.1890645,9.66959169 C19.5853347,9.66959169 17.4745282,7.54000291 17.4745282,4.91281604 C17.4745282,2.28562918 19.5853347,0.156040395 22.1890645,0.156040395 C24.7925625,0.156040395 26.903369,2.28562918 26.903369,4.91281604" id="Fill-3" fill="#FFFFFF"></path>
                        <path d="M26.1526694,4.91281604 C26.1526694,7.12171171 24.3780524,8.91231619 22.188879,8.91231619 C19.9999375,8.91231619 18.2253206,7.12171171 18.2253206,4.91281604 C18.2253206,2.70392037 19.9999375,0.913315897 22.188879,0.913315897 C24.3780524,0.913315897 26.1526694,2.70392037 26.1526694,4.91281604" id="Fill-5" fill="#000000"></path>
                        <path d="M9.5833256,5.69262031 C9.5833256,8.31980718 7.47251915,10.449396 4.86902117,10.449396 C2.26529133,10.449396 0.154484879,8.31980718 0.154484879,5.69262031 C0.154484879,3.06543345 2.26529133,0.935844667 4.86902117,0.935844667 C7.47251915,0.935844667 9.5833256,3.06543345 9.5833256,5.69262031" id="Fill-7" fill="#FFFFFF"></path>
                        <path d="M8.83262601,5.69262031 C8.83262601,7.90151598 7.05800907,9.69212046 4.86883569,9.69212046 C2.67989415,9.69212046 0.905277218,7.90151598 0.905277218,5.69262031 C0.905277218,3.48372464 2.67989415,1.69312017 4.86883569,1.69312017 C7.05800907,1.69312017 8.83262601,3.48372464 8.83262601,5.69262031" id="Fill-9" fill="#000000"></path>
                        <path d="M6.27093145,14.3986918 C6.27093145,14.3986918 6.6803871,12.4160196 8.39959073,13.4074727 C10.1190262,14.3986918 9.79141532,15.472727 10.6919395,15.2247467 C11.5926956,14.9770004 12.8208306,14.6464381 13.2300544,15.8030554 C13.6395101,16.9596726 12.0019194,19.4378374 9.75060887,19.0249269 C7.49906653,18.6117825 6.18908669,16.9596726 6.27093145,14.3986918" id="Fill-11" fill="#FFFFFF"></path>
                    </g>
                    <g id="Group-16" transform="translate(6.250000, 15.765766)">
                        <mask id="mask-2" fill="white">
                            <use xlink:href="#path-1"></use>
                        </mask>
                        <g id="Clip-15"></g>
                        <path d="M5.81250806,3.86825777 C5.81250806,5.89842052 4.18140927,7.54444783 2.16914113,7.54444783 C0.157104839,7.54444783 -1.47422581,5.89842052 -1.47422581,3.86825777 C-1.47422581,1.83809503 0.157104839,0.192067713 2.16914113,0.192067713 C4.18140927,0.192067713 5.81250806,1.83809503 5.81250806,3.86825777" id="Fill-14" fill="#E6E7E8" mask="url(#mask-2)"></path>
                    </g>
                </g>
            </g>
        </g>
    </g>
</svg>