<?xml version="1.0" encoding="UTF-8"?>
<svg width="114px" height="153px" viewBox="0 0 114 153" version="1.1" xmlns="http://www.w3.org/2000/svg" xmlns:xlink="http://www.w3.org/1999/xlink">
    <!-- Generator: Sketch 46.2 (44496) - http://www.bohemiancoding.com/sketch -->
    <title>Group 2</title>
    <desc>Created with Sketch.</desc>
    <defs>
        <polygon id="path-1" points="7.86980098 155.842306 0 155.842306 0 0.796236321 119.376522 0.796236321 119.376522 155.842306 7.86980098 155.842306 119.376634 155.842681 119.376634 39.3085555 7.86980098 39.3085555 7.86980098 155.842306"></polygon>
    </defs>
    <g id="Welcome" stroke="none" stroke-width="1" fill="none" fill-rule="evenodd">
        <g id="profile" transform="translate(-674.000000, -88.000000)">
            <g id="Group-2" transform="translate(674.000000, 87.000000)">
                <g id="Page-1">
                    <g id="Group-3" transform="translate(0.000000, 0.513363)">
                        <mask id="mask-2" fill="white">
                            <use xlink:href="#path-1"></use>
                        </mask>
                        <g id="Clip-2"></g>
                        <path d="M104.071043,151.870292 L29.0527826,155.820043 C20.1453913,156.28888 12.5449565,149.418722 12.078,140.47416 L7.89234783,60.3240685 C7.4253913,51.3795059 14.268,43.7497809 23.1753913,43.2809444 L98.1936522,39.3311932 C107.102348,38.8623566 114.701478,45.7325141 115.168435,54.6757671 L119.354087,134.827168 C119.821043,143.770421 112.978435,151.401455 104.071043,151.870292" id="Fill-1" fill="#E28305" mask="url(#mask-2)"></path>
                    </g>
                    <polygon id="Fill-4" fill="#A61C85" points="86.5545652 37.2171071 72.3854348 38.132517 72.0697826 33.2162816 86.2402174 32.3021813"></polygon>
                    <path d="M98.922913,147.584759 L24.0559565,153.788331 C15.1668261,154.525635 7.36552174,147.887277 6.63117391,138.961049 L0.0559565217,58.9720383 C-0.678391304,50.0471197 5.93334783,42.2130972 14.8237826,41.4771024 L89.6907391,35.2722214 C98.5798696,34.5362266 106.381174,41.174585 107.115522,50.1008132 L113.690739,130.089824 C114.425087,139.014742 107.813348,146.847455 98.922913,147.584759" id="Fill-6" fill="#EF9200"></path>
                    <path d="M93.1704783,128.036372 L26.9826522,133.520973 C22.2400435,133.913853 18.0778696,130.372697 17.6865652,125.612304 L12.2239565,59.1566918 C11.8326522,54.3949891 15.3596087,50.2173676 20.1022174,49.8244878 L86.2900435,44.3385767 C91.0326522,43.9456969 95.1935217,47.4868532 95.5848261,52.248556 L101.048739,118.704168 C101.440043,123.464561 97.913087,127.643492 93.1704783,128.036372" id="Fill-8" fill="#FFFFFF"></path>
                    <path d="M71.4536087,100.561766 C76.6657826,99.6384988 85.3723043,87.7565052 89.1731739,73.9677351 C89.1731739,73.9677351 86.271,75.8758211 83.6140435,71.0119696 C83.6140435,71.0119696 77.8305652,75.7527188 73.0475217,69.9655999 C73.0475217,69.9655999 70.3788261,70.9805393 68.3388261,70.5077739 L65.837087,98.5384355 C65.837087,98.5384355 66.2414348,101.485034 71.4536087,100.561766" id="Fill-10" fill="#EF9200"></path>
                    <path d="M76.9514348,103.27041 C76.9514348,103.27041 90.6640435,79.4776118 91.521,72.2054074 C86.837087,73.5045298 85.2079565,69.3504811 85.2079565,69.3504811 C85.2079565,69.3504811 82.9188261,71.5872766 79.4857826,71.2585672 C76.0527391,70.9298578 75.8883913,67.4410855 75.8883913,67.4410855 C72.8036087,70.7569907 69.8583913,68.7637807 68.5996957,67.586451 L68.3388261,70.5068572 C70.3788261,70.9809321 73.0475217,69.9659927 73.0475217,69.9659927 C77.8305652,75.7531117 83.6140435,71.0123625 83.6140435,71.0123625 C86.271,75.876214 89.1731739,73.9668183 89.1731739,73.9668183 C85.3723043,87.756898 76.6657826,99.6388917 71.4536087,100.562159 C66.2414348,101.485427 65.837087,98.5375188 65.837087,98.5375188 L65.5475217,101.793182 C65.5475217,101.793182 71.3101304,108.442018 76.9514348,103.27041" id="Fill-12" fill="#E28100"></path>
                    <polygon id="Fill-14" fill="#870C70" points="46.5048261 106.767826 49.7487391 108.214933 53.7948261 104.870217"></polygon>
                    <path d="M25.653913,110.251622 L25.1034783,92.3585678 C24.9991304,91.0830181 24.9130435,89.7825861 24.8478261,88.4585813 C24.5647826,83.9653464 24.3717391,81.0802993 24.266087,79.8034401 L22.8117391,64.5767301 C30.9534783,63.2789172 35.8786957,62.5376841 37.5834783,62.351721 L38.9073913,78.3864538 L43.5182609,78.1363203 C44.5252174,78.052506 45.4643478,77.9294036 46.3330435,77.7683229 L48.3495652,77.3361552 L46.7426087,60.2602911 C53.3582609,59.1785621 58.1752174,58.4687593 61.1908696,58.1282635 L62.5356522,74.4275353 C63.3847826,84.7222947 64.26,93.1980209 65.163913,99.8560233 L65.8617391,105.9103 C65.9126087,106.527122 65.8565217,106.930478 65.696087,107.12037 L49.7752174,108.245316 L49.2365217,90.4832217 L49.0447826,88.1730887 L39.9691304,89.6594838 C40.2052174,91.9879512 40.6069565,95.5199403 41.1743478,100.256761 C41.6034783,103.85292 41.8473913,106.003282 41.9047826,106.707846 C42.0143478,108.026613 41.9478261,108.829397 41.7065217,109.116199 L25.653913,110.251622 Z" id="Fill-16" fill="#870C70"></path>
                    <path d="M34.6908261,115.415371 C34.6908261,114.595562 34.1221304,114.185658 32.9873478,114.185658 L32.3743043,114.185658 L32.4238696,115.365607 C32.4460435,115.996834 32.4851739,116.394952 32.5399565,116.561271 C32.5947391,116.72759 32.7225652,116.810095 32.9208261,116.810095 C33.0082174,116.810095 33.1908261,116.782593 33.4660435,116.72759 C34.2825652,116.550794 34.6908261,116.140889 34.6908261,115.499186 L34.6908261,115.415371 Z M32.4577826,111.312397 C34.3321304,111.312397 35.6221304,111.528481 36.329087,111.960649 C37.4208261,112.602352 37.9660435,113.677533 37.9660435,115.182263 C37.9660435,116.235181 37.6243043,117.164996 36.9408261,117.973019 C36.2677826,118.758778 35.2647391,119.213209 33.929087,119.335002 C33.389087,119.379528 33.096913,119.434531 33.0525652,119.501321 C33.0421304,119.501321 33.036913,119.534061 33.036913,119.600851 C33.036913,119.833959 33.1086522,120.4534 33.2508261,121.461791 C33.3943043,122.480659 33.4660435,123.1001 33.4660435,123.321422 L33.4660435,123.405236 C33.423,123.449763 32.9260435,123.498218 31.9777826,123.554531 C30.906913,123.609534 30.1360435,123.637035 29.6612609,123.637035 C29.3299565,123.637035 29.1538696,123.626559 29.1316957,123.604295 C29.0547391,123.527029 29.0103913,123.155103 28.9999565,122.491136 C28.9777826,122.103495 28.9386522,120.962834 28.8838696,119.069153 C28.8186522,117.043203 28.7573478,115.520139 28.7025652,114.502581 C28.6256087,113.195601 28.5864783,112.309002 28.5864783,111.844094 C28.5864783,111.667299 28.5916957,111.573007 28.6034348,111.562531 C29.849087,111.396212 31.1338696,111.312397 32.4577826,111.312397 L32.4577826,111.312397 Z" id="Fill-18" fill="#EF9200"></path>
                    <path d="M45.9400435,114.020124 C45.9400435,113.997861 45.3661304,114.037149 44.2196087,114.136679 C43.7996087,114.169419 43.2100435,114.241447 42.4496087,114.352763 L42.4496087,115.232813 C42.4496087,115.687244 42.5043913,115.919043 42.6152609,115.93083 C42.7248261,115.953093 42.8356957,115.96357 42.9452609,115.96357 C43.133087,115.96357 43.6404783,115.93083 44.4674348,115.86404 L45.5761304,115.780226 L45.5435217,118.505502 L42.6152609,118.737301 L42.5656957,120.365133 L44.187,120.282628 C44.7374348,120.260365 45.2839565,120.248578 45.8239565,120.248578 L45.9243913,120.248578 C46.0000435,120.248578 46.0391739,120.807777 46.0391739,121.926175 L46.0391739,123.603772 L42.1026522,123.620796 C41.4622174,123.620796 40.4148261,123.636512 38.9591739,123.670561 L38.1152609,123.670561 C38.1048261,123.670561 38.0983043,123.653536 38.0983043,123.620796 L38.130913,123.006594 C38.1648261,122.474897 38.1922174,121.881649 38.2143913,121.228159 C38.247,120.166074 38.2639565,118.349659 38.2639565,115.780226 L38.247,111.229369 C38.3904783,111.273895 39.207,111.296158 40.6952609,111.296158 C43.8165652,111.296158 45.6152609,111.273895 46.0887391,111.229369 L46.0065652,112.474797 L45.9400435,114.020124 Z" id="Fill-20" fill="#EF9200"></path>
                    <path d="M53.9137826,111.478847 C56.3398696,111.478847 57.5803043,111.506349 57.6363913,111.562662 C57.6468261,111.573138 57.6520435,111.744696 57.6520435,112.076024 C57.6520435,112.674511 57.6298696,113.964467 57.5868261,115.9472 C57.5307391,118.417104 57.5033478,120.115654 57.5033478,121.046779 C57.5033478,122.796404 57.4433478,123.669906 57.3220435,123.669906 L56.5276957,123.669906 L54.012913,123.604426 L52.242913,123.470847 C52.1985652,123.371318 52.1659565,123.239048 52.1437826,123.072729 L50.5720435,115.647302 C50.3072609,115.647302 50.1755217,117.878859 50.1755217,122.341973 L50.1755217,122.690326 C50.1755217,122.767592 50.169,122.834382 50.1585652,122.889385 C50.1363913,123.189283 50.0763913,123.366079 49.9759565,123.421082 C49.8663913,123.487872 49.299,123.532398 48.2724783,123.554662 L48.0572609,123.554662 C47.8916087,123.565138 47.5994348,123.570377 47.1807391,123.570377 L46.7346522,123.570377 C46.5572609,123.570377 46.4698696,123.554662 46.4698696,123.520612 L46.4698696,123.504897 C46.4698696,115.698376 46.5194348,111.744696 46.6185652,111.645166 C46.6407391,111.622903 46.8220435,111.611117 47.1637826,111.611117 L51.2503043,111.694931 C51.9559565,111.694931 52.3263913,111.717194 52.359,111.761721 C52.4255217,111.871727 52.6733478,112.802852 53.1037826,114.551167 C53.5224783,116.245788 53.8694348,117.779329 54.1446522,119.151789 L54.1446522,118.78772 C54.1446522,118.100181 54.129,117.386449 54.0963913,116.645216 L53.9137826,111.478847 Z" id="Fill-22" fill="#EF9200"></path>
                    <path d="M65.0471739,116.179654 C64.8697826,115.47116 64.4954348,115.116259 63.9228261,115.116259 C62.6758696,115.116259 62.0523913,116.013334 62.0523913,117.807485 C62.0523913,118.759564 62.2284783,119.423531 62.5819565,119.800695 C62.9236957,120.17655 63.3202174,120.365133 63.7728261,120.365133 C64.4015217,120.365133 64.8215217,120.066544 65.0302174,119.468057 L65.178913,118.97041 L66.4702174,118.97041 C67.5397826,118.97041 68.1293478,118.975648 68.2402174,118.986125 L68.621087,119.020174 L68.6041304,119.368528 C68.5154348,121.029099 67.908913,122.248336 66.7845652,123.022309 C65.7580435,123.742589 64.5945652,124.102729 63.2941304,124.102729 C61.5736957,124.102729 60.2497826,123.57627 59.3236957,122.524662 C58.3858696,121.473054 57.9176087,119.994516 57.9176087,118.089049 C57.9280435,115.100544 58.8215217,113.117811 60.5967391,112.143469 C61.5019565,111.623558 62.5323913,111.362948 63.6906522,111.362948 C65.3445652,111.362948 66.6071739,111.905122 67.4797826,112.99078 C68.2402174,113.931072 68.621087,114.966965 68.621087,116.095839 L65.0471739,116.179654 Z" id="Fill-24" fill="#EF9200"></path>
                    <path d="M68.9512174,123.554007 L69.1833913,119.485082 L69.216,118.089049 C69.2277391,117.524612 69.2329565,116.799094 69.2329565,115.913805 L69.1990435,112.076679 L70.1590435,112.076679 C70.809913,112.076679 71.4829565,112.054416 72.1768696,112.00989 L73.2203478,111.960125 L73.2203478,115.481637 C73.2203478,118.073334 73.2633913,120.2106 73.352087,121.893435 L73.3846957,123.106124 C73.3846957,123.426976 73.352087,123.631273 73.2855652,123.720326 L68.9512174,123.554007 Z" id="Fill-26" fill="#EF9200"></path>
                    <path d="M81.3755217,123.736696 C80.6581304,123.791699 78.9376957,123.82051 76.2142174,123.82051 C74.6255217,123.82051 73.8324783,123.798247 73.8324783,123.753721 L73.8155217,122.108864 C73.7933478,121.101782 73.7816087,120.16018 73.7816087,119.285368 L73.8481304,111.662191 L77.9516087,111.295503 L77.8185652,114.8013 C77.7742174,115.65385 77.7520435,116.467111 77.7520435,117.242393 C77.7520435,117.641821 77.769,118.178757 77.8016087,118.8532 C77.8355217,119.528954 77.8524783,119.944097 77.8524783,120.099939 L79.0094348,120.199468 C79.5833478,120.254472 79.962913,120.287212 80.1507391,120.298998 C80.5263913,120.321261 80.9124783,120.331738 81.309,120.331738 L81.3755217,123.736696 Z" id="Fill-28" fill="#EF9200"></path>
                    <path d="M77.1148696,102.77787 C77.1148696,102.77787 80.0783478,100.438926 82.8983478,101.977705 C85.7196522,103.516484 89.030087,101.793051 89.030087,101.793051 C89.030087,101.793051 87.8653043,106.780005 84.800087,107.02621 C81.7335652,107.272415 79.587913,102.747749 77.1148696,102.77787" id="Fill-30" fill="#A61C85"></path>
                    <path d="M66.3644348,105.702074 C69.2835652,106.820472 75.1831304,108.169359 78.1831304,104.37676 C78.3213913,103.124783 77.2987826,102.777739 77.2987826,102.777739 C77.2987826,102.777739 74.4370435,104.747376 70.0231304,104.173772 C65.607913,103.598858 65.7305217,100.150683 65.7305217,100.150683 C65.0626957,99.9149552 63.7557391,100.666665 63.624,102.257828 C63.7048696,103.095972 64.1457391,104.852144 66.3644348,105.702074" id="Fill-32" fill="#A61C85"></path>
                    <path d="M70.0228696,108.031196 C74.2737391,108.93351 77.708087,106.307764 78.1163478,104.748031 C78.1515652,104.615762 78.1698261,104.493969 78.1828696,104.377415 C75.1828696,108.168704 69.2833043,106.819817 66.3641739,105.702729 C64.1454783,104.852799 63.7046087,103.096627 63.6237391,102.258483 C63.6185217,102.321344 63.6106957,102.384205 63.6093913,102.449684 C63.5741739,104.173117 65.772,107.128882 70.0228696,108.031196" id="Fill-34" fill="#930A80"></path>
                    <path d="M86.1473478,60.0098957 C85.7143043,60.1159732 85.2643043,60.1775244 84.7999565,60.1775244 C83.0782174,60.1775244 81.5377826,59.40748 80.493,58.1961008 C76.4586522,60.9187575 70.0660435,65.5534292 68.613,67.4418712 L68.5999565,67.5872367 C69.8586522,68.7632568 72.8025652,70.7564668 75.8886522,67.4418712 C75.8886522,67.4418712 76.0516957,70.9306435 79.4860435,71.2580433 C82.919087,71.5867527 85.2082174,69.3499573 85.2082174,69.3499573 C85.2082174,69.3499573 86.8373478,73.504006 91.5212609,72.2048836 C91.529087,72.1354748 91.5382174,72.0634468 91.5447391,71.9966573 C91.5447391,71.9966573 88.443,64.7126665 86.1473478,60.0098957" id="Fill-36" fill="#FAE198"></path>
                    <path d="M84.7996957,60.1775244 C85.2653478,60.1775244 85.7140435,60.1159732 86.147087,60.0098957 C85.0279565,57.7167875 84.1005652,56.0339525 83.8188261,56.113838 C83.5579565,56.1884852 82.247087,57.0122231 80.4927391,58.1961008 C81.5375217,59.40748 83.0779565,60.1775244 84.7996957,60.1775244" id="Fill-38" fill="#534225"></path>
                    <path d="M76.0158261,88.769873 C75.7993043,88.769873 75.584087,88.7580866 75.3701739,88.7358235 C72.7706087,88.4542596 71.3188696,86.5697464 71.2575652,86.4898608 C71.1766957,86.3811641 71.1975652,86.2266314 71.3045217,86.1454362 C71.4127826,86.0629315 71.5666957,86.0838851 71.6488696,86.1912722 C71.661913,86.2096066 73.0432174,87.9919711 75.4301739,88.2460334 C77.3436522,88.4490212 79.3771304,87.6436177 81.4732174,85.845538 C81.5749565,85.7577948 81.7301739,85.7695812 81.8188696,85.8730396 C81.9062609,85.9764979 81.8945217,86.1323402 81.7914783,86.2200834 C79.8166957,87.9147048 77.8771304,88.769873 76.0158261,88.769873" id="Fill-40" fill="#534225"></path>
                    <path d="M82.8717391,86.6869555 C82.3865217,86.6869555 81.9834783,86.548138 81.6665217,86.2731221 C80.82,85.5345082 80.9543478,84.0991874 80.9608696,84.0389459 C80.9752174,83.9040572 81.093913,83.8045276 81.2295652,83.8189332 C81.363913,83.8320292 81.4617391,83.9525123 81.4486957,84.0874011 C81.4473913,84.100497 81.3352174,85.3328299 81.9886957,85.901196 C82.3395652,86.205023 82.8652174,86.2731221 83.5552174,86.1015646 C83.6856522,86.0688247 83.82,86.1487102 83.8526087,86.2809797 C83.8852174,86.4132493 83.8043478,86.5468284 83.6726087,86.5795684 C83.3856522,86.6515963 83.1182609,86.6869555 82.8717391,86.6869555" id="Fill-42" fill="#534225"></path>
                    <path d="M74.6422174,84.30964 C74.5626522,84.30964 74.4856957,84.2716617 74.4374348,84.1996337 C74.097,83.6875804 73.6704783,82.5469195 74.490913,81.8999775 C74.8378696,81.6249617 75.1835217,81.5070977 75.5135217,81.5555529 C75.9361304,81.6144849 76.1643913,81.9143831 76.1891739,81.9484327 C76.2687391,82.058439 76.2452609,82.2129717 76.1356957,82.2928572 C76.0261304,82.3727428 75.8722174,82.34917 75.7926522,82.2378541 C75.7887391,82.2339253 75.6622174,82.071535 75.4404783,82.0427238 C75.2474348,82.0178414 75.0296087,82.1003462 74.7935217,82.2876189 C74.1217826,82.8180065 74.8391739,83.9154507 74.8456957,83.9272371 C74.9213478,84.0398626 74.8913478,84.1930857 74.7778696,84.2677329 C74.7361304,84.296544 74.6891739,84.30964 74.6422174,84.30964" id="Fill-44" fill="#534225"></path>
                    <path d="M87.2522609,67.0724333 C87.2522609,67.0724333 83.9822609,63.5430634 84.6357391,62.6394399 C85.2905217,61.7371261 86.5987826,64.9377866 87.2522609,67.0724333" id="Fill-46" fill="#FFFFFF"></path>
                    <path d="M74.457913,79.1677606 C74.457913,80.6122486 73.2918261,81.7830303 71.8531304,81.7830303 C70.4157391,81.7830303 69.2496522,80.6122486 69.2496522,79.1677606 C69.2496522,77.7232727 70.4157391,76.552491 71.8531304,76.552491 C73.2918261,76.552491 74.457913,77.7232727 74.457913,79.1677606" id="Fill-48" fill="#FFFFFF"></path>
                    <path d="M73.878913,79.4139653 C73.878913,80.1918672 73.3636957,80.8230941 72.7271739,80.8230941 C72.0906522,80.8230941 71.5741304,80.1918672 71.5741304,79.4139653 C71.5741304,78.6360634 72.0906522,78.0048365 72.7271739,78.0048365 C73.3636957,78.0048365 73.878913,78.6360634 73.878913,79.4139653" id="Fill-50" fill="#534225"></path>
                    <path d="M85.0090435,79.1677606 C85.0090435,80.6122486 83.8429565,81.7830303 82.4042609,81.7830303 C80.9668696,81.7830303 79.8007826,80.6122486 79.8007826,79.1677606 C79.8007826,77.7232727 80.9668696,76.552491 82.4042609,76.552491 C83.8429565,76.552491 85.0090435,77.7232727 85.0090435,79.1677606" id="Fill-52" fill="#FFFFFF"></path>
                    <path d="M84.4394348,79.1677606 C84.4394348,79.9456626 83.9242174,80.5768894 83.2876957,80.5768894 C82.6511739,80.5768894 82.1346522,79.9456626 82.1346522,79.1677606 C82.1346522,78.3898587 82.6511739,77.7586319 83.2876957,77.7586319 C83.9242174,77.7586319 84.4394348,78.3898587 84.4394348,79.1677606" id="Fill-54" fill="#534225"></path>
                    <path d="M76.8654783,103.617847 C76.8654783,103.617847 74.535913,105.033524 73.6163478,104.757198 C73.6163478,104.757198 76.1298261,105.402831 76.8654783,103.617847" id="Fill-56" fill="#FFFFFF"></path>
                    <polygon id="Fill-58" fill="#870C70" points="57.7395652 56.6480235 61.1726087 58.1972794 58.3930435 62.4835976"></polygon>
                    <polygon id="Fill-60" fill="#870C70" points="34.0313478 60.8341574 37.6287391 62.4829428 37.6287391 65.6770553 34.767 64.4460321"></polygon>
                    <polygon id="Fill-62" fill="#870C70" points="22.3866522 108.795609 25.667087 110.242717 27.2453478 103.617454"></polygon>
                    <path d="M22.3837826,108.774394 L21.8333478,90.8813398 C21.729,89.6057902 21.642913,88.3053582 21.5776957,86.9813534 C21.2946522,82.4868089 21.1016087,79.6030714 20.9959565,78.3262122 L19.5416087,63.0995021 C27.6833478,61.8016893 32.6085652,61.0604562 34.3133478,60.8744931 L35.6372609,76.9092258 L40.2481304,76.6590924 C41.255087,76.575278 42.1942174,76.4521757 43.062913,76.291095 L45.0794348,75.8589273 L43.4724783,58.7830631 C50.0881304,57.7013342 54.905087,56.9915314 57.9207391,56.6510356 L59.2655217,72.9503074 C60.1146522,83.2450668 60.9898696,91.7207929 61.8937826,98.3787953 L62.5916087,104.433073 C62.6424783,105.049894 62.5863913,105.45325 62.4259565,105.643142 L46.505087,106.768088 L45.9663913,89.0059938 L45.7746522,86.6958608 L36.699,88.1822559 C36.935087,90.5107233 37.3368261,94.0414027 37.9042174,98.7795327 C38.3333478,102.375692 38.5772609,104.526054 38.6346522,105.230618 C38.7442174,106.549385 38.6776957,107.352169 38.4363913,107.638971 L22.3837826,108.774394 Z" id="Fill-64" fill="#A61C85"></path>
                    <polygon id="Fill-66" fill="#FFFFFF" points="56.3251304 59.0694725 50.6681739 59.5658106 54.9594783 60.1773934 56.9225217 71.259222"></polygon>
                    <path d="M35.6663478,142.78128 C35.6663478,145.78943 33.2376522,148.227904 30.2415652,148.227904 C27.2454783,148.227904 24.8167826,145.78943 24.8167826,142.78128 C24.8167826,139.773131 27.2454783,137.334657 30.2415652,137.334657 C33.2376522,137.334657 35.6663478,139.773131 35.6663478,142.78128" id="Fill-70" fill="#A61C85"></path>
                    <path d="M30.6794348,139.037529 C30.6794348,139.037529 33.9676957,138.993003 34.0511739,142.781673 C34.0511739,142.781673 33.2542174,139.653041 30.6794348,139.037529" id="Fill-72" fill="#FFFFFF"></path>
                    <polygon id="Fill-74" fill="#EF9200" points="39.7666957 42.6250971 38.5562609 41.7843344 62.9984348 6.31383972 64.2088696 7.15460242"></polygon>
                    <polygon id="Fill-76" fill="#EF9200" points="35.2888696 42.131902 23.6801739 29.4877216 24.7614783 28.4858782 36.3714783 41.1300586"></polygon>
                    <path d="M68.3285217,5.26681515 C68.8698261,7.94101675 67.1506957,10.5497384 64.4872174,11.0932221 C61.8237391,11.6380153 59.2254783,9.91065396 58.6841739,7.23645237 C58.1415652,4.56225078 59.862,1.95352915 62.5254783,1.41004547 C65.1889565,0.866561799 67.7872174,2.59261356 68.3285217,5.26681515" id="Fill-78" fill="#EF9200"></path>
                    <path d="M27.0006522,26.6982753 C27.0006522,29.4274801 24.7976087,31.6393931 22.0793478,31.6393931 C19.361087,31.6393931 17.1580435,29.4274801 17.1580435,26.6982753 C17.1580435,23.9690706 19.361087,21.7571575 22.0793478,21.7571575 C24.7976087,21.7571575 27.0006522,23.9690706 27.0006522,26.6982753" id="Fill-80" fill="#EF9200"></path>
                </g>
            </g>
        </g>
    </g>
</svg>