<?xml version="1.0" encoding="UTF-8"?>
<svg width="64px" height="85px" viewBox="0 0 64 85" version="1.1" xmlns="http://www.w3.org/2000/svg" xmlns:xlink="http://www.w3.org/1999/xlink">
    <!-- Generator: Sketch 46.2 (44496) - http://www.bohemiancoding.com/sketch -->
    <title>Group Copy</title>
    <desc>Created with Sketch.</desc>
    <defs>
        <polygon id="path-1" points="4.32839054 85.8119028 0 85.8119028 0 0.438433924 65.657087 0.438433924 65.657087 85.8119028 4.32839054 85.8119028 65.6571486 85.812109 65.6571486 21.6445844 4.32839054 21.6445844 4.32839054 85.8119028"></polygon>
    </defs>
    <g id="Welcome" stroke="none" stroke-width="1" fill="none" fill-rule="evenodd">
        <g id="Kid-Mode" transform="translate(-44.000000, -16.000000)">
            <g id="Group-Copy" transform="translate(44.730175, 16.000000)">
                <g id="Page-1">
                    <g id="Group-3" transform="translate(0.000000, 0.282675)">
                        <mask id="mask-2" fill="white">
                            <use xlink:href="#path-1"></use>
                        </mask>
                        <g id="Clip-2"></g>
                        <path d="M57.2390739,83.624781 L15.9790304,85.799644 C11.0799652,86.0578008 6.89972609,82.274866 6.6429,77.3496955 L4.3407913,33.2164175 C4.08396522,28.2912469 7.8474,24.0900692 12.7464652,23.8319124 L54.0065087,21.6570494 C58.9062913,21.3988926 63.085813,25.1818274 63.3426391,30.1062768 L65.6447478,74.2402759 C65.9015739,79.1647254 62.1381391,83.3666242 57.2390739,83.624781" id="Fill-1" fill="#E28305" mask="url(#mask-2)"></path>
                    </g>
                    <polygon id="Fill-4" fill="#A61C85" points="47.6050109 20.4929641 39.8119891 20.9970189 39.6383804 18.2899778 47.4321196 17.7866441"></polygon>
                    <path d="M54.4076022,81.2650258 L13.2307761,84.6809164 C8.34175435,85.0869004 4.05103696,81.4316018 3.64714565,76.5165268 L0.030776087,32.4719451 C-0.373115217,27.5575912 3.2633413,23.2439206 8.15308043,22.8386577 L49.3299065,19.4220459 C54.2189283,19.016783 58.5096457,22.6720816 58.913537,27.5871567 L62.5299065,71.6317383 C62.9337978,76.5460922 59.2973413,80.8590417 54.4076022,81.2650258" id="Fill-6" fill="#EF9200"></path>
                    <path d="M51.243763,70.5010403 L14.8404587,73.5210424 C12.2320239,73.7373749 9.94282826,71.7874977 9.72761087,69.1662686 L6.72317609,32.5736214 C6.5079587,29.9516712 8.44778478,27.6513353 11.0562196,27.4350028 L47.4595239,24.4142796 C50.0679587,24.1979471 52.356437,26.1478242 52.5716543,28.7697745 L55.5768065,65.3624216 C55.7920239,67.9836508 53.8521978,70.2847077 51.243763,70.5010403" id="Fill-8" fill="#FFFFFF"></path>
                    <path d="M39.2994848,55.3726181 C42.1661804,54.8642367 46.9547674,48.3216199 49.0452457,40.7290693 C49.0452457,40.7290693 47.44905,41.7797243 45.9877239,39.1015276 C45.9877239,39.1015276 42.8068109,41.7119401 40.176137,38.5253619 C40.176137,38.5253619 38.7083543,39.084221 37.5863543,38.8239008 L36.2103978,54.2585056 C36.2103978,54.2585056 36.4327891,55.8809996 39.2994848,55.3726181" id="Fill-10" fill="#EF9200"></path>
                    <path d="M42.3232891,56.8640867 C42.3232891,56.8640867 49.8652239,43.7629888 50.33655,39.7586737 C47.7603978,40.4740133 46.8643761,38.1866573 46.8643761,38.1866573 C46.8643761,38.1866573 45.6053543,39.4183105 43.7171804,39.2373123 C41.8290065,39.0563141 41.7386152,37.1352812 41.7386152,37.1352812 C40.0419848,38.9611278 38.4221152,37.8636007 37.7298326,37.2153243 L37.5863543,38.8233961 C38.7083543,39.0844373 40.176137,38.5255783 40.176137,38.5255783 C42.8068109,41.7121564 45.9877239,39.1017439 45.9877239,39.1017439 C47.44905,41.7799406 49.0452457,40.7285645 49.0452457,40.7285645 C46.9547674,48.3218363 42.1661804,54.864453 39.2994848,55.3728345 C36.4327891,55.8812159 36.2103978,54.2580008 36.2103978,54.2580008 L36.051137,56.0506764 C36.051137,56.0506764 39.2205717,59.7117439 42.3232891,56.8640867" id="Fill-12" fill="#E28100"></path>
                    <polygon id="Fill-14" fill="#870C70" points="25.5776543 58.7898789 27.3618065 59.5867037 29.5871543 57.7449927"></polygon>
                    <path d="M14.1096522,60.7081715 L13.806913,50.8556671 C13.7495217,50.1533074 13.7021739,49.4372468 13.6663043,48.7082062 C13.5106304,46.2340831 13.4044565,44.6454813 13.3463478,43.9424006 L12.5464565,35.5580729 C17.024413,34.8434544 19.7332826,34.4353071 20.670913,34.3329097 L21.3990652,43.1621612 L23.9350435,43.0244295 C24.4888696,42.9782786 25.0053913,42.9104944 25.4831739,42.8217981 L26.5922609,42.5838323 L25.7084348,33.1812995 C29.3470435,32.5856639 31.9963696,32.1948232 33.6549783,32.007335 L34.3946087,40.9822505 C34.8616304,46.6508838 35.343,51.3178976 35.8401522,54.9840128 L36.2239565,58.3176971 C36.2519348,58.6573391 36.221087,58.8794405 36.1328478,58.9840012 L27.3763696,59.6034334 L27.080087,49.8230398 L26.9746304,48.5510045 L21.9830217,49.3694626 C22.1128696,50.6515934 22.3338261,52.5964228 22.6458913,55.204672 C22.881913,57.1848357 23.0160652,58.3688958 23.0476304,58.7568521 C23.1078913,59.4830083 23.0713043,59.9250477 22.938587,60.0829705 L14.1096522,60.7081715 Z" id="Fill-16" fill="#870C70"></path>
                    <path d="M19.0799543,63.551502 C19.0799543,63.1000882 18.7671717,62.8743812 18.1430413,62.8743812 L17.8058674,62.8743812 L17.8331283,63.5240999 C17.8453239,63.8716742 17.8668457,64.0908911 17.8969761,64.1824719 C17.9271065,64.2740527 17.9974109,64.3194825 18.1064543,64.3194825 C18.1545196,64.3194825 18.2549543,64.3043392 18.4063239,64.2740527 C18.8554109,64.176703 19.0799543,63.9509961 19.0799543,63.597653 L19.0799543,63.551502 Z M17.8517804,61.2922693 C18.8826717,61.2922693 19.5921717,61.4112522 19.9809978,61.649218 C20.5814543,62.0025611 20.8813239,62.5945911 20.8813239,63.4231447 C20.8813239,64.0029159 20.6933674,64.5149029 20.3174543,64.9598268 C19.9472804,65.3924918 19.3956065,65.6427165 18.6609978,65.7097796 C18.3639978,65.7342972 18.2033022,65.7645838 18.1789109,65.8013603 C18.1731717,65.8013603 18.1703022,65.819388 18.1703022,65.8561646 C18.1703022,65.9845219 18.2097587,66.3256061 18.2879543,66.8808596 C18.3668674,67.441882 18.4063239,67.7829663 18.4063239,67.9048336 L18.4063239,67.9509845 C18.38265,67.9755022 18.1093239,68.0021832 17.5877804,68.0331909 C16.9988022,68.0634775 16.5748239,68.0786207 16.3136935,68.0786207 C16.1314761,68.0786207 16.0346283,68.0728519 16.0224326,68.060593 C15.9801065,68.0180476 15.9557152,67.8132528 15.9499761,67.4476509 C15.9377804,67.2342028 15.9162587,66.6061173 15.8861283,65.5633945 C15.8502587,64.4478398 15.8165413,63.6091907 15.7864109,63.0488895 C15.7440848,62.3292232 15.722563,61.8410328 15.722563,61.5850393 C15.722563,61.4876897 15.7254326,61.4357699 15.7318891,61.430001 C16.4169978,61.3384203 17.1236283,61.2922693 17.8517804,61.2922693 L17.8517804,61.2922693 Z" id="Fill-18" fill="#EF9200"></path>
                    <path d="M25.2670239,62.7832331 C25.2670239,62.7709743 24.9513717,62.7926075 24.3207848,62.8474118 C24.0897848,62.8654395 23.7655239,62.9051004 23.3472848,62.9663946 L23.3472848,63.4509795 C23.3472848,63.7012041 23.3774152,63.8288403 23.4383935,63.8353303 C23.4986543,63.8475891 23.5596326,63.853358 23.6198935,63.853358 C23.7231978,63.853358 24.002263,63.8353303 24.4570891,63.7985538 L25.0668717,63.7524028 L25.048937,65.2530295 L23.4383935,65.3806657 L23.4111326,66.2770034 L24.30285,66.2315736 C24.6055891,66.2193148 24.9061761,66.2128248 25.2031761,66.2128248 L25.2584152,66.2128248 C25.3000239,66.2128248 25.3215457,66.5207381 25.3215457,67.1365647 L25.3215457,68.0603046 L23.1564587,68.069679 C22.8042196,68.069679 22.2281543,68.0783323 21.4275457,68.0970811 L20.9633935,68.0970811 C20.9576543,68.0970811 20.9540674,68.0877067 20.9540674,68.069679 L20.9720022,67.7314791 C20.9906543,67.4387091 21.0057196,67.112047 21.0179152,66.7522139 C21.03585,66.167395 21.0451761,65.1672176 21.0451761,63.7524028 L21.03585,61.2465511 C21.114763,61.2710687 21.56385,61.2833276 22.3823935,61.2833276 C24.0991109,61.2833276 25.0883935,61.2710687 25.3488065,61.2465511 L25.3036109,61.9323252 L25.2670239,62.7832331 Z" id="Fill-20" fill="#EF9200"></path>
                    <path d="M29.6525804,61.3839222 C30.9869283,61.3839222 31.6691674,61.3990655 31.7000152,61.4300731 C31.7057543,61.435842 31.7086239,61.5303072 31.7086239,61.7127476 C31.7086239,62.0422942 31.6964283,62.752586 31.6727543,63.8443442 C31.6419065,65.2043547 31.6268413,66.1396323 31.6268413,66.6523404 C31.6268413,67.6157412 31.5938413,68.0967206 31.5271239,68.0967206 L31.0902326,68.0967206 L29.7071022,68.0606651 L28.7336022,67.9871121 C28.7092109,67.9323078 28.6912761,67.8594759 28.6790804,67.7678951 L27.8146239,63.6792103 C27.6689935,63.6792103 27.596537,64.9079791 27.596537,67.3655166 L27.596537,67.5573315 C27.596537,67.5998768 27.59295,67.6366534 27.5872109,67.6669399 C27.5750152,67.8320738 27.5420152,67.9294234 27.4867761,67.95971 C27.4265152,67.9964865 27.11445,68.0210042 26.549863,68.033263 L26.4314935,68.033263 C26.3403848,68.0390319 26.1796891,68.0419163 25.9494065,68.0419163 L25.7040587,68.0419163 C25.6064935,68.0419163 25.5584283,68.033263 25.5584283,68.0145142 L25.5584283,68.0058609 C25.5584283,63.7073336 25.5856891,61.5303072 25.6402109,61.475503 C25.6524065,61.4632441 25.7521239,61.4567542 25.9400804,61.4567542 L28.1876674,61.5029051 C28.5757761,61.5029051 28.7795152,61.5151639 28.79745,61.5396816 C28.834037,61.6002547 28.9703413,62.1129628 29.2070804,63.0756426 C29.437363,64.0087569 29.6281891,64.8531748 29.7795587,65.6088965 L29.7795587,65.4084283 C29.7795587,65.0298464 29.77095,64.6368423 29.7530152,64.228695 L29.6525804,61.3839222 Z" id="Fill-22" fill="#EF9200"></path>
                    <path d="M35.7759457,63.9723409 C35.6783804,63.5822212 35.4724891,63.3868009 35.1575543,63.3868009 C34.4717283,63.3868009 34.1288152,63.8807601 34.1288152,64.8686787 C34.1288152,65.3929245 34.225663,65.7585265 34.4200761,65.9662057 C34.6080326,66.1731638 34.8261196,66.2770034 35.0750543,66.2770034 C35.420837,66.2770034 35.651837,66.1125907 35.7666196,65.7830442 L35.8484022,65.509023 L36.5586196,65.509023 C37.1468804,65.509023 37.4711413,65.5119074 37.5321196,65.5176763 L37.7415978,65.5364251 L37.7322717,65.7282399 C37.6834891,66.6426054 37.3499022,67.3139574 36.7315109,67.7401324 C36.1669239,68.1367421 35.5270109,68.3350469 34.8117717,68.3350469 C33.8655326,68.3350469 33.1373804,68.0451613 32.6280326,67.4661112 C32.1122283,66.8870612 31.8546848,66.0729298 31.8546848,65.023717 C31.8604239,63.3781476 32.351837,62.2863894 33.3282065,61.7498847 C33.8260761,61.4636047 34.3928152,61.3201041 35.0298587,61.3201041 C35.9395109,61.3201041 36.6339457,61.618643 37.1138804,62.2164419 C37.5321196,62.7341977 37.7415978,63.3045945 37.7415978,63.92619 L35.7759457,63.9723409 Z" id="Fill-24" fill="#EF9200"></path>
                    <path d="M37.9231696,68.0329025 L38.0508652,65.7924186 L38.0688,65.023717 C38.0752565,64.7129193 38.0781261,64.3134252 38.0781261,63.8259559 L38.0594739,61.7131082 L38.5874739,61.7131082 C38.9454522,61.7131082 39.3156261,61.7008494 39.6972783,61.6763317 L40.2711913,61.6489296 L40.2711913,63.5879901 C40.2711913,65.0150637 40.2948652,66.1919126 40.3436478,67.118537 L40.3615826,67.7862834 C40.3615826,67.9629549 40.3436478,68.0754479 40.3070609,68.1244832 L37.9231696,68.0329025 Z" id="Fill-26" fill="#EF9200"></path>
                    <path d="M44.756537,68.1334971 C44.3619717,68.1637836 43.4157326,68.179648 41.9178196,68.179648 C41.044037,68.179648 40.607863,68.1673892 40.607863,68.1428715 L40.598537,67.2371593 C40.5863413,66.6826269 40.5798848,66.16415 40.5798848,65.6824495 L40.6164717,61.4848774 L42.8733848,61.282967 L42.8002109,63.2133743 C42.7758196,63.6828159 42.7636239,64.1306242 42.7636239,64.5575204 C42.7636239,64.7774585 42.77295,65.0731129 42.7908848,65.4444838 C42.809537,65.8165757 42.818863,66.0451671 42.818863,66.130979 L43.4551891,66.1857832 C43.7708413,66.2160698 43.9796022,66.2340975 44.0829065,66.2405875 C44.2895152,66.2528463 44.501863,66.2586152 44.71995,66.2586152 L44.756537,68.1334971 Z" id="Fill-28" fill="#EF9200"></path>
                    <path d="M42.4131783,56.5928778 C42.4131783,56.5928778 44.0430913,55.3049782 45.5940913,56.1522806 C47.1458087,56.999583 48.9665478,56.0506043 48.9665478,56.0506043 C48.9665478,56.0506043 48.3259174,58.7965852 46.6400478,58.9321536 C44.9534609,59.0677219 43.7733522,56.5762923 42.4131783,56.5928778" id="Fill-30" fill="#A61C85"></path>
                    <path d="M36.5004391,58.2030408 C38.1059609,58.8188674 41.3507217,59.5616091 43.0007217,57.4732791 C43.0767652,56.7838994 42.5143304,56.5928057 42.5143304,56.5928057 C42.5143304,56.5928057 40.9403739,57.6773528 38.5127217,57.3615073 C36.0843522,57.0449407 36.151787,55.1462622 36.151787,55.1462622 C35.7844826,55.0164627 35.0656565,55.4303789 34.9932,56.3065257 C35.0376783,56.7680351 35.2801565,57.7350415 36.5004391,58.2030408" id="Fill-32" fill="#A61C85"></path>
                    <path d="M38.5125783,59.4855322 C40.8505565,59.9823759 42.7394478,58.5365535 42.9639913,57.6777133 C42.9833609,57.6048814 42.9934043,57.5378183 43.0005783,57.4736396 C41.3505783,59.5612485 38.1058174,58.8185069 36.5002957,58.2034014 C35.280013,57.735402 35.0375348,56.7683956 34.9930565,56.3068862 C34.990187,56.3414994 34.9858826,56.3761126 34.9851652,56.412168 C34.9657957,57.3611467 36.1746,58.9886885 38.5125783,59.4855322" id="Fill-34" fill="#930A80"></path>
                    <path d="M47.3810413,33.0434236 C47.1428674,33.1018334 46.8953674,33.1357255 46.6399761,33.1357255 C45.6930196,33.1357255 44.8457804,32.7117137 44.27115,32.0446884 C42.0522587,33.5438728 38.5363239,36.0958755 37.73715,37.1357139 L37.7299761,37.2157569 C38.4222587,37.8633123 40.0414109,38.9608393 41.7387587,37.1357139 C41.7387587,37.1357139 41.8284326,39.0567467 43.7173239,39.2370239 C45.6054978,39.4180221 46.8645196,38.1863689 46.8645196,38.1863689 C46.8645196,38.1863689 47.7605413,40.4737248 50.3366935,39.7583852 C50.3409978,39.7201665 50.3460196,39.6805055 50.3496065,39.643729 C50.3496065,39.643729 48.64365,35.6329239 47.3810413,33.0434236" id="Fill-36" fill="#FAE198"></path>
                    <path d="M46.6398326,33.1357255 C46.8959413,33.1357255 47.1427239,33.1018334 47.3808978,33.0434236 C46.7653761,31.7807627 46.2553109,30.8541384 46.1003543,30.898126 C45.9568761,30.9392292 45.2358978,31.3928064 44.2710065,32.0446884 C44.845637,32.7117137 45.6928761,33.1357255 46.6398326,33.1357255" id="Fill-38" fill="#534225"></path>
                    <path d="M41.8087043,48.8796136 C41.6896174,48.8796136 41.5712478,48.8731237 41.4535957,48.8608648 C40.0238348,48.7058265 39.2253783,47.6681515 39.1916609,47.6241639 C39.1471826,47.5643119 39.1586609,47.4792211 39.217487,47.4345123 C39.2770304,47.3890825 39.3616826,47.4006202 39.4068783,47.4597511 C39.4140522,47.4698467 40.1737696,48.4512752 41.4865957,48.5911703 C42.5390087,48.7029421 43.6574217,48.2594604 44.8102696,47.2693785 C44.8662261,47.2210643 44.9515957,47.2275542 45.0003783,47.2845218 C45.0484435,47.3414894 45.041987,47.4273013 44.985313,47.4756155 C43.8991826,48.4087298 42.8324217,48.8796136 41.8087043,48.8796136" id="Fill-40" fill="#534225"></path>
                    <path d="M45.5794565,47.7326907 C45.312587,47.7326907 45.090913,47.6562532 44.916587,47.5048204 C44.451,47.0981153 44.5248913,46.3077804 44.5284783,46.2746094 C44.5363696,46.2003353 44.6016522,46.145531 44.6762609,46.1534632 C44.7501522,46.1606743 44.8039565,46.2270163 44.7967826,46.3012905 C44.7960652,46.3085015 44.7343696,46.9870646 45.0937826,47.3000256 C45.2867609,47.4673228 45.5758696,47.5048204 45.9553696,47.4103552 C46.0271087,47.3923275 46.101,47.4363151 46.1189348,47.5091471 C46.1368696,47.581979 46.0923913,47.6555321 46.0199348,47.6735598 C45.8621087,47.7132208 45.7150435,47.7326907 45.5794565,47.7326907" id="Fill-42" fill="#534225"></path>
                    <path d="M41.0532196,46.4236626 C41.0094587,46.4236626 40.9671326,46.4027504 40.9405891,46.3630894 C40.75335,46.081136 40.518763,45.4530506 40.9700022,45.096823 C41.1608283,44.9453903 41.350937,44.8804905 41.532437,44.9071715 C41.7648717,44.9396214 41.8904152,45.1047552 41.9040457,45.1235041 C41.9478065,45.1840772 41.9348935,45.269168 41.8746326,45.3131556 C41.8143717,45.3571432 41.7297196,45.3441632 41.6859587,45.282869 C41.6838065,45.2807057 41.6142196,45.1912883 41.492263,45.1754239 C41.3860891,45.1617228 41.2662848,45.2071526 41.136437,45.3102711 C40.7669804,45.6023201 41.1615457,46.2066089 41.1651326,46.2130989 C41.2067413,46.2751142 41.1902413,46.3594839 41.1278283,46.4005871 C41.1048717,46.4164515 41.0790457,46.4236626 41.0532196,46.4236626" id="Fill-44" fill="#534225"></path>
                    <path d="M47.9887435,36.9322892 C47.9887435,36.9322892 46.1902435,34.988902 46.5496565,34.4913372 C46.909787,33.9944935 47.6293304,35.7568825 47.9887435,36.9322892" id="Fill-46" fill="#FFFFFF"></path>
                    <path d="M40.9518522,43.5923745 C40.9518522,44.3877571 40.3105043,45.0324281 39.5192217,45.0324281 C38.7286565,45.0324281 38.0873087,44.3877571 38.0873087,43.5923745 C38.0873087,42.7969919 38.7286565,42.152321 39.5192217,42.152321 C40.3105043,42.152321 40.9518522,42.7969919 40.9518522,43.5923745" id="Fill-48" fill="#FFFFFF"></path>
                    <path d="M40.6334022,43.7279429 C40.6334022,44.1562813 40.3500326,44.5038556 39.9999457,44.5038556 C39.6498587,44.5038556 39.3657717,44.1562813 39.3657717,43.7279429 C39.3657717,43.2996045 39.6498587,42.9520303 39.9999457,42.9520303 C40.3500326,42.9520303 40.6334022,43.2996045 40.6334022,43.7279429" id="Fill-50" fill="#534225"></path>
                    <path d="M46.7549739,43.5923745 C46.7549739,44.3877571 46.1136261,45.0324281 45.3223435,45.0324281 C44.5317783,45.0324281 43.8904304,44.3877571 43.8904304,43.5923745 C43.8904304,42.7969919 44.5317783,42.152321 45.3223435,42.152321 C46.1136261,42.152321 46.7549739,42.7969919 46.7549739,43.5923745" id="Fill-52" fill="#FFFFFF"></path>
                    <path d="M46.4416891,43.5923745 C46.4416891,44.0207129 46.1583196,44.3682872 45.8082326,44.3682872 C45.4581457,44.3682872 45.1740587,44.0207129 45.1740587,43.5923745 C45.1740587,43.1640361 45.4581457,42.8164619 45.8082326,42.8164619 C46.1583196,42.8164619 46.4416891,43.1640361 46.4416891,43.5923745" id="Fill-54" fill="#534225"></path>
                    <path d="M42.276013,57.0553968 C42.276013,57.0553968 40.9947522,57.834915 40.4889913,57.6827611 C40.4889913,57.6827611 41.8714043,58.0382675 42.276013,57.0553968" id="Fill-56" fill="#FFFFFF"></path>
                    <polygon id="Fill-58" fill="#870C70" points="31.7567609 31.1922661 33.6449348 32.0453374 32.1161739 34.4055253"></polygon>
                    <polygon id="Fill-60" fill="#870C70" points="18.7172413 33.4972892 20.6958065 34.4051647 20.6958065 36.1639482 19.12185 35.4861063"></polygon>
                    <polygon id="Fill-62" fill="#870C70" points="12.3126587 59.9064431 14.1168978 60.703268 14.9849413 57.0551804"></polygon>
                    <path d="M12.3110804,59.8947612 L12.0083413,50.0422568 C11.95095,49.3398971 11.9036022,48.6238365 11.8677326,47.8947959 C11.7120587,45.4199517 11.6058848,43.832071 11.5477761,43.1289903 L10.7478848,34.7446626 C15.2258413,34.0300441 17.9347109,33.6218968 18.8723413,33.5194994 L19.6004935,42.3487509 L22.1364717,42.2110192 C22.6902978,42.1648683 23.2068196,42.0970841 23.6846022,42.0083878 L24.7936891,41.770422 L23.909863,32.3678892 C27.5484717,31.7722536 30.1977978,31.3814129 31.8564065,31.1939247 L32.596037,40.1688402 C33.0630587,45.8374735 33.5444283,50.5044873 34.0415804,54.1706025 L34.4253848,57.5042868 C34.453363,57.8439288 34.4225152,58.0660302 34.3342761,58.1705909 L25.5777978,58.7900231 L25.2815152,49.0096295 L25.1760587,47.7375942 L20.18445,48.5560523 C20.3142978,49.8381831 20.5352543,51.7822914 20.8473196,54.3912617 C21.0833413,56.3714254 21.2174935,57.5554855 21.2490587,57.9434418 C21.3093196,58.669598 21.2727326,59.1116374 21.1400152,59.2695602 L12.3110804,59.8947612 Z" id="Fill-64" fill="#A61C85"></path>
                    <polygon id="Fill-66" fill="#FFFFFF" points="30.9788217 32.5255956 27.8674957 32.7988957 30.227713 33.1356533 31.307387 39.2376729"></polygon>
                    <path d="M19.6164913,78.6200722 C19.6164913,80.2764582 18.2807087,81.6191621 16.6328609,81.6191621 C14.985013,81.6191621 13.6492304,80.2764582 13.6492304,78.6200722 C13.6492304,76.9636861 14.985013,75.6209822 16.6328609,75.6209822 C18.2807087,75.6209822 19.6164913,76.9636861 19.6164913,78.6200722" id="Fill-70" fill="#A61C85"></path>
                    <path d="M16.8736891,76.5586395 C16.8736891,76.5586395 18.6822326,76.5341218 18.7281457,78.6202885 C18.7281457,78.6202885 18.2898196,76.8975605 16.8736891,76.5586395" id="Fill-72" fill="#FFFFFF"></path>
                    <polygon id="Fill-74" fill="#EF9200" points="21.8716826 23.4707813 21.2059435 23.0078297 34.6491391 3.47660795 35.3148783 3.93955956"></polygon>
                    <polygon id="Fill-76" fill="#EF9200" points="19.4088783 23.1992119 13.0240957 16.23691 13.618813 15.6852621 20.004313 22.6475639"></polygon>
                    <path d="M37.580687,2.90008176 C37.8784043,4.37258517 36.9328826,5.80903316 35.4679696,6.10829315 C34.0030565,6.40827426 32.574013,5.45713225 32.2762957,3.98462884 C31.9778609,2.51212543 32.9241,1.07567744 34.389013,0.776417444 C35.8539261,0.477157446 37.2829696,1.42757835 37.580687,2.90008176" id="Fill-78" fill="#EF9200"></path>
                    <path d="M14.8503587,14.7009491 C14.8503587,16.203739 13.6386848,17.4216912 12.1436413,17.4216912 C10.6485978,17.4216912 9.43692391,16.203739 9.43692391,14.7009491 C9.43692391,13.1981591 10.6485978,11.980207 12.1436413,11.980207 C13.6386848,11.980207 14.8503587,13.1981591 14.8503587,14.7009491" id="Fill-80" fill="#EF9200"></path>
                </g>
            </g>
        </g>
    </g>
</svg>